<ttFont>
    <TTGlyph name="A" xMin="20" yMin="0" xMax="1384" yMax="1432">
      <contour>
        <pt x="268" y="436" on="1"/>
        <pt x="70" y="0" on="1"/>
        <pt x="20" y="0" on="1"/>
        <pt x="676" y="1432" on="1"/>
        <pt x="721" y="1432" on="1"/>
        <pt x="1384" y="0" on="1"/>
        <pt x="1337" y="0" on="1"/>
        <pt x="1137" y="436" on="1"/>
      </contour>
      <contour>
        <pt x="698" y="1384" on="1"/>
        <pt x="287" y="477" on="1"/>
        <pt x="1118" y="477" on="1"/>
      </contour>
    </TTGlyph>
    <TTGlyph name="AE" xMin="20" yMin="0" xMax="1888" yMax="1432">
      <contour>
        <pt x="1888" y="0" on="1"/>
        <pt x="965" y="0" on="1"/>
        <pt x="965" y="457" on="1"/>
        <pt x="344" y="457" on="1"/>
        <pt x="70" y="0" on="1"/>
        <pt x="20" y="0" on="1"/>
        <pt x="883" y="1432" on="1"/>
        <pt x="1860" y="1432" on="1"/>
        <pt x="1860" y="1391" on="1"/>
        <pt x="1006" y="1391" on="1"/>
        <pt x="1006" y="758" on="1"/>
        <pt x="1765" y="758" on="1"/>
        <pt x="1765" y="717" on="1"/>
        <pt x="1006" y="717" on="1"/>
        <pt x="1006" y="41" on="1"/>
        <pt x="1888" y="41" on="1"/>
      </contour>
      <contour>
        <pt x="965" y="1391" on="1"/>
        <pt x="905" y="1391" on="1"/>
        <pt x="369" y="498" on="1"/>
        <pt x="965" y="498" on="1"/>
      </contour>
    </TTGlyph>
    <TTGlyph name="Aacute" xMin="20" yMin="0" xMax="1384" yMax="1886">
      <component glyphName="A" x="0" y="0" flags="0x1000"/>
      <component glyphName="acute" x="442" y="373" flags="0x1000"/>
    </TTGlyph>
    <TTGlyph name="Abreve" xMin="20" yMin="0" xMax="1384" yMax="1860">
      <component glyphName="A" x="0" y="0" flags="0x1000"/>
      <component glyphName="breve" x="344" y="373" flags="0x1000"/>
    </TTGlyph>
    <TTGlyph name="Acircumflex" xMin="20" yMin="0" xMax="1384" yMax="1876">
      <component glyphName="A" x="0" y="0" flags="0x1000"/>
      <component glyphName="circumflex" x="344" y="373" flags="0x1000"/>
    </TTGlyph>
    <TTGlyph name="Adieresis" xMin="20" yMin="0" xMax="1384" yMax="1790">
      <contour>
        <pt x="528" y="1683" on="0"/>
        <pt x="496" y="1716" on="0"/>
        <pt x="496" y="1737" on="1"/>
        <pt x="496" y="1760" on="0"/>
        <pt x="528" y="1790" on="0"/>
        <pt x="549" y="1790" on="1"/>
        <pt x="572" y="1790" on="0"/>
        <pt x="602" y="1759" on="0"/>
        <pt x="602" y="1737" on="1"/>
        <pt x="602" y="1717" on="0"/>
        <pt x="571" y="1683" on="0"/>
        <pt x="549" y="1683" on="1"/>
      </contour>
      <contour>
        <pt x="836" y="1683" on="0"/>
        <pt x="803" y="1716" on="0"/>
        <pt x="803" y="1737" on="1"/>
        <pt x="803" y="1760" on="0"/>
        <pt x="836" y="1790" on="0"/>
        <pt x="856" y="1790" on="1"/>
        <pt x="879" y="1790" on="0"/>
        <pt x="909" y="1759" on="0"/>
        <pt x="909" y="1737" on="1"/>
        <pt x="909" y="1717" on="0"/>
        <pt x="879" y="1683" on="0"/>
        <pt x="856" y="1683" on="1"/>
      </contour>
      <contour>
        <pt x="268" y="436" on="1"/>
        <pt x="70" y="0" on="1"/>
        <pt x="20" y="0" on="1"/>
        <pt x="676" y="1432" on="1"/>
        <pt x="721" y="1432" on="1"/>
        <pt x="1384" y="0" on="1"/>
        <pt x="1337" y="0" on="1"/>
        <pt x="1137" y="436" on="1"/>
      </contour>
      <contour>
        <pt x="698" y="1384" on="1"/>
        <pt x="287" y="477" on="1"/>
        <pt x="1118" y="477" on="1"/>
      </contour>
    </TTGlyph>
    <TTGlyph name="Agrave" xMin="20" yMin="0" xMax="1384" yMax="1886">
      <component glyphName="A" x="0" y="0" flags="0x1000"/>
      <component glyphName="grave" x="244" y="373" flags="0x1000"/>
    </TTGlyph>
    <TTGlyph name="Amacron" xMin="20" yMin="0" xMax="1384" yMax="1759">
      <component glyphName="A" x="0" y="0" flags="0x1000"/>
      <component glyphName="macron" x="344" y="373" flags="0x1000"/>
    </TTGlyph>
    <TTGlyph name="Aogonek" xMin="20" yMin="-408" xMax="1501" yMax="1432">
      <contour>
        <pt x="1382" y="0" on="1"/>
        <pt x="1310" y="-98" on="0"/>
        <pt x="1260" y="-217" on="0"/>
        <pt x="1260" y="-268" on="1"/>
        <pt x="1260" y="-315" on="0"/>
        <pt x="1311" y="-367" on="0"/>
        <pt x="1350" y="-367" on="1"/>
        <pt x="1409" y="-367" on="0"/>
        <pt x="1473" y="-297" on="1"/>
        <pt x="1501" y="-326" on="1"/>
        <pt x="1470" y="-363" on="0"/>
        <pt x="1389" y="-408" on="0"/>
        <pt x="1350" y="-408" on="1"/>
        <pt x="1295" y="-408" on="0"/>
        <pt x="1219" y="-330" on="0"/>
        <pt x="1219" y="-268" on="1"/>
        <pt x="1219" y="-219" on="0"/>
        <pt x="1274" y="-96" on="0"/>
        <pt x="1339" y="0" on="1"/>
        <pt x="1337" y="0" on="1"/>
        <pt x="1137" y="436" on="1"/>
        <pt x="268" y="436" on="1"/>
        <pt x="70" y="0" on="1"/>
        <pt x="20" y="0" on="1"/>
        <pt x="676" y="1432" on="1"/>
        <pt x="721" y="1432" on="1"/>
        <pt x="1384" y="0" on="1"/>
      </contour>
      <contour>
        <pt x="1116" y="477" on="1"/>
        <pt x="698" y="1384" on="1"/>
        <pt x="287" y="477" on="1"/>
      </contour>
    </TTGlyph>
    <TTGlyph name="Aring" xMin="20" yMin="0" xMax="1384" yMax="1835">
      <contour>
        <pt x="268" y="436" on="1"/>
        <pt x="70" y="0" on="1"/>
        <pt x="20" y="0" on="1"/>
        <pt x="659" y="1395" on="1"/>
        <pt x="579" y="1411" on="0"/>
        <pt x="473" y="1534" on="0"/>
        <pt x="473" y="1612" on="1"/>
        <pt x="473" y="1702" on="0"/>
        <pt x="608" y="1835" on="0"/>
        <pt x="702" y="1835" on="1"/>
        <pt x="763" y="1835" on="0"/>
        <pt x="870" y="1774" on="0"/>
        <pt x="934" y="1671" on="0"/>
        <pt x="934" y="1612" on="1"/>
        <pt x="934" y="1532" on="0"/>
        <pt x="821" y="1407" on="0"/>
        <pt x="739" y="1393" on="1"/>
        <pt x="1384" y="0" on="1"/>
        <pt x="1337" y="0" on="1"/>
        <pt x="1137" y="436" on="1"/>
      </contour>
      <contour>
        <pt x="514" y="1538" on="0"/>
        <pt x="625" y="1432" on="0"/>
        <pt x="702" y="1432" on="1"/>
        <pt x="780" y="1432" on="0"/>
        <pt x="893" y="1538" on="0"/>
        <pt x="893" y="1612" on="1"/>
        <pt x="893" y="1686" on="0"/>
        <pt x="780" y="1794" on="0"/>
        <pt x="702" y="1794" on="1"/>
        <pt x="626" y="1794" on="0"/>
        <pt x="514" y="1686" on="0"/>
        <pt x="514" y="1612" on="1"/>
      </contour>
      <contour>
        <pt x="698" y="1384" on="1"/>
        <pt x="287" y="477" on="1"/>
        <pt x="1118" y="477" on="1"/>
      </contour>
    </TTGlyph>
    <TTGlyph name="Atilde" xMin="20" yMin="0" xMax="1384" yMax="1848">
      <component glyphName="A" x="0" y="0" flags="0x1000"/>
      <component glyphName="tilde" x="344" y="373" flags="0x1000"/>
    </TTGlyph>
    <TTGlyph name="B" xMin="262" yMin="0" xMax="1350" yMax="1432">
      <contour>
        <pt x="1044" y="1432" on="0"/>
        <pt x="1274" y="1245" on="0"/>
        <pt x="1274" y="1077" on="1"/>
        <pt x="1274" y="942" on="0"/>
        <pt x="1126" y="768" on="0"/>
        <pt x="991" y="745" on="1"/>
        <pt x="1161" y="725" on="0"/>
        <pt x="1350" y="535" on="0"/>
        <pt x="1350" y="383" on="1"/>
        <pt x="1350" y="201" on="0"/>
        <pt x="1081" y="0" on="0"/>
        <pt x="838" y="0" on="1"/>
        <pt x="262" y="0" on="1"/>
        <pt x="262" y="1432" on="1"/>
        <pt x="838" y="1432" on="1"/>
      </contour>
      <contour>
        <pt x="303" y="762" on="1"/>
        <pt x="838" y="762" on="1"/>
        <pt x="1026" y="762" on="0"/>
        <pt x="1233" y="926" on="0"/>
        <pt x="1233" y="1077" on="1"/>
        <pt x="1233" y="1227" on="0"/>
        <pt x="1026" y="1391" on="0"/>
        <pt x="838" y="1391" on="1"/>
        <pt x="303" y="1391" on="1"/>
      </contour>
      <contour>
        <pt x="303" y="41" on="1"/>
        <pt x="838" y="41" on="1"/>
        <pt x="1063" y="41" on="0"/>
        <pt x="1311" y="221" on="0"/>
        <pt x="1311" y="385" on="1"/>
        <pt x="1311" y="547" on="0"/>
        <pt x="1063" y="723" on="0"/>
        <pt x="838" y="723" on="1"/>
        <pt x="303" y="723" on="1"/>
      </contour>
    </TTGlyph>
    <TTGlyph name="C" xMin="102" yMin="0" xMax="1331" yMax="1432">
      <contour>
        <pt x="977" y="1432" on="0"/>
        <pt x="1229" y="1335" on="0"/>
        <pt x="1329" y="1247" on="1"/>
        <pt x="1303" y="1221" on="1"/>
        <pt x="1209" y="1303" on="0"/>
        <pt x="971" y="1393" on="0"/>
        <pt x="838" y="1393" on="1"/>
        <pt x="650" y="1393" on="0"/>
        <pt x="330" y="1210" on="0"/>
        <pt x="141" y="899" on="0"/>
        <pt x="141" y="717" on="1"/>
        <pt x="141" y="535" on="0"/>
        <pt x="330" y="221" on="0"/>
        <pt x="649" y="39" on="0"/>
        <pt x="838" y="39" on="1"/>
        <pt x="969" y="39" on="0"/>
        <pt x="1208" y="131" on="0"/>
        <pt x="1303" y="213" on="1"/>
        <pt x="1331" y="186" on="1"/>
        <pt x="1231" y="98" on="0"/>
        <pt x="977" y="0" on="0"/>
        <pt x="838" y="0" on="1"/>
        <pt x="639" y="0" on="0"/>
        <pt x="301" y="195" on="0"/>
        <pt x="102" y="524" on="0"/>
        <pt x="102" y="717" on="1"/>
        <pt x="102" y="910" on="0"/>
        <pt x="301" y="1239" on="0"/>
        <pt x="639" y="1432" on="0"/>
        <pt x="838" y="1432" on="1"/>
      </contour>
    </TTGlyph>
    <TTGlyph name="Cacute" xMin="102" yMin="0" xMax="1331" yMax="1886">
      <component glyphName="C" x="0" y="0" flags="0x1000"/>
      <component glyphName="acute" x="463" y="373" flags="0x1000"/>
    </TTGlyph>
    <TTGlyph name="Ccaron" xMin="102" yMin="0" xMax="1331" yMax="1876">
      <component glyphName="C" x="0" y="0" flags="0x1000"/>
      <component glyphName="caron" x="365" y="373" flags="0x1000"/>
    </TTGlyph>
    <TTGlyph name="Ccedilla" xMin="102" yMin="-410" xMax="1331" yMax="1432">
      <contour>
        <pt x="885" y="-100" on="0"/>
        <pt x="971" y="-186" on="0"/>
        <pt x="971" y="-250" on="1"/>
        <pt x="971" y="-320" on="0"/>
        <pt x="874" y="-410" on="0"/>
        <pt x="799" y="-410" on="1"/>
        <pt x="762" y="-410" on="0"/>
        <pt x="680" y="-387" on="0"/>
        <pt x="655" y="-369" on="1"/>
        <pt x="672" y="-330" on="1"/>
        <pt x="695" y="-346" on="0"/>
        <pt x="766" y="-369" on="0"/>
        <pt x="799" y="-369" on="1"/>
        <pt x="856" y="-369" on="0"/>
        <pt x="930" y="-303" on="0"/>
        <pt x="930" y="-250" on="1"/>
        <pt x="930" y="-203" on="0"/>
        <pt x="868" y="-137" on="0"/>
        <pt x="821" y="-137" on="1"/>
        <pt x="762" y="-137" on="1"/>
        <pt x="819" y="0" on="1"/>
        <pt x="624" y="4" on="0"/>
        <pt x="295" y="201" on="0"/>
        <pt x="102" y="526" on="0"/>
        <pt x="102" y="717" on="1"/>
        <pt x="102" y="910" on="0"/>
        <pt x="301" y="1239" on="0"/>
        <pt x="639" y="1432" on="0"/>
        <pt x="838" y="1432" on="1"/>
        <pt x="977" y="1432" on="0"/>
        <pt x="1229" y="1335" on="0"/>
        <pt x="1329" y="1247" on="1"/>
        <pt x="1303" y="1221" on="1"/>
        <pt x="1209" y="1303" on="0"/>
        <pt x="971" y="1393" on="0"/>
        <pt x="838" y="1393" on="1"/>
        <pt x="650" y="1393" on="0"/>
        <pt x="330" y="1210" on="0"/>
        <pt x="141" y="899" on="0"/>
        <pt x="141" y="717" on="1"/>
        <pt x="141" y="535" on="0"/>
        <pt x="330" y="221" on="0"/>
        <pt x="649" y="39" on="0"/>
        <pt x="838" y="39" on="1"/>
        <pt x="969" y="39" on="0"/>
        <pt x="1208" y="131" on="0"/>
        <pt x="1303" y="213" on="1"/>
        <pt x="1331" y="186" on="1"/>
        <pt x="1237" y="102" on="0"/>
        <pt x="993" y="4" on="0"/>
        <pt x="860" y="0" on="1"/>
        <pt x="819" y="-100" on="1"/>
      </contour>
    </TTGlyph>
    <TTGlyph name="D" xMin="262" yMin="0" xMax="1559" yMax="1432">
      <contour>
        <pt x="1024" y="1432" on="0"/>
        <pt x="1360" y="1239" on="0"/>
        <pt x="1559" y="909" on="0"/>
        <pt x="1559" y="715" on="1"/>
        <pt x="1559" y="522" on="0"/>
        <pt x="1360" y="193" on="0"/>
        <pt x="1024" y="0" on="0"/>
        <pt x="825" y="0" on="1"/>
        <pt x="262" y="0" on="1"/>
        <pt x="262" y="1432" on="1"/>
        <pt x="825" y="1432" on="1"/>
      </contour>
      <contour>
        <pt x="303" y="41" on="1"/>
        <pt x="825" y="41" on="1"/>
        <pt x="1011" y="41" on="0"/>
        <pt x="1331" y="223" on="0"/>
        <pt x="1518" y="532" on="0"/>
        <pt x="1518" y="715" on="1"/>
        <pt x="1518" y="897" on="0"/>
        <pt x="1331" y="1208" on="0"/>
        <pt x="1012" y="1391" on="0"/>
        <pt x="825" y="1391" on="1"/>
        <pt x="303" y="1391" on="1"/>
      </contour>
    </TTGlyph>
    <TTGlyph name="Dcaron" xMin="262" yMin="0" xMax="1559" yMax="1876">
      <component glyphName="D" x="0" y="0" flags="0x1000"/>
      <component glyphName="caron" x="432" y="373" flags="0x1000"/>
    </TTGlyph>
    <TTGlyph name="Dcroat" xMin="262" yMin="0" xMax="1559" yMax="1759">
      <component glyphName="D" x="0" y="0" flags="0x1000"/>
      <component glyphName="macron" x="432" y="373" flags="0x1000"/>
    </TTGlyph>
    <TTGlyph name="Delta" xMin="20" yMin="0" xMax="1384" yMax="1432">
      <contour>
        <pt x="20" y="0" on="1"/>
        <pt x="676" y="1432" on="1"/>
        <pt x="721" y="1432" on="1"/>
        <pt x="1384" y="0" on="1"/>
      </contour>
      <contour>
        <pt x="698" y="1384" on="1"/>
        <pt x="88" y="41" on="1"/>
        <pt x="1319" y="41" on="1"/>
      </contour>
    </TTGlyph>
    <TTGlyph name="E" xMin="262" yMin="0" xMax="1186" yMax="1432">
      <contour>
        <pt x="303" y="1391" on="1"/>
        <pt x="303" y="758" on="1"/>
        <pt x="1063" y="758" on="1"/>
        <pt x="1063" y="717" on="1"/>
        <pt x="303" y="717" on="1"/>
        <pt x="303" y="41" on="1"/>
        <pt x="1186" y="41" on="1"/>
        <pt x="1186" y="0" on="1"/>
        <pt x="262" y="0" on="1"/>
        <pt x="262" y="1432" on="1"/>
        <pt x="1157" y="1432" on="1"/>
        <pt x="1157" y="1391" on="1"/>
      </contour>
    </TTGlyph>
    <TTGlyph name="Eacute" xMin="262" yMin="0" xMax="1186" yMax="1886">
      <component glyphName="E" x="0" y="0" flags="0x1000"/>
      <component glyphName="acute" x="459" y="373" flags="0x1000"/>
    </TTGlyph>
    <TTGlyph name="Ecaron" xMin="262" yMin="0" xMax="1186" yMax="1876">
      <component glyphName="E" x="0" y="0" flags="0x1000"/>
      <component glyphName="caron" x="360" y="373" flags="0x1000"/>
    </TTGlyph>
    <TTGlyph name="Ecircumflex" xMin="262" yMin="0" xMax="1186" yMax="1876">
      <component glyphName="E" x="0" y="0" flags="0x1000"/>
      <component glyphName="circumflex" x="360" y="373" flags="0x1000"/>
    </TTGlyph>
    <TTGlyph name="Edieresis" xMin="262" yMin="0" xMax="1186" yMax="1790">
      <contour>
        <pt x="588" y="1790" on="0"/>
        <pt x="618" y="1759" on="0"/>
        <pt x="618" y="1737" on="1"/>
        <pt x="618" y="1717" on="0"/>
        <pt x="588" y="1683" on="0"/>
        <pt x="565" y="1683" on="1"/>
        <pt x="545" y="1683" on="0"/>
        <pt x="512" y="1716" on="0"/>
        <pt x="512" y="1737" on="1"/>
        <pt x="512" y="1760" on="0"/>
        <pt x="545" y="1790" on="0"/>
        <pt x="565" y="1790" on="1"/>
      </contour>
      <contour>
        <pt x="895" y="1790" on="0"/>
        <pt x="926" y="1759" on="0"/>
        <pt x="926" y="1737" on="1"/>
        <pt x="926" y="1717" on="0"/>
        <pt x="895" y="1683" on="0"/>
        <pt x="872" y="1683" on="1"/>
        <pt x="852" y="1683" on="0"/>
        <pt x="819" y="1716" on="0"/>
        <pt x="819" y="1737" on="1"/>
        <pt x="819" y="1760" on="0"/>
        <pt x="852" y="1790" on="0"/>
        <pt x="872" y="1790" on="1"/>
      </contour>
      <contour>
        <pt x="303" y="1391" on="1"/>
        <pt x="303" y="758" on="1"/>
        <pt x="1063" y="758" on="1"/>
        <pt x="1063" y="717" on="1"/>
        <pt x="303" y="717" on="1"/>
        <pt x="303" y="41" on="1"/>
        <pt x="1186" y="41" on="1"/>
        <pt x="1186" y="0" on="1"/>
        <pt x="262" y="0" on="1"/>
        <pt x="262" y="1432" on="1"/>
        <pt x="1157" y="1432" on="1"/>
        <pt x="1157" y="1391" on="1"/>
      </contour>
    </TTGlyph>
    <TTGlyph name="Edotaccent" xMin="262" yMin="0" xMax="1186" yMax="1790">
      <component glyphName="E" x="0" y="0" flags="0x1000"/>
      <component glyphName="dotaccent" x="360" y="373" flags="0x1000"/>
    </TTGlyph>
    <TTGlyph name="Egrave" xMin="262" yMin="0" xMax="1186" yMax="1886">
      <component glyphName="E" x="0" y="0" flags="0x1000"/>
      <component glyphName="grave" x="260" y="373" flags="0x1000"/>
    </TTGlyph>
    <TTGlyph name="Emacron" xMin="262" yMin="0" xMax="1186" yMax="1759">
      <component glyphName="E" x="0" y="0" flags="0x1000"/>
      <component glyphName="macron" x="360" y="373" flags="0x1000"/>
    </TTGlyph>
    <TTGlyph name="Eogonek" xMin="262" yMin="-408" xMax="1188" yMax="1432">
      <contour>
        <pt x="303" y="1391" on="1"/>
        <pt x="303" y="758" on="1"/>
        <pt x="1063" y="758" on="1"/>
        <pt x="1063" y="717" on="1"/>
        <pt x="303" y="717" on="1"/>
        <pt x="303" y="41" on="1"/>
        <pt x="1186" y="41" on="1"/>
        <pt x="1186" y="0" on="1"/>
        <pt x="1069" y="0" on="1"/>
        <pt x="999" y="-96" on="0"/>
        <pt x="946" y="-217" on="0"/>
        <pt x="946" y="-268" on="1"/>
        <pt x="946" y="-315" on="0"/>
        <pt x="997" y="-367" on="0"/>
        <pt x="1036" y="-367" on="1"/>
        <pt x="1095" y="-367" on="0"/>
        <pt x="1159" y="-297" on="1"/>
        <pt x="1188" y="-326" on="1"/>
        <pt x="1157" y="-363" on="0"/>
        <pt x="1075" y="-408" on="0"/>
        <pt x="1036" y="-408" on="1"/>
        <pt x="981" y="-408" on="0"/>
        <pt x="905" y="-330" on="0"/>
        <pt x="905" y="-268" on="1"/>
        <pt x="905" y="-219" on="0"/>
        <pt x="963" y="-94" on="0"/>
        <pt x="1028" y="0" on="1"/>
        <pt x="262" y="0" on="1"/>
        <pt x="262" y="1432" on="1"/>
        <pt x="1157" y="1432" on="1"/>
        <pt x="1157" y="1391" on="1"/>
      </contour>
    </TTGlyph>
    <TTGlyph name="Eth" xMin="0" yMin="0" xMax="1559" yMax="1432">
      <contour>
        <pt x="1024" y="1432" on="0"/>
        <pt x="1360" y="1239" on="0"/>
        <pt x="1559" y="909" on="0"/>
        <pt x="1559" y="715" on="1"/>
        <pt x="1559" y="522" on="0"/>
        <pt x="1360" y="193" on="0"/>
        <pt x="1024" y="0" on="0"/>
        <pt x="825" y="0" on="1"/>
        <pt x="262" y="0" on="1"/>
        <pt x="262" y="700" on="1"/>
        <pt x="0" y="700" on="1"/>
        <pt x="0" y="741" on="1"/>
        <pt x="262" y="741" on="1"/>
        <pt x="262" y="1432" on="1"/>
        <pt x="825" y="1432" on="1"/>
      </contour>
      <contour>
        <pt x="1012" y="41" on="0"/>
        <pt x="1331" y="223" on="0"/>
        <pt x="1518" y="532" on="0"/>
        <pt x="1518" y="715" on="1"/>
        <pt x="1518" y="897" on="0"/>
        <pt x="1331" y="1208" on="0"/>
        <pt x="1012" y="1391" on="0"/>
        <pt x="825" y="1391" on="1"/>
        <pt x="303" y="1391" on="1"/>
        <pt x="303" y="741" on="1"/>
        <pt x="840" y="741" on="1"/>
        <pt x="840" y="700" on="1"/>
        <pt x="303" y="700" on="1"/>
        <pt x="303" y="41" on="1"/>
        <pt x="825" y="41" on="1"/>
      </contour>
    </TTGlyph>
    <TTGlyph name="Euro" xMin="106" yMin="0" xMax="1536" yMax="1432">
      <contour>
        <pt x="1436" y="98" on="0"/>
        <pt x="1182" y="0" on="0"/>
        <pt x="1042" y="0" on="1"/>
        <pt x="888" y="0" on="0"/>
        <pt x="612" y="119" on="0"/>
        <pt x="406" y="332" on="0"/>
        <pt x="354" y="467" on="1"/>
        <pt x="106" y="467" on="1"/>
        <pt x="106" y="508" on="1"/>
        <pt x="340" y="508" on="1"/>
        <pt x="307" y="612" on="0"/>
        <pt x="307" y="717" on="1"/>
        <pt x="307" y="801" on="0"/>
        <pt x="326" y="877" on="1"/>
        <pt x="106" y="877" on="1"/>
        <pt x="106" y="918" on="1"/>
        <pt x="338" y="918" on="1"/>
        <pt x="381" y="1065" on="0"/>
        <pt x="590" y="1298" on="0"/>
        <pt x="879" y="1432" on="0"/>
        <pt x="1042" y="1432" on="1"/>
        <pt x="1181" y="1432" on="0"/>
        <pt x="1434" y="1335" on="0"/>
        <pt x="1534" y="1247" on="1"/>
        <pt x="1507" y="1221" on="1"/>
        <pt x="1413" y="1303" on="0"/>
        <pt x="1176" y="1393" on="0"/>
        <pt x="1042" y="1393" on="1"/>
        <pt x="888" y="1393" on="0"/>
        <pt x="618" y="1270" on="0"/>
        <pt x="422" y="1055" on="0"/>
        <pt x="377" y="918" on="1"/>
        <pt x="1008" y="918" on="1"/>
        <pt x="1008" y="877" on="1"/>
        <pt x="367" y="877" on="1"/>
        <pt x="347" y="803" on="0"/>
        <pt x="346" y="717" on="1"/>
        <pt x="346" y="608" on="0"/>
        <pt x="381" y="508" on="1"/>
        <pt x="1008" y="508" on="1"/>
        <pt x="1008" y="467" on="1"/>
        <pt x="395" y="467" on="1"/>
        <pt x="473" y="277" on="0"/>
        <pt x="825" y="39" on="0"/>
        <pt x="1042" y="39" on="1"/>
        <pt x="1173" y="39" on="0"/>
        <pt x="1413" y="131" on="0"/>
        <pt x="1507" y="213" on="1"/>
        <pt x="1536" y="186" on="1"/>
      </contour>
    </TTGlyph>
    <TTGlyph name="F" xMin="262" yMin="0" xMax="1096" yMax="1432">
      <contour>
        <pt x="303" y="1391" on="1"/>
        <pt x="303" y="702" on="1"/>
        <pt x="1001" y="702" on="1"/>
        <pt x="1001" y="662" on="1"/>
        <pt x="303" y="662" on="1"/>
        <pt x="303" y="0" on="1"/>
        <pt x="262" y="0" on="1"/>
        <pt x="262" y="1432" on="1"/>
        <pt x="1096" y="1432" on="1"/>
        <pt x="1096" y="1391" on="1"/>
      </contour>
    </TTGlyph>
    <TTGlyph name="G" xMin="102" yMin="0" xMax="1331" yMax="1432">
      <contour>
        <pt x="1331" y="186" on="1"/>
        <pt x="1231" y="98" on="0"/>
        <pt x="977" y="0" on="0"/>
        <pt x="838" y="0" on="1"/>
        <pt x="639" y="0" on="0"/>
        <pt x="301" y="195" on="0"/>
        <pt x="102" y="524" on="0"/>
        <pt x="102" y="717" on="1"/>
        <pt x="102" y="910" on="0"/>
        <pt x="301" y="1239" on="0"/>
        <pt x="639" y="1432" on="0"/>
        <pt x="838" y="1432" on="1"/>
        <pt x="977" y="1432" on="0"/>
        <pt x="1229" y="1335" on="0"/>
        <pt x="1329" y="1247" on="1"/>
        <pt x="1303" y="1221" on="1"/>
        <pt x="1209" y="1303" on="0"/>
        <pt x="971" y="1393" on="0"/>
        <pt x="838" y="1393" on="1"/>
        <pt x="650" y="1393" on="0"/>
        <pt x="330" y="1210" on="0"/>
        <pt x="141" y="899" on="0"/>
        <pt x="141" y="717" on="1"/>
        <pt x="141" y="535" on="0"/>
        <pt x="330" y="221" on="0"/>
        <pt x="649" y="39" on="0"/>
        <pt x="838" y="39" on="1"/>
        <pt x="965" y="39" on="0"/>
        <pt x="1198" y="125" on="0"/>
        <pt x="1290" y="203" on="1"/>
        <pt x="1290" y="702" on="1"/>
        <pt x="1331" y="702" on="1"/>
      </contour>
    </TTGlyph>
    <TTGlyph name="Gbreve" xMin="102" yMin="0" xMax="1331" yMax="1860">
      <component glyphName="G" x="0" y="0" flags="0x1000"/>
      <component glyphName="breve" x="420" y="373" flags="0x1000"/>
    </TTGlyph>
    <TTGlyph name="Gcommaaccent" xMin="102" yMin="-336" xMax="1331" yMax="1432">
      <component glyphName="G" x="0" y="0" flags="0x1000"/>
      <component glyphName="uni0326" x="610" y="0" flags="0x1000"/>
    </TTGlyph>
    <TTGlyph name="H" xMin="262" yMin="0" xMax="1374" yMax="1432">
      <contour>
        <pt x="1333" y="0" on="1"/>
        <pt x="1333" y="702" on="1"/>
        <pt x="303" y="702" on="1"/>
        <pt x="303" y="0" on="1"/>
        <pt x="262" y="0" on="1"/>
        <pt x="262" y="1432" on="1"/>
        <pt x="303" y="1432" on="1"/>
        <pt x="303" y="743" on="1"/>
        <pt x="1333" y="743" on="1"/>
        <pt x="1333" y="1432" on="1"/>
        <pt x="1374" y="1432" on="1"/>
        <pt x="1374" y="0" on="1"/>
      </contour>
    </TTGlyph>
    <TTGlyph name="I" xMin="262" yMin="0" xMax="303" yMax="1432">
      <contour>
        <pt x="262" y="0" on="1"/>
        <pt x="262" y="1432" on="1"/>
        <pt x="303" y="1432" on="1"/>
        <pt x="303" y="0" on="1"/>
      </contour>
    </TTGlyph>
    <TTGlyph name="IJ" xMin="262" yMin="0" xMax="1280" yMax="1432">
      <component glyphName="I" x="0" y="0" flags="0x1000"/>
      <component glyphName="J" x="565" y="0" flags="0x1000"/>
    </TTGlyph>
    <TTGlyph name="Iacute" xMin="218" yMin="0" xMax="547" yMax="1886">
      <component glyphName="I" x="0" y="0" flags="0x1000"/>
      <component glyphName="acute" x="23" y="373" flags="0x1000"/>
    </TTGlyph>
    <TTGlyph name="Icircumflex" xMin="49" yMin="0" xMax="516" yMax="1876">
      <component glyphName="I" x="0" y="0" flags="0x1000"/>
      <component glyphName="circumflex" x="-76" y="373" flags="0x1000"/>
    </TTGlyph>
    <TTGlyph name="Idieresis" xMin="76" yMin="0" xMax="489" yMax="1790">
      <contour>
        <pt x="152" y="1790" on="0"/>
        <pt x="182" y="1759" on="0"/>
        <pt x="182" y="1737" on="1"/>
        <pt x="182" y="1717" on="0"/>
        <pt x="152" y="1683" on="0"/>
        <pt x="129" y="1683" on="1"/>
        <pt x="109" y="1683" on="0"/>
        <pt x="76" y="1716" on="0"/>
        <pt x="76" y="1737" on="1"/>
        <pt x="76" y="1760" on="0"/>
        <pt x="109" y="1790" on="0"/>
        <pt x="129" y="1790" on="1"/>
      </contour>
      <contour>
        <pt x="459" y="1790" on="0"/>
        <pt x="489" y="1759" on="0"/>
        <pt x="489" y="1737" on="1"/>
        <pt x="489" y="1717" on="0"/>
        <pt x="459" y="1683" on="0"/>
        <pt x="436" y="1683" on="1"/>
        <pt x="416" y="1683" on="0"/>
        <pt x="383" y="1716" on="0"/>
        <pt x="383" y="1737" on="1"/>
        <pt x="383" y="1760" on="0"/>
        <pt x="416" y="1790" on="0"/>
        <pt x="436" y="1790" on="1"/>
      </contour>
      <contour>
        <pt x="262" y="0" on="1"/>
        <pt x="262" y="1432" on="1"/>
        <pt x="303" y="1432" on="1"/>
        <pt x="303" y="0" on="1"/>
      </contour>
    </TTGlyph>
    <TTGlyph name="Idotaccent" xMin="229" yMin="0" xMax="336" yMax="1790">
      <component glyphName="I" x="0" y="0" flags="0x1000"/>
      <component glyphName="dotaccent" x="-76" y="373" flags="0x1000"/>
    </TTGlyph>
    <TTGlyph name="Igrave" xMin="19" yMin="0" xMax="348" yMax="1886">
      <component glyphName="I" x="0" y="0" flags="0x1000"/>
      <component glyphName="grave" x="-176" y="373" flags="0x1000"/>
    </TTGlyph>
    <TTGlyph name="Imacron" xMin="59" yMin="0" xMax="504" yMax="1759">
      <component glyphName="I" x="0" y="0" flags="0x1000"/>
      <component glyphName="macron" x="-78" y="373" flags="0x1000"/>
    </TTGlyph>
    <TTGlyph name="Iogonek" xMin="139" yMin="-408" xMax="422" yMax="1432">
      <contour>
        <pt x="391" y="-362" on="0"/>
        <pt x="309" y="-408" on="0"/>
        <pt x="270" y="-408" on="1"/>
        <pt x="215" y="-408" on="0"/>
        <pt x="139" y="-330" on="0"/>
        <pt x="139" y="-268" on="1"/>
        <pt x="139" y="-168" on="0"/>
        <pt x="264" y="8" on="1"/>
        <pt x="262" y="8" on="1"/>
        <pt x="262" y="1432" on="1"/>
        <pt x="303" y="1432" on="1"/>
        <pt x="303" y="0" on="1"/>
        <pt x="301" y="0" on="1"/>
        <pt x="231" y="-96" on="0"/>
        <pt x="180" y="-217" on="0"/>
        <pt x="180" y="-268" on="1"/>
        <pt x="180" y="-315" on="0"/>
        <pt x="231" y="-367" on="0"/>
        <pt x="270" y="-367" on="1"/>
        <pt x="329" y="-367" on="0"/>
        <pt x="393" y="-297" on="1"/>
        <pt x="422" y="-326" on="1"/>
      </contour>
    </TTGlyph>
    <TTGlyph name="Itilde" xMin="10" yMin="0" xMax="553" yMax="1848">
      <component glyphName="I" x="0" y="0" flags="0x1000"/>
      <component glyphName="tilde" x="-78" y="373" flags="0x1000"/>
    </TTGlyph>
    <TTGlyph name="J" xMin="6" yMin="0" xMax="715" yMax="1432">
      <contour>
        <pt x="715" y="209" on="0"/>
        <pt x="532" y="0" on="0"/>
        <pt x="362" y="0" on="1"/>
        <pt x="258" y="0" on="0"/>
        <pt x="74" y="104" on="0"/>
        <pt x="6" y="201" on="1"/>
        <pt x="35" y="229" on="1"/>
        <pt x="98" y="137" on="0"/>
        <pt x="266" y="41" on="0"/>
        <pt x="362" y="41" on="1"/>
        <pt x="514" y="41" on="0"/>
        <pt x="674" y="227" on="0"/>
        <pt x="674" y="403" on="1"/>
        <pt x="674" y="1391" on="1"/>
        <pt x="137" y="1391" on="1"/>
        <pt x="137" y="1432" on="1"/>
        <pt x="715" y="1432" on="1"/>
        <pt x="715" y="403" on="1"/>
      </contour>
    </TTGlyph>
    <TTGlyph name="Jcircumflex" xMin="6" yMin="0" xMax="715" yMax="1876">
      <component glyphName="J" x="0" y="0" flags="0x1000"/>
      <component glyphName="circumflex" x="59" y="373" flags="0x1000"/>
    </TTGlyph>
    <TTGlyph name="K" xMin="262" yMin="0" xMax="1311" yMax="1432">
      <contour>
        <pt x="641" y="758" on="1"/>
        <pt x="303" y="391" on="1"/>
        <pt x="303" y="0" on="1"/>
        <pt x="262" y="0" on="1"/>
        <pt x="262" y="1432" on="1"/>
        <pt x="303" y="1432" on="1"/>
        <pt x="303" y="451" on="1"/>
        <pt x="1208" y="1432" on="1"/>
        <pt x="1266" y="1432" on="1"/>
        <pt x="670" y="788" on="1"/>
        <pt x="1311" y="0" on="1"/>
        <pt x="1255" y="0" on="1"/>
      </contour>
    </TTGlyph>
    <TTGlyph name="Kcommaaccent" xMin="262" yMin="-336" xMax="1311" yMax="1432">
      <component glyphName="K" x="0" y="0" flags="0x1000"/>
      <component glyphName="uni0326" x="518" y="0" flags="0x1000"/>
    </TTGlyph>
    <TTGlyph name="L" xMin="262" yMin="0" xMax="944" yMax="1432">
      <contour>
        <pt x="944" y="41" on="1"/>
        <pt x="944" y="0" on="1"/>
        <pt x="262" y="0" on="1"/>
        <pt x="262" y="1432" on="1"/>
        <pt x="303" y="1432" on="1"/>
        <pt x="303" y="41" on="1"/>
      </contour>
    </TTGlyph>
    <TTGlyph name="Lacute" xMin="238" yMin="0" xMax="944" yMax="1886">
      <component glyphName="L" x="0" y="0" flags="0x1000"/>
      <component glyphName="acute" x="43" y="373" flags="0x1000"/>
    </TTGlyph>
    <TTGlyph name="Lcaron" xMin="262" yMin="0" xMax="944" yMax="1432">
      <component glyphName="L" x="0" y="0" flags="0x1000"/>
      <component glyphName="quoteright" x="674" y="-66" flags="0x1000"/>
    </TTGlyph>
    <TTGlyph name="Lcommaaccent" xMin="262" yMin="-336" xMax="944" yMax="1432">
      <component glyphName="L" x="0" y="0" flags="0x1000"/>
      <component glyphName="uni0326" x="422" y="0" flags="0x1000"/>
    </TTGlyph>
    <TTGlyph name="Ldot" xMin="262" yMin="0" xMax="944" yMax="1432">
      <component glyphName="L" x="0" y="0" flags="0x1000"/>
      <component glyphName="periodcentered" x="582" y="307" flags="0x1000"/>
    </TTGlyph>
    <TTGlyph name="Lslash" xMin="74" yMin="0" xMax="969" yMax="1432">
      <contour>
        <pt x="969" y="0" on="1"/>
        <pt x="287" y="0" on="1"/>
        <pt x="287" y="895" on="1"/>
        <pt x="84" y="838" on="1"/>
        <pt x="74" y="877" on="1"/>
        <pt x="287" y="938" on="1"/>
        <pt x="287" y="1432" on="1"/>
        <pt x="328" y="1432" on="1"/>
        <pt x="328" y="950" on="1"/>
        <pt x="705" y="1059" on="1"/>
        <pt x="715" y="1018" on="1"/>
        <pt x="328" y="907" on="1"/>
        <pt x="328" y="41" on="1"/>
        <pt x="969" y="41" on="1"/>
      </contour>
    </TTGlyph>
    <TTGlyph name="M" xMin="262" yMin="0" xMax="1610" yMax="1432">
      <contour>
        <pt x="1569" y="0" on="1"/>
        <pt x="1567" y="1393" on="1"/>
        <pt x="938" y="158" on="1"/>
        <pt x="934" y="158" on="1"/>
        <pt x="303" y="1393" on="1"/>
        <pt x="303" y="0" on="1"/>
        <pt x="262" y="0" on="1"/>
        <pt x="262" y="1432" on="1"/>
        <pt x="334" y="1432" on="1"/>
        <pt x="938" y="246" on="1"/>
        <pt x="1538" y="1432" on="1"/>
        <pt x="1610" y="1432" on="1"/>
        <pt x="1610" y="0" on="1"/>
      </contour>
    </TTGlyph>
    <TTGlyph name="N" xMin="262" yMin="0" xMax="1374" yMax="1432">
      <contour>
        <pt x="1313" y="0" on="1"/>
        <pt x="303" y="1391" on="1"/>
        <pt x="303" y="0" on="1"/>
        <pt x="262" y="0" on="1"/>
        <pt x="262" y="1432" on="1"/>
        <pt x="324" y="1432" on="1"/>
        <pt x="1333" y="41" on="1"/>
        <pt x="1333" y="1432" on="1"/>
        <pt x="1374" y="1432" on="1"/>
        <pt x="1374" y="0" on="1"/>
      </contour>
    </TTGlyph>
    <TTGlyph name="Nacute" xMin="262" yMin="0" xMax="1374" yMax="1886">
      <component glyphName="N" x="0" y="0" flags="0x1000"/>
      <component glyphName="acute" x="559" y="373" flags="0x1000"/>
    </TTGlyph>
    <TTGlyph name="Ncaron" xMin="262" yMin="0" xMax="1374" yMax="1876">
      <component glyphName="N" x="0" y="0" flags="0x1000"/>
      <component glyphName="caron" x="461" y="373" flags="0x1000"/>
    </TTGlyph>
    <TTGlyph name="Ncommaaccent" xMin="262" yMin="-336" xMax="1374" yMax="1432">
      <component glyphName="N" x="0" y="0" flags="0x1000"/>
      <component glyphName="uni0326" x="651" y="0" flags="0x1000"/>
    </TTGlyph>
    <TTGlyph name="Ntilde" xMin="262" yMin="0" xMax="1374" yMax="1848">
      <component glyphName="N" x="0" y="0" flags="0x1000"/>
      <component glyphName="tilde" x="461" y="373" flags="0x1000"/>
    </TTGlyph>
    <TTGlyph name="O" xMin="102" yMin="0" xMax="1573" yMax="1432">
      <contour>
        <pt x="1036" y="1432" on="0"/>
        <pt x="1374" y="1239" on="0"/>
        <pt x="1573" y="909" on="0"/>
        <pt x="1573" y="717" on="1"/>
        <pt x="1573" y="524" on="0"/>
        <pt x="1374" y="195" on="0"/>
        <pt x="1036" y="0" on="0"/>
        <pt x="838" y="0" on="1"/>
        <pt x="639" y="0" on="0"/>
        <pt x="301" y="195" on="0"/>
        <pt x="102" y="524" on="0"/>
        <pt x="102" y="717" on="1"/>
        <pt x="102" y="910" on="0"/>
        <pt x="301" y="1239" on="0"/>
        <pt x="639" y="1432" on="0"/>
        <pt x="838" y="1432" on="1"/>
      </contour>
      <contour>
        <pt x="651" y="1391" on="0"/>
        <pt x="332" y="1208" on="0"/>
        <pt x="143" y="899" on="0"/>
        <pt x="143" y="717" on="1"/>
        <pt x="143" y="535" on="0"/>
        <pt x="332" y="223" on="0"/>
        <pt x="651" y="41" on="0"/>
        <pt x="838" y="41" on="1"/>
        <pt x="1024" y="41" on="0"/>
        <pt x="1343" y="223" on="0"/>
        <pt x="1532" y="535" on="0"/>
        <pt x="1532" y="717" on="1"/>
        <pt x="1532" y="899" on="0"/>
        <pt x="1343" y="1208" on="0"/>
        <pt x="1024" y="1391" on="0"/>
        <pt x="838" y="1391" on="1"/>
      </contour>
    </TTGlyph>
    <TTGlyph name="OE" xMin="102" yMin="0" xMax="2097" yMax="1432">
      <contour>
        <pt x="2097" y="0" on="1"/>
        <pt x="838" y="0" on="1"/>
        <pt x="639" y="0" on="0"/>
        <pt x="301" y="195" on="0"/>
        <pt x="102" y="524" on="0"/>
        <pt x="102" y="717" on="1"/>
        <pt x="102" y="910" on="0"/>
        <pt x="301" y="1239" on="0"/>
        <pt x="639" y="1432" on="0"/>
        <pt x="838" y="1432" on="1"/>
        <pt x="2068" y="1432" on="1"/>
        <pt x="2068" y="1391" on="1"/>
        <pt x="1214" y="1391" on="1"/>
        <pt x="1214" y="758" on="1"/>
        <pt x="1974" y="758" on="1"/>
        <pt x="1974" y="717" on="1"/>
        <pt x="1214" y="717" on="1"/>
        <pt x="1214" y="41" on="1"/>
        <pt x="2097" y="41" on="1"/>
      </contour>
      <contour>
        <pt x="1174" y="1393" on="1"/>
        <pt x="838" y="1393" on="1"/>
        <pt x="650" y="1393" on="0"/>
        <pt x="330" y="1210" on="0"/>
        <pt x="141" y="899" on="0"/>
        <pt x="141" y="717" on="1"/>
        <pt x="141" y="535" on="0"/>
        <pt x="330" y="221" on="0"/>
        <pt x="649" y="39" on="0"/>
        <pt x="838" y="39" on="1"/>
        <pt x="1174" y="35" on="1"/>
      </contour>
    </TTGlyph>
    <TTGlyph name="Oacute" xMin="102" yMin="0" xMax="1573" yMax="1886">
      <component glyphName="O" x="0" y="0" flags="0x1000"/>
      <component glyphName="acute" x="578" y="373" flags="0x1000"/>
    </TTGlyph>
    <TTGlyph name="Ocircumflex" xMin="102" yMin="0" xMax="1573" yMax="1876">
      <component glyphName="O" x="0" y="0" flags="0x1000"/>
      <component glyphName="circumflex" x="479" y="373" flags="0x1000"/>
    </TTGlyph>
    <TTGlyph name="Odieresis" xMin="102" yMin="0" xMax="1573" yMax="1790">
      <component glyphName="O" x="0" y="0" flags="0x1000"/>
      <component glyphName="dotaccent" x="326" y="373" flags="0x1000"/>
      <component glyphName="dotaccent" x="633" y="373" flags="0x1000"/>
    </TTGlyph>
    <TTGlyph name="Ograve" xMin="102" yMin="0" xMax="1573" yMax="1886">
      <component glyphName="O" x="0" y="0" flags="0x1000"/>
      <component glyphName="grave" x="379" y="373" flags="0x1000"/>
    </TTGlyph>
    <TTGlyph name="Ohungarumlaut" xMin="102" yMin="0" xMax="1573" yMax="1886">
      <component glyphName="O" x="0" y="0" flags="0x1000"/>
      <component glyphName="hungarumlaut" x="520" y="373" flags="0x1000"/>
    </TTGlyph>
    <TTGlyph name="Omacron" xMin="102" yMin="0" xMax="1573" yMax="1759">
      <component glyphName="O" x="0" y="0" flags="0x1000"/>
      <component glyphName="macron" x="479" y="373" flags="0x1000"/>
    </TTGlyph>
    <TTGlyph name="Omega" xMin="27" yMin="0" xMax="1870" yMax="1432">
      <contour>
        <pt x="1157" y="1432" on="0"/>
        <pt x="1493" y="1247" on="0"/>
        <pt x="1683" y="924" on="0"/>
        <pt x="1683" y="723" on="1"/>
        <pt x="1683" y="526" on="0"/>
        <pt x="1485" y="147" on="0"/>
        <pt x="1325" y="41" on="1"/>
        <pt x="1870" y="41" on="1"/>
        <pt x="1870" y="0" on="1"/>
        <pt x="1247" y="0" on="1"/>
        <pt x="1247" y="43" on="1"/>
        <pt x="1360" y="102" on="0"/>
        <pt x="1540" y="317" on="0"/>
        <pt x="1642" y="586" on="0"/>
        <pt x="1642" y="723" on="1"/>
        <pt x="1642" y="913" on="0"/>
        <pt x="1462" y="1219" on="0"/>
        <pt x="1147" y="1391" on="0"/>
        <pt x="948" y="1391" on="1"/>
        <pt x="749" y="1391" on="0"/>
        <pt x="434" y="1219" on="0"/>
        <pt x="254" y="913" on="0"/>
        <pt x="254" y="723" on="1"/>
        <pt x="254" y="586" on="0"/>
        <pt x="356" y="315" on="0"/>
        <pt x="537" y="100" on="0"/>
        <pt x="651" y="41" on="1"/>
        <pt x="651" y="0" on="1"/>
        <pt x="27" y="0" on="1"/>
        <pt x="27" y="41" on="1"/>
        <pt x="571" y="41" on="1"/>
        <pt x="411" y="147" on="0"/>
        <pt x="213" y="526" on="0"/>
        <pt x="213" y="723" on="1"/>
        <pt x="213" y="924" on="0"/>
        <pt x="403" y="1247" on="0"/>
        <pt x="739" y="1432" on="0"/>
        <pt x="948" y="1432" on="1"/>
      </contour>
    </TTGlyph>
    <TTGlyph name="Oslash" xMin="102" yMin="-287" xMax="1573" yMax="1671">
      <contour>
        <pt x="1206" y="1354" on="0"/>
        <pt x="1440" y="1151" on="0"/>
        <pt x="1573" y="874" on="0"/>
        <pt x="1573" y="717" on="1"/>
        <pt x="1573" y="524" on="0"/>
        <pt x="1374" y="195" on="0"/>
        <pt x="1036" y="0" on="0"/>
        <pt x="838" y="0" on="1"/>
        <pt x="729" y="0" on="0"/>
        <pt x="621" y="33" on="1"/>
        <pt x="518" y="-287" on="1"/>
        <pt x="475" y="-287" on="1"/>
        <pt x="582" y="45" on="1"/>
        <pt x="443" y="96" on="0"/>
        <pt x="225" y="297" on="0"/>
        <pt x="102" y="567" on="0"/>
        <pt x="102" y="717" on="1"/>
        <pt x="102" y="910" on="0"/>
        <pt x="301" y="1239" on="0"/>
        <pt x="639" y="1432" on="0"/>
        <pt x="838" y="1432" on="1"/>
        <pt x="928" y="1432" on="0"/>
        <pt x="1018" y="1409" on="1"/>
        <pt x="1102" y="1671" on="1"/>
        <pt x="1145" y="1671" on="1"/>
        <pt x="1057" y="1399" on="1"/>
      </contour>
      <contour>
        <pt x="143" y="575" on="0"/>
        <pt x="258" y="324" on="0"/>
        <pt x="463" y="133" on="0"/>
        <pt x="594" y="84" on="1"/>
        <pt x="1006" y="1370" on="1"/>
        <pt x="930" y="1390" on="0"/>
        <pt x="838" y="1391" on="1"/>
        <pt x="652" y="1391" on="0"/>
        <pt x="332" y="1208" on="0"/>
        <pt x="143" y="899" on="0"/>
        <pt x="143" y="717" on="1"/>
      </contour>
      <contour>
        <pt x="1024" y="41" on="0"/>
        <pt x="1343" y="223" on="0"/>
        <pt x="1532" y="535" on="0"/>
        <pt x="1532" y="717" on="1"/>
        <pt x="1532" y="864" on="0"/>
        <pt x="1407" y="1126" on="0"/>
        <pt x="1184" y="1317" on="0"/>
        <pt x="1044" y="1360" on="1"/>
        <pt x="633" y="72" on="1"/>
        <pt x="731" y="41" on="0"/>
        <pt x="838" y="41" on="1"/>
      </contour>
    </TTGlyph>
    <TTGlyph name="Otilde" xMin="102" yMin="0" xMax="1573" yMax="1848">
      <component glyphName="O" x="0" y="0" flags="0x1000"/>
      <component glyphName="tilde" x="479" y="373" flags="0x1000"/>
    </TTGlyph>
    <TTGlyph name="P" xMin="262" yMin="0" xMax="1294" yMax="1432">
      <contour>
        <pt x="1008" y="1432" on="0"/>
        <pt x="1294" y="1188" on="0"/>
        <pt x="1294" y="967" on="1"/>
        <pt x="1294" y="742" on="0"/>
        <pt x="1008" y="492" on="0"/>
        <pt x="748" y="492" on="1"/>
        <pt x="303" y="492" on="1"/>
        <pt x="303" y="0" on="1"/>
        <pt x="262" y="0" on="1"/>
        <pt x="262" y="1432" on="1"/>
        <pt x="748" y="1432" on="1"/>
      </contour>
      <contour>
        <pt x="303" y="532" on="1"/>
        <pt x="748" y="532" on="1"/>
        <pt x="990" y="532" on="0"/>
        <pt x="1253" y="760" on="0"/>
        <pt x="1253" y="967" on="1"/>
        <pt x="1253" y="1170" on="0"/>
        <pt x="989" y="1391" on="0"/>
        <pt x="748" y="1391" on="1"/>
        <pt x="303" y="1391" on="1"/>
      </contour>
    </TTGlyph>
    <TTGlyph name="Q" xMin="102" yMin="-254" xMax="1655" yMax="1432">
      <contour>
        <pt x="1491" y="-254" on="0"/>
        <pt x="1327" y="-254" on="1"/>
        <pt x="1120" y="-254" on="0"/>
        <pt x="883" y="2" on="1"/>
        <pt x="838" y="0" on="1"/>
        <pt x="639" y="0" on="0"/>
        <pt x="301" y="195" on="0"/>
        <pt x="102" y="524" on="0"/>
        <pt x="102" y="717" on="1"/>
        <pt x="102" y="910" on="0"/>
        <pt x="301" y="1239" on="0"/>
        <pt x="639" y="1432" on="0"/>
        <pt x="838" y="1432" on="1"/>
        <pt x="1037" y="1432" on="0"/>
        <pt x="1374" y="1239" on="0"/>
        <pt x="1573" y="909" on="0"/>
        <pt x="1573" y="717" on="1"/>
        <pt x="1573" y="541" on="0"/>
        <pt x="1403" y="231" on="0"/>
        <pt x="1112" y="29" on="0"/>
        <pt x="934" y="6" on="1"/>
        <pt x="1045" y="-107" on="0"/>
        <pt x="1237" y="-215" on="0"/>
        <pt x="1327" y="-215" on="1"/>
        <pt x="1470" y="-215" on="0"/>
        <pt x="1626" y="-70" on="1"/>
        <pt x="1655" y="-98" on="1"/>
      </contour>
      <contour>
        <pt x="143" y="535" on="0"/>
        <pt x="332" y="223" on="0"/>
        <pt x="651" y="41" on="0"/>
        <pt x="838" y="41" on="1"/>
        <pt x="1024" y="41" on="0"/>
        <pt x="1343" y="223" on="0"/>
        <pt x="1532" y="535" on="0"/>
        <pt x="1532" y="717" on="1"/>
        <pt x="1532" y="899" on="0"/>
        <pt x="1343" y="1208" on="0"/>
        <pt x="1024" y="1391" on="0"/>
        <pt x="838" y="1391" on="1"/>
        <pt x="652" y="1391" on="0"/>
        <pt x="332" y="1208" on="0"/>
        <pt x="143" y="899" on="0"/>
        <pt x="143" y="717" on="1"/>
      </contour>
    </TTGlyph>
    <TTGlyph name="R" xMin="262" yMin="0" xMax="1294" yMax="1432">
      <contour>
        <pt x="1294" y="782" on="0"/>
        <pt x="1102" y="547" on="0"/>
        <pt x="924" y="508" on="1"/>
        <pt x="1294" y="0" on="1"/>
        <pt x="1243" y="0" on="1"/>
        <pt x="879" y="500" on="1"/>
        <pt x="797" y="492" on="0"/>
        <pt x="748" y="492" on="1"/>
        <pt x="303" y="492" on="1"/>
        <pt x="303" y="0" on="1"/>
        <pt x="262" y="0" on="1"/>
        <pt x="262" y="1432" on="1"/>
        <pt x="748" y="1432" on="1"/>
        <pt x="1008" y="1432" on="0"/>
        <pt x="1294" y="1188" on="0"/>
        <pt x="1294" y="967" on="1"/>
      </contour>
      <contour>
        <pt x="989" y="532" on="0"/>
        <pt x="1253" y="760" on="0"/>
        <pt x="1253" y="967" on="1"/>
        <pt x="1253" y="1170" on="0"/>
        <pt x="989" y="1391" on="0"/>
        <pt x="748" y="1391" on="1"/>
        <pt x="303" y="1391" on="1"/>
        <pt x="303" y="532" on="1"/>
        <pt x="748" y="532" on="1"/>
      </contour>
    </TTGlyph>
    <TTGlyph name="Racute" xMin="262" yMin="0" xMax="1294" yMax="1886">
      <component glyphName="R" x="0" y="0" flags="0x1000"/>
      <component glyphName="acute" x="438" y="373" flags="0x1000"/>
    </TTGlyph>
    <TTGlyph name="Rcaron" xMin="262" yMin="0" xMax="1294" yMax="1876">
      <component glyphName="R" x="0" y="0" flags="0x1000"/>
      <component glyphName="caron" x="340" y="373" flags="0x1000"/>
    </TTGlyph>
    <TTGlyph name="Rcommaaccent" xMin="262" yMin="-336" xMax="1294" yMax="1432">
      <component glyphName="R" x="0" y="0" flags="0x1000"/>
      <component glyphName="uni0326" x="571" y="0" flags="0x1000"/>
    </TTGlyph>
    <TTGlyph name="S" xMin="84" yMin="0" xMax="1059" yMax="1432">
      <contour>
        <pt x="719" y="1432" on="0"/>
        <pt x="926" y="1374" on="0"/>
        <pt x="999" y="1327" on="1"/>
        <pt x="979" y="1294" on="1"/>
        <pt x="909" y="1339" on="0"/>
        <pt x="715" y="1391" on="0"/>
        <pt x="618" y="1391" on="1"/>
        <pt x="430" y="1391" on="0"/>
        <pt x="203" y="1239" on="0"/>
        <pt x="203" y="1114" on="1"/>
        <pt x="203" y="1005" on="0"/>
        <pt x="313" y="870" on="0"/>
        <pt x="475" y="799" on="0"/>
        <pt x="614" y="756" on="1"/>
        <pt x="761" y="713" on="0"/>
        <pt x="938" y="633" on="0"/>
        <pt x="1059" y="479" on="0"/>
        <pt x="1059" y="352" on="1"/>
        <pt x="1059" y="192" on="0"/>
        <pt x="795" y="0" on="0"/>
        <pt x="573" y="0" on="1"/>
        <pt x="438" y="0" on="0"/>
        <pt x="174" y="109" on="0"/>
        <pt x="84" y="201" on="1"/>
        <pt x="113" y="229" on="1"/>
        <pt x="195" y="143" on="0"/>
        <pt x="444" y="41" on="0"/>
        <pt x="573" y="41" on="1"/>
        <pt x="776" y="41" on="0"/>
        <pt x="1018" y="211" on="0"/>
        <pt x="1018" y="352" on="1"/>
        <pt x="1018" y="465" on="0"/>
        <pt x="905" y="602" on="0"/>
        <pt x="741" y="674" on="0"/>
        <pt x="600" y="717" on="1"/>
        <pt x="453" y="762" on="0"/>
        <pt x="281" y="840" on="0"/>
        <pt x="162" y="991" on="0"/>
        <pt x="162" y="1114" on="1"/>
        <pt x="162" y="1257" on="0"/>
        <pt x="412" y="1432" on="0"/>
        <pt x="618" y="1432" on="1"/>
      </contour>
    </TTGlyph>
    <TTGlyph name="Sacute" xMin="84" yMin="0" xMax="1059" yMax="1886">
      <component glyphName="S" x="0" y="0" flags="0x1000"/>
      <component glyphName="acute" x="328" y="373" flags="0x1000"/>
    </TTGlyph>
    <TTGlyph name="Scaron" xMin="84" yMin="0" xMax="1059" yMax="1876">
      <component glyphName="S" x="0" y="0" flags="0x1000"/>
      <component glyphName="caron" x="229" y="373" flags="0x1000"/>
    </TTGlyph>
    <TTGlyph name="Scedilla" xMin="84" yMin="-410" xMax="1059" yMax="1432">
      <contour>
        <pt x="203" y="1006" on="0"/>
        <pt x="313" y="870" on="0"/>
        <pt x="475" y="799" on="0"/>
        <pt x="614" y="756" on="1"/>
        <pt x="761" y="713" on="0"/>
        <pt x="938" y="633" on="0"/>
        <pt x="1059" y="479" on="0"/>
        <pt x="1059" y="352" on="1"/>
        <pt x="1059" y="209" on="0"/>
        <pt x="844" y="23" on="0"/>
        <pt x="657" y="4" on="1"/>
        <pt x="614" y="-100" on="1"/>
        <pt x="680" y="-100" on="0"/>
        <pt x="766" y="-186" on="0"/>
        <pt x="766" y="-250" on="1"/>
        <pt x="766" y="-320" on="0"/>
        <pt x="670" y="-410" on="0"/>
        <pt x="594" y="-410" on="1"/>
        <pt x="557" y="-410" on="0"/>
        <pt x="475" y="-387" on="0"/>
        <pt x="451" y="-369" on="1"/>
        <pt x="467" y="-330" on="1"/>
        <pt x="490" y="-346" on="0"/>
        <pt x="561" y="-369" on="0"/>
        <pt x="594" y="-369" on="1"/>
        <pt x="651" y="-369" on="0"/>
        <pt x="725" y="-303" on="0"/>
        <pt x="725" y="-250" on="1"/>
        <pt x="725" y="-203" on="0"/>
        <pt x="664" y="-137" on="0"/>
        <pt x="616" y="-137" on="1"/>
        <pt x="557" y="-137" on="1"/>
        <pt x="616" y="0" on="1"/>
        <pt x="573" y="0" on="1"/>
        <pt x="438" y="0" on="0"/>
        <pt x="174" y="109" on="0"/>
        <pt x="84" y="201" on="1"/>
        <pt x="113" y="229" on="1"/>
        <pt x="195" y="143" on="0"/>
        <pt x="444" y="41" on="0"/>
        <pt x="573" y="41" on="1"/>
        <pt x="776" y="41" on="0"/>
        <pt x="1018" y="211" on="0"/>
        <pt x="1018" y="352" on="1"/>
        <pt x="1018" y="465" on="0"/>
        <pt x="905" y="602" on="0"/>
        <pt x="741" y="674" on="0"/>
        <pt x="600" y="717" on="1"/>
        <pt x="453" y="762" on="0"/>
        <pt x="281" y="840" on="0"/>
        <pt x="162" y="991" on="0"/>
        <pt x="162" y="1114" on="1"/>
        <pt x="162" y="1257" on="0"/>
        <pt x="412" y="1432" on="0"/>
        <pt x="618" y="1432" on="1"/>
        <pt x="718" y="1432" on="0"/>
        <pt x="926" y="1374" on="0"/>
        <pt x="999" y="1327" on="1"/>
        <pt x="979" y="1294" on="1"/>
        <pt x="909" y="1339" on="0"/>
        <pt x="715" y="1391" on="0"/>
        <pt x="618" y="1391" on="1"/>
        <pt x="430" y="1391" on="0"/>
        <pt x="203" y="1239" on="0"/>
        <pt x="203" y="1114" on="1"/>
      </contour>
    </TTGlyph>
    <TTGlyph name="Scommaaccent" xMin="84" yMin="-336" xMax="1059" yMax="1432">
      <component glyphName="S" x="0" y="0" flags="0x1000"/>
      <component glyphName="uni0326" x="440" y="0" flags="0x1000"/>
    </TTGlyph>
    <TTGlyph name="T" xMin="27" yMin="0" xMax="1051" yMax="1432">
      <contour>
        <pt x="559" y="1391" on="1"/>
        <pt x="559" y="0" on="1"/>
        <pt x="518" y="0" on="1"/>
        <pt x="518" y="1391" on="1"/>
        <pt x="27" y="1391" on="1"/>
        <pt x="27" y="1432" on="1"/>
        <pt x="1051" y="1432" on="1"/>
        <pt x="1051" y="1391" on="1"/>
      </contour>
    </TTGlyph>
    <TTGlyph name="Tcaron" xMin="27" yMin="0" xMax="1051" yMax="1876">
      <component glyphName="T" x="0" y="0" flags="0x1000"/>
      <component glyphName="caron" x="180" y="373" flags="0x1000"/>
    </TTGlyph>
    <TTGlyph name="Tcedilla" xMin="27" yMin="-410" xMax="1051" yMax="1432">
      <contour>
        <pt x="514" y="-100" on="1"/>
        <pt x="580" y="-100" on="0"/>
        <pt x="666" y="-186" on="0"/>
        <pt x="666" y="-250" on="1"/>
        <pt x="666" y="-320" on="0"/>
        <pt x="569" y="-410" on="0"/>
        <pt x="494" y="-410" on="1"/>
        <pt x="457" y="-410" on="0"/>
        <pt x="375" y="-387" on="0"/>
        <pt x="350" y="-369" on="1"/>
        <pt x="367" y="-330" on="1"/>
        <pt x="390" y="-346" on="0"/>
        <pt x="461" y="-369" on="0"/>
        <pt x="494" y="-369" on="1"/>
        <pt x="551" y="-369" on="0"/>
        <pt x="625" y="-303" on="0"/>
        <pt x="625" y="-250" on="1"/>
        <pt x="625" y="-203" on="0"/>
        <pt x="563" y="-137" on="0"/>
        <pt x="516" y="-137" on="1"/>
        <pt x="457" y="-137" on="1"/>
        <pt x="518" y="8" on="1"/>
        <pt x="518" y="1391" on="1"/>
        <pt x="27" y="1391" on="1"/>
        <pt x="27" y="1432" on="1"/>
        <pt x="1051" y="1432" on="1"/>
        <pt x="1051" y="1391" on="1"/>
        <pt x="559" y="1391" on="1"/>
        <pt x="559" y="0" on="1"/>
        <pt x="555" y="0" on="1"/>
      </contour>
    </TTGlyph>
    <TTGlyph name="Thorn" xMin="262" yMin="0" xMax="1294" yMax="1432">
      <contour>
        <pt x="991" y="1202" on="0"/>
        <pt x="1294" y="979" on="0"/>
        <pt x="1294" y="752" on="1"/>
        <pt x="1294" y="521" on="0"/>
        <pt x="991" y="291" on="0"/>
        <pt x="686" y="291" on="1"/>
        <pt x="303" y="291" on="1"/>
        <pt x="303" y="0" on="1"/>
        <pt x="262" y="0" on="1"/>
        <pt x="262" y="1432" on="1"/>
        <pt x="303" y="1432" on="1"/>
        <pt x="303" y="1202" on="1"/>
        <pt x="686" y="1202" on="1"/>
      </contour>
      <contour>
        <pt x="973" y="332" on="0"/>
        <pt x="1253" y="541" on="0"/>
        <pt x="1253" y="752" on="1"/>
        <pt x="1253" y="959" on="0"/>
        <pt x="971" y="1161" on="0"/>
        <pt x="686" y="1161" on="1"/>
        <pt x="303" y="1161" on="1"/>
        <pt x="303" y="332" on="1"/>
        <pt x="686" y="332" on="1"/>
      </contour>
    </TTGlyph>
    <TTGlyph name="U" xMin="225" yMin="0" xMax="1360" yMax="1432">
      <contour>
        <pt x="1360" y="303" on="0"/>
        <pt x="1063" y="0" on="0"/>
        <pt x="793" y="0" on="1"/>
        <pt x="523" y="0" on="0"/>
        <pt x="225" y="303" on="0"/>
        <pt x="225" y="582" on="1"/>
        <pt x="225" y="1432" on="1"/>
        <pt x="266" y="1432" on="1"/>
        <pt x="266" y="582" on="1"/>
        <pt x="266" y="324" on="0"/>
        <pt x="543" y="41" on="0"/>
        <pt x="793" y="41" on="1"/>
        <pt x="1043" y="41" on="0"/>
        <pt x="1319" y="324" on="0"/>
        <pt x="1319" y="582" on="1"/>
        <pt x="1319" y="1432" on="1"/>
        <pt x="1360" y="1432" on="1"/>
        <pt x="1360" y="582" on="1"/>
      </contour>
    </TTGlyph>
    <TTGlyph name="Uacute" xMin="225" yMin="0" xMax="1360" yMax="1886">
      <component glyphName="U" x="0" y="0" flags="0x1000"/>
      <component glyphName="acute" x="532" y="373" flags="0x1000"/>
    </TTGlyph>
    <TTGlyph name="Ucircumflex" xMin="225" yMin="0" xMax="1360" yMax="1876">
      <component glyphName="U" x="0" y="0" flags="0x1000"/>
      <component glyphName="circumflex" x="434" y="373" flags="0x1000"/>
    </TTGlyph>
    <TTGlyph name="Udieresis" xMin="225" yMin="0" xMax="1360" yMax="1790">
      <component glyphName="U" x="0" y="0" flags="0x1000"/>
      <component glyphName="dotaccent" x="281" y="373" flags="0x1000"/>
      <component glyphName="dotaccent" x="588" y="373" flags="0x1000"/>
    </TTGlyph>
    <TTGlyph name="Ugrave" xMin="225" yMin="0" xMax="1360" yMax="1886">
      <component glyphName="U" x="0" y="0" flags="0x1000"/>
      <component glyphName="grave" x="334" y="373" flags="0x1000"/>
    </TTGlyph>
    <TTGlyph name="Uhungarumlaut" xMin="225" yMin="0" xMax="1360" yMax="1886">
      <component glyphName="U" x="0" y="0" flags="0x1000"/>
      <component glyphName="hungarumlaut" x="475" y="373" flags="0x1000"/>
    </TTGlyph>
    <TTGlyph name="Umacron" xMin="225" yMin="0" xMax="1360" yMax="1759">
      <component glyphName="U" x="0" y="0" flags="0x1000"/>
      <component glyphName="macron" x="434" y="373" flags="0x1000"/>
    </TTGlyph>
    <TTGlyph name="Uogonek" xMin="225" yMin="-408" xMax="1360" yMax="1432">
      <contour>
        <pt x="1360" y="582" on="1"/>
        <pt x="1360" y="355" on="0"/>
        <pt x="1159" y="66" on="0"/>
        <pt x="971" y="20" on="1"/>
        <pt x="895" y="-82" on="0"/>
        <pt x="838" y="-213" on="0"/>
        <pt x="838" y="-268" on="1"/>
        <pt x="838" y="-315" on="0"/>
        <pt x="889" y="-367" on="0"/>
        <pt x="928" y="-367" on="1"/>
        <pt x="987" y="-367" on="0"/>
        <pt x="1051" y="-297" on="1"/>
        <pt x="1079" y="-326" on="1"/>
        <pt x="1048" y="-363" on="0"/>
        <pt x="967" y="-408" on="0"/>
        <pt x="928" y="-408" on="1"/>
        <pt x="873" y="-408" on="0"/>
        <pt x="797" y="-330" on="0"/>
        <pt x="797" y="-268" on="1"/>
        <pt x="797" y="-213" on="0"/>
        <pt x="856" y="-84" on="0"/>
        <pt x="924" y="10" on="1"/>
        <pt x="856" y="0" on="0"/>
        <pt x="793" y="0" on="1"/>
        <pt x="523" y="0" on="0"/>
        <pt x="225" y="303" on="0"/>
        <pt x="225" y="582" on="1"/>
        <pt x="225" y="1432" on="1"/>
        <pt x="266" y="1432" on="1"/>
        <pt x="266" y="582" on="1"/>
        <pt x="266" y="324" on="0"/>
        <pt x="543" y="41" on="0"/>
        <pt x="793" y="41" on="1"/>
        <pt x="1043" y="41" on="0"/>
        <pt x="1319" y="324" on="0"/>
        <pt x="1319" y="582" on="1"/>
        <pt x="1319" y="1432" on="1"/>
        <pt x="1360" y="1432" on="1"/>
      </contour>
    </TTGlyph>
    <TTGlyph name="Uring" xMin="225" yMin="0" xMax="1360" yMax="1962">
      <component glyphName="U" x="0" y="0" flags="0x1000"/>
      <component glyphName="ring" x="434" y="373" flags="0x1000"/>
    </TTGlyph>
    <TTGlyph name="V" xMin="20" yMin="0" xMax="1262" yMax="1432">
      <contour>
        <pt x="618" y="0" on="1"/>
        <pt x="20" y="1432" on="1"/>
        <pt x="68" y="1432" on="1"/>
        <pt x="641" y="47" on="1"/>
        <pt x="1212" y="1432" on="1"/>
        <pt x="1262" y="1432" on="1"/>
        <pt x="664" y="0" on="1"/>
      </contour>
    </TTGlyph>
    <TTGlyph name="W" xMin="20" yMin="0" xMax="2001" yMax="1432">
      <contour>
        <pt x="1473" y="0" on="1"/>
        <pt x="1012" y="1374" on="1"/>
        <pt x="549" y="0" on="1"/>
        <pt x="506" y="0" on="1"/>
        <pt x="20" y="1432" on="1"/>
        <pt x="68" y="1432" on="1"/>
        <pt x="528" y="47" on="1"/>
        <pt x="987" y="1432" on="1"/>
        <pt x="1034" y="1432" on="1"/>
        <pt x="1495" y="47" on="1"/>
        <pt x="1954" y="1432" on="1"/>
        <pt x="2001" y="1432" on="1"/>
        <pt x="1516" y="0" on="1"/>
      </contour>
    </TTGlyph>
    <TTGlyph name="Wacute" xMin="20" yMin="0" xMax="2001" yMax="1886">
      <component glyphName="W" x="0" y="0" flags="0x1000"/>
      <component glyphName="acute" x="547" y="373" flags="0x1000"/>
    </TTGlyph>
    <TTGlyph name="Wcircumflex" xMin="20" yMin="0" xMax="2001" yMax="1876">
      <component glyphName="W" x="0" y="0" flags="0x1000"/>
      <component glyphName="circumflex" x="449" y="373" flags="0x1000"/>
    </TTGlyph>
    <TTGlyph name="Wdieresis" xMin="20" yMin="0" xMax="2001" yMax="1790">
      <contour>
        <pt x="676" y="1790" on="0"/>
        <pt x="707" y="1759" on="0"/>
        <pt x="707" y="1737" on="1"/>
        <pt x="707" y="1717" on="0"/>
        <pt x="676" y="1683" on="0"/>
        <pt x="653" y="1683" on="1"/>
        <pt x="633" y="1683" on="0"/>
        <pt x="600" y="1716" on="0"/>
        <pt x="600" y="1737" on="1"/>
        <pt x="600" y="1760" on="0"/>
        <pt x="633" y="1790" on="0"/>
        <pt x="653" y="1790" on="1"/>
      </contour>
      <contour>
        <pt x="983" y="1790" on="0"/>
        <pt x="1014" y="1759" on="0"/>
        <pt x="1014" y="1737" on="1"/>
        <pt x="1014" y="1717" on="0"/>
        <pt x="983" y="1683" on="0"/>
        <pt x="961" y="1683" on="1"/>
        <pt x="941" y="1683" on="0"/>
        <pt x="907" y="1716" on="0"/>
        <pt x="907" y="1737" on="1"/>
        <pt x="907" y="1760" on="0"/>
        <pt x="940" y="1790" on="0"/>
        <pt x="961" y="1790" on="1"/>
      </contour>
      <contour>
        <pt x="1473" y="0" on="1"/>
        <pt x="1012" y="1374" on="1"/>
        <pt x="549" y="0" on="1"/>
        <pt x="506" y="0" on="1"/>
        <pt x="20" y="1432" on="1"/>
        <pt x="68" y="1432" on="1"/>
        <pt x="528" y="47" on="1"/>
        <pt x="987" y="1432" on="1"/>
        <pt x="1034" y="1432" on="1"/>
        <pt x="1495" y="47" on="1"/>
        <pt x="1954" y="1432" on="1"/>
        <pt x="2001" y="1432" on="1"/>
        <pt x="1516" y="0" on="1"/>
      </contour>
    </TTGlyph>
    <TTGlyph name="Wgrave" xMin="20" yMin="0" xMax="2001" yMax="1886">
      <component glyphName="W" x="0" y="0" flags="0x1000"/>
      <component glyphName="grave" x="348" y="373" flags="0x1000"/>
    </TTGlyph>
    <TTGlyph name="X" xMin="68" yMin="0" xMax="1188" yMax="1432">
      <contour>
        <pt x="1188" y="0" on="1"/>
        <pt x="1139" y="0" on="1"/>
        <pt x="627" y="709" on="1"/>
        <pt x="117" y="0" on="1"/>
        <pt x="68" y="0" on="1"/>
        <pt x="602" y="741" on="1"/>
        <pt x="106" y="1432" on="1"/>
        <pt x="156" y="1432" on="1"/>
        <pt x="627" y="776" on="1"/>
        <pt x="1100" y="1432" on="1"/>
        <pt x="1149" y="1432" on="1"/>
        <pt x="651" y="741" on="1"/>
      </contour>
    </TTGlyph>
    <TTGlyph name="Y" xMin="20" yMin="0" xMax="1221" yMax="1432">
      <contour>
        <pt x="645" y="0" on="1"/>
        <pt x="604" y="0" on="1"/>
        <pt x="604" y="551" on="1"/>
        <pt x="20" y="1432" on="1"/>
        <pt x="70" y="1432" on="1"/>
        <pt x="625" y="592" on="1"/>
        <pt x="1171" y="1432" on="1"/>
        <pt x="1221" y="1432" on="1"/>
        <pt x="645" y="551" on="1"/>
      </contour>
    </TTGlyph>
    <TTGlyph name="Yacute" xMin="20" yMin="0" xMax="1221" yMax="1886">
      <component glyphName="Y" x="0" y="0" flags="0x1000"/>
      <component glyphName="acute" x="360" y="373" flags="0x1000"/>
    </TTGlyph>
    <TTGlyph name="Ycircumflex" xMin="20" yMin="0" xMax="1221" yMax="1876">
      <component glyphName="Y" x="0" y="0" flags="0x1000"/>
      <component glyphName="circumflex" x="262" y="373" flags="0x1000"/>
    </TTGlyph>
    <TTGlyph name="Ydieresis" xMin="20" yMin="0" xMax="1221" yMax="1790">
      <contour>
        <pt x="446" y="1683" on="0"/>
        <pt x="414" y="1716" on="0"/>
        <pt x="414" y="1737" on="1"/>
        <pt x="414" y="1760" on="0"/>
        <pt x="446" y="1790" on="0"/>
        <pt x="467" y="1790" on="1"/>
        <pt x="490" y="1790" on="0"/>
        <pt x="520" y="1759" on="0"/>
        <pt x="520" y="1737" on="1"/>
        <pt x="520" y="1717" on="0"/>
        <pt x="489" y="1683" on="0"/>
        <pt x="467" y="1683" on="1"/>
      </contour>
      <contour>
        <pt x="754" y="1683" on="0"/>
        <pt x="721" y="1716" on="0"/>
        <pt x="721" y="1737" on="1"/>
        <pt x="721" y="1760" on="0"/>
        <pt x="754" y="1790" on="0"/>
        <pt x="774" y="1790" on="1"/>
        <pt x="797" y="1790" on="0"/>
        <pt x="827" y="1759" on="0"/>
        <pt x="827" y="1737" on="1"/>
        <pt x="827" y="1717" on="0"/>
        <pt x="797" y="1683" on="0"/>
        <pt x="774" y="1683" on="1"/>
      </contour>
      <contour>
        <pt x="645" y="0" on="1"/>
        <pt x="604" y="0" on="1"/>
        <pt x="604" y="551" on="1"/>
        <pt x="20" y="1432" on="1"/>
        <pt x="70" y="1432" on="1"/>
        <pt x="625" y="592" on="1"/>
        <pt x="1171" y="1432" on="1"/>
        <pt x="1221" y="1432" on="1"/>
        <pt x="645" y="551" on="1"/>
      </contour>
    </TTGlyph>
    <TTGlyph name="Ygrave" xMin="20" yMin="0" xMax="1221" yMax="1886">
      <component glyphName="Y" x="0" y="0" flags="0x1000"/>
      <component glyphName="grave" x="162" y="373" flags="0x1000"/>
    </TTGlyph>
    <TTGlyph name="Z" xMin="106" yMin="0" xMax="1225" yMax="1432">
      <contour>
        <pt x="147" y="41" on="1"/>
        <pt x="1225" y="41" on="1"/>
        <pt x="1225" y="0" on="1"/>
        <pt x="106" y="0" on="1"/>
        <pt x="106" y="51" on="1"/>
        <pt x="1178" y="1391" on="1"/>
        <pt x="135" y="1391" on="1"/>
        <pt x="135" y="1432" on="1"/>
        <pt x="1219" y="1432" on="1"/>
        <pt x="1219" y="1380" on="1"/>
      </contour>
    </TTGlyph>
    <TTGlyph name="Zacute" xMin="106" yMin="0" xMax="1225" yMax="1886">
      <component glyphName="Z" x="0" y="0" flags="0x1000"/>
      <component glyphName="acute" x="406" y="373" flags="0x1000"/>
    </TTGlyph>
    <TTGlyph name="Zcaron" xMin="106" yMin="0" xMax="1225" yMax="1876">
      <component glyphName="Z" x="0" y="0" flags="0x1000"/>
      <component glyphName="caron" x="307" y="373" flags="0x1000"/>
    </TTGlyph>
    <TTGlyph name="Zdotaccent" xMin="106" yMin="0" xMax="1225" yMax="1790">
      <component glyphName="Z" x="0" y="0" flags="0x1000"/>
      <component glyphName="dotaccent" x="307" y="373" flags="0x1000"/>
    </TTGlyph>
    <TTGlyph name="a" xMin="129" yMin="0" xMax="961" yMax="1059">
      <contour>
        <pt x="918" y="240" on="1"/>
        <pt x="848" y="119" on="0"/>
        <pt x="621" y="0" on="0"/>
        <pt x="473" y="0" on="1"/>
        <pt x="321" y="0" on="0"/>
        <pt x="129" y="172" on="0"/>
        <pt x="129" y="305" on="1"/>
        <pt x="129" y="434" on="0"/>
        <pt x="340" y="578" on="0"/>
        <pt x="522" y="578" on="1"/>
        <pt x="915" y="578" on="1"/>
        <pt x="915" y="707" on="1"/>
        <pt x="913" y="857" on="0"/>
        <pt x="743" y="1018" on="0"/>
        <pt x="580" y="1018" on="1"/>
        <pt x="480" y="1018" on="0"/>
        <pt x="301" y="942" on="0"/>
        <pt x="209" y="870" on="1"/>
        <pt x="184" y="903" on="1"/>
        <pt x="381" y="1059" on="0"/>
        <pt x="580" y="1059" on="1"/>
        <pt x="760" y="1059" on="0"/>
        <pt x="954" y="870" on="0"/>
        <pt x="956" y="707" on="1"/>
        <pt x="961" y="0" on="1"/>
        <pt x="920" y="0" on="1"/>
      </contour>
      <contour>
        <pt x="635" y="41" on="0"/>
        <pt x="856" y="180" on="0"/>
        <pt x="918" y="332" on="1"/>
        <pt x="915" y="537" on="1"/>
        <pt x="522" y="537" on="1"/>
        <pt x="354" y="537" on="0"/>
        <pt x="170" y="416" on="0"/>
        <pt x="170" y="305" on="1"/>
        <pt x="170" y="186" on="0"/>
        <pt x="336" y="41" on="0"/>
        <pt x="475" y="41" on="1"/>
      </contour>
    </TTGlyph>
    <TTGlyph name="aacute" xMin="129" yMin="0" xMax="961" yMax="1513">
      <component glyphName="a" x="0" y="0" flags="0x1000"/>
      <component glyphName="acute" x="303" y="0" flags="0x1000"/>
    </TTGlyph>
    <TTGlyph name="abreve" xMin="129" yMin="0" xMax="961" yMax="1487">
      <component glyphName="a" x="0" y="0" flags="0x1000"/>
      <component glyphName="breve" x="205" y="0" flags="0x1000"/>
    </TTGlyph>
    <TTGlyph name="acircumflex" xMin="129" yMin="0" xMax="961" yMax="1503">
      <component glyphName="a" x="0" y="0" flags="0x1000"/>
      <component glyphName="circumflex" x="205" y="0" flags="0x1000"/>
    </TTGlyph>
    <TTGlyph name="acute" xMin="195" yMin="1278" xMax="524" yMax="1513">
      <contour>
        <pt x="260" y="1278" on="1"/>
        <pt x="195" y="1278" on="1"/>
        <pt x="485" y="1513" on="1"/>
        <pt x="524" y="1493" on="1"/>
      </contour>
    </TTGlyph>
    <TTGlyph name="adieresis" xMin="129" yMin="0" xMax="961" yMax="1417">
      <contour>
        <pt x="389" y="1311" on="0"/>
        <pt x="356" y="1343" on="0"/>
        <pt x="356" y="1364" on="1"/>
        <pt x="356" y="1387" on="0"/>
        <pt x="389" y="1417" on="0"/>
        <pt x="410" y="1417" on="1"/>
        <pt x="433" y="1417" on="0"/>
        <pt x="463" y="1386" on="0"/>
        <pt x="463" y="1364" on="1"/>
        <pt x="463" y="1344" on="0"/>
        <pt x="432" y="1311" on="0"/>
        <pt x="410" y="1311" on="1"/>
      </contour>
      <contour>
        <pt x="696" y="1311" on="0"/>
        <pt x="664" y="1343" on="0"/>
        <pt x="664" y="1364" on="1"/>
        <pt x="664" y="1387" on="0"/>
        <pt x="696" y="1417" on="0"/>
        <pt x="717" y="1417" on="1"/>
        <pt x="740" y="1417" on="0"/>
        <pt x="770" y="1386" on="0"/>
        <pt x="770" y="1364" on="1"/>
        <pt x="770" y="1344" on="0"/>
        <pt x="739" y="1311" on="0"/>
        <pt x="717" y="1311" on="1"/>
      </contour>
      <contour>
        <pt x="918" y="240" on="1"/>
        <pt x="848" y="119" on="0"/>
        <pt x="621" y="0" on="0"/>
        <pt x="473" y="0" on="1"/>
        <pt x="321" y="0" on="0"/>
        <pt x="129" y="172" on="0"/>
        <pt x="129" y="305" on="1"/>
        <pt x="129" y="434" on="0"/>
        <pt x="340" y="578" on="0"/>
        <pt x="522" y="578" on="1"/>
        <pt x="915" y="578" on="1"/>
        <pt x="915" y="707" on="1"/>
        <pt x="913" y="857" on="0"/>
        <pt x="743" y="1018" on="0"/>
        <pt x="580" y="1018" on="1"/>
        <pt x="480" y="1018" on="0"/>
        <pt x="301" y="942" on="0"/>
        <pt x="209" y="870" on="1"/>
        <pt x="184" y="903" on="1"/>
        <pt x="381" y="1059" on="0"/>
        <pt x="580" y="1059" on="1"/>
        <pt x="760" y="1059" on="0"/>
        <pt x="954" y="870" on="0"/>
        <pt x="956" y="707" on="1"/>
        <pt x="961" y="0" on="1"/>
        <pt x="920" y="0" on="1"/>
      </contour>
      <contour>
        <pt x="635" y="41" on="0"/>
        <pt x="856" y="180" on="0"/>
        <pt x="918" y="332" on="1"/>
        <pt x="915" y="537" on="1"/>
        <pt x="522" y="537" on="1"/>
        <pt x="354" y="537" on="0"/>
        <pt x="170" y="416" on="0"/>
        <pt x="170" y="305" on="1"/>
        <pt x="170" y="186" on="0"/>
        <pt x="336" y="41" on="0"/>
        <pt x="475" y="41" on="1"/>
      </contour>
    </TTGlyph>
    <TTGlyph name="ae" xMin="129" yMin="0" xMax="1925" yMax="1059">
      <contour>
        <pt x="1548" y="41" on="0"/>
        <pt x="1741" y="121" on="0"/>
        <pt x="1808" y="195" on="1"/>
        <pt x="1837" y="166" on="1"/>
        <pt x="1763" y="86" on="0"/>
        <pt x="1554" y="0" on="0"/>
        <pt x="1434" y="0" on="1"/>
        <pt x="1270" y="0" on="0"/>
        <pt x="1016" y="172" on="0"/>
        <pt x="961" y="317" on="1"/>
        <pt x="830" y="0" on="0"/>
        <pt x="475" y="0" on="1"/>
        <pt x="375" y="0" on="0"/>
        <pt x="217" y="78" on="0"/>
        <pt x="129" y="217" on="0"/>
        <pt x="129" y="305" on="1"/>
        <pt x="129" y="434" on="0"/>
        <pt x="342" y="578" on="0"/>
        <pt x="524" y="578" on="1"/>
        <pt x="920" y="578" on="1"/>
        <pt x="918" y="707" on="1"/>
        <pt x="916" y="854" on="0"/>
        <pt x="745" y="1018" on="0"/>
        <pt x="580" y="1018" on="1"/>
        <pt x="478" y="1018" on="0"/>
        <pt x="301" y="944" on="0"/>
        <pt x="207" y="870" on="1"/>
        <pt x="182" y="903" on="1"/>
        <pt x="278" y="979" on="0"/>
        <pt x="471" y="1059" on="0"/>
        <pt x="580" y="1059" on="1"/>
        <pt x="752" y="1059" on="0"/>
        <pt x="946" y="887" on="0"/>
        <pt x="956" y="735" on="1"/>
        <pt x="1011" y="885" on="0"/>
        <pt x="1268" y="1059" on="0"/>
        <pt x="1434" y="1059" on="1"/>
        <pt x="1577" y="1059" on="0"/>
        <pt x="1802" y="924" on="0"/>
        <pt x="1925" y="682" on="0"/>
        <pt x="1925" y="530" on="1"/>
        <pt x="963" y="530" on="1"/>
        <pt x="963" y="389" on="0"/>
        <pt x="1083" y="166" on="0"/>
        <pt x="1298" y="41" on="0"/>
        <pt x="1434" y="41" on="1"/>
      </contour>
      <contour>
        <pt x="1307" y="1018" on="0"/>
        <pt x="1100" y="905" on="0"/>
        <pt x="973" y="702" on="0"/>
        <pt x="965" y="571" on="1"/>
        <pt x="1884" y="571" on="1"/>
        <pt x="1870" y="772" on="0"/>
        <pt x="1626" y="1018" on="0"/>
        <pt x="1434" y="1018" on="1"/>
      </contour>
      <contour>
        <pt x="643" y="41" on="0"/>
        <pt x="874" y="197" on="0"/>
        <pt x="942" y="377" on="1"/>
        <pt x="922" y="445" on="0"/>
        <pt x="922" y="530" on="1"/>
        <pt x="922" y="537" on="1"/>
        <pt x="524" y="537" on="1"/>
        <pt x="354" y="537" on="0"/>
        <pt x="170" y="416" on="0"/>
        <pt x="170" y="305" on="1"/>
        <pt x="170" y="188" on="0"/>
        <pt x="338" y="41" on="0"/>
        <pt x="475" y="41" on="1"/>
      </contour>
    </TTGlyph>
    <TTGlyph name="agrave" xMin="129" yMin="0" xMax="961" yMax="1513">
      <component glyphName="a" x="0" y="0" flags="0x1000"/>
      <component glyphName="grave" x="104" y="0" flags="0x1000"/>
    </TTGlyph>
    <TTGlyph name="amacron" xMin="129" yMin="0" xMax="961" yMax="1386">
      <component glyphName="a" x="0" y="0" flags="0x1000"/>
      <component glyphName="macron" x="205" y="0" flags="0x1000"/>
    </TTGlyph>
    <TTGlyph name="ampersand" xMin="123" yMin="0" xMax="1268" yMax="1432">
      <contour>
        <pt x="1268" y="27" on="1"/>
        <pt x="1241" y="0" on="1"/>
        <pt x="1143" y="100" on="0"/>
        <pt x="973" y="266" on="1"/>
        <pt x="869" y="137" on="0"/>
        <pt x="635" y="0" on="0"/>
        <pt x="512" y="0" on="1"/>
        <pt x="406" y="0" on="0"/>
        <pt x="227" y="98" on="0"/>
        <pt x="123" y="270" on="0"/>
        <pt x="123" y="375" on="1"/>
        <pt x="123" y="520" on="0"/>
        <pt x="307" y="707" on="0"/>
        <pt x="475" y="795" on="1"/>
        <pt x="393" y="899" on="0"/>
        <pt x="309" y="1073" on="0"/>
        <pt x="309" y="1151" on="1"/>
        <pt x="309" y="1229" on="0"/>
        <pt x="389" y="1356" on="0"/>
        <pt x="532" y="1432" on="0"/>
        <pt x="623" y="1432" on="1"/>
        <pt x="752" y="1432" on="0"/>
        <pt x="907" y="1286" on="0"/>
        <pt x="907" y="1169" on="1"/>
        <pt x="907" y="1079" on="0"/>
        <pt x="807" y="944" on="0"/>
        <pt x="666" y="850" on="0"/>
        <pt x="537" y="780" on="1"/>
        <pt x="609" y="692" on="0"/>
        <pt x="805" y="487" on="0"/>
        <pt x="967" y="328" on="1"/>
        <pt x="1065" y="461" on="0"/>
        <pt x="1143" y="637" on="1"/>
        <pt x="1182" y="612" on="1"/>
        <pt x="1096" y="426" on="0"/>
        <pt x="997" y="297" on="1"/>
      </contour>
      <contour>
        <pt x="350" y="1014" on="0"/>
        <pt x="510" y="813" on="1"/>
        <pt x="633" y="879" on="0"/>
        <pt x="770" y="965" on="0"/>
        <pt x="866" y="1090" on="0"/>
        <pt x="866" y="1171" on="1"/>
        <pt x="866" y="1269" on="0"/>
        <pt x="733" y="1391" on="0"/>
        <pt x="623" y="1391" on="1"/>
        <pt x="502" y="1391" on="0"/>
        <pt x="350" y="1253" on="0"/>
        <pt x="350" y="1151" on="1"/>
      </contour>
      <contour>
        <pt x="627" y="41" on="0"/>
        <pt x="846" y="172" on="0"/>
        <pt x="944" y="297" on="1"/>
        <pt x="778" y="461" on="0"/>
        <pt x="575" y="672" on="0"/>
        <pt x="502" y="762" on="1"/>
        <pt x="338" y="674" on="0"/>
        <pt x="164" y="504" on="0"/>
        <pt x="164" y="375" on="1"/>
        <pt x="164" y="281" on="0"/>
        <pt x="256" y="127" on="0"/>
        <pt x="416" y="41" on="0"/>
        <pt x="512" y="41" on="1"/>
      </contour>
    </TTGlyph>
    <TTGlyph name="aogonek" xMin="129" yMin="-408" xMax="1022" yMax="1059">
      <contour>
        <pt x="766" y="1059" on="0"/>
        <pt x="963" y="870" on="0"/>
        <pt x="965" y="707" on="1"/>
        <pt x="965" y="0" on="1"/>
        <pt x="963" y="0" on="1"/>
        <pt x="859" y="-96" on="0"/>
        <pt x="780" y="-217" on="0"/>
        <pt x="780" y="-268" on="1"/>
        <pt x="780" y="-315" on="0"/>
        <pt x="831" y="-367" on="0"/>
        <pt x="870" y="-367" on="1"/>
        <pt x="929" y="-367" on="0"/>
        <pt x="993" y="-297" on="1"/>
        <pt x="1022" y="-326" on="1"/>
        <pt x="989" y="-365" on="0"/>
        <pt x="909" y="-408" on="0"/>
        <pt x="868" y="-408" on="1"/>
        <pt x="813" y="-408" on="0"/>
        <pt x="739" y="-330" on="0"/>
        <pt x="739" y="-270" on="1"/>
        <pt x="739" y="-215" on="0"/>
        <pt x="825" y="-80" on="0"/>
        <pt x="926" y="14" on="1"/>
        <pt x="924" y="14" on="1"/>
        <pt x="924" y="236" on="1"/>
        <pt x="854" y="117" on="0"/>
        <pt x="623" y="0" on="0"/>
        <pt x="489" y="0" on="1"/>
        <pt x="378" y="0" on="0"/>
        <pt x="215" y="80" on="0"/>
        <pt x="129" y="217" on="0"/>
        <pt x="129" y="301" on="1"/>
        <pt x="129" y="432" on="0"/>
        <pt x="342" y="578" on="0"/>
        <pt x="526" y="578" on="1"/>
        <pt x="924" y="578" on="1"/>
        <pt x="924" y="707" on="1"/>
        <pt x="922" y="854" on="0"/>
        <pt x="752" y="1018" on="0"/>
        <pt x="590" y="1018" on="1"/>
        <pt x="484" y="1018" on="0"/>
        <pt x="303" y="944" on="0"/>
        <pt x="209" y="870" on="1"/>
        <pt x="184" y="903" on="1"/>
        <pt x="282" y="979" on="0"/>
        <pt x="477" y="1059" on="0"/>
        <pt x="590" y="1059" on="1"/>
      </contour>
      <contour>
        <pt x="354" y="537" on="0"/>
        <pt x="170" y="416" on="0"/>
        <pt x="170" y="299" on="1"/>
        <pt x="170" y="188" on="0"/>
        <pt x="336" y="41" on="0"/>
        <pt x="492" y="41" on="1"/>
        <pt x="633" y="41" on="0"/>
        <pt x="862" y="176" on="0"/>
        <pt x="924" y="326" on="1"/>
        <pt x="924" y="537" on="1"/>
        <pt x="526" y="537" on="1"/>
      </contour>
    </TTGlyph>
    <TTGlyph name="approxequal" xMin="170" yMin="381" xMax="815" yMax="977">
      <contour>
        <pt x="354" y="977" on="0"/>
        <pt x="442" y="938" on="0"/>
        <pt x="502" y="903" on="1"/>
        <pt x="563" y="866" on="0"/>
        <pt x="637" y="834" on="0"/>
        <pt x="672" y="834" on="1"/>
        <pt x="721" y="834" on="0"/>
        <pt x="774" y="897" on="0"/>
        <pt x="774" y="956" on="1"/>
        <pt x="815" y="956" on="1"/>
        <pt x="815" y="878" on="0"/>
        <pt x="739" y="793" on="0"/>
        <pt x="672" y="793" on="1"/>
        <pt x="623" y="793" on="0"/>
        <pt x="532" y="834" on="0"/>
        <pt x="473" y="870" on="1"/>
        <pt x="414" y="905" on="0"/>
        <pt x="348" y="936" on="0"/>
        <pt x="313" y="936" on="1"/>
        <pt x="264" y="936" on="0"/>
        <pt x="211" y="872" on="0"/>
        <pt x="211" y="813" on="1"/>
        <pt x="170" y="813" on="1"/>
        <pt x="170" y="891" on="0"/>
        <pt x="246" y="977" on="0"/>
        <pt x="313" y="977" on="1"/>
      </contour>
      <contour>
        <pt x="354" y="565" on="0"/>
        <pt x="442" y="526" on="0"/>
        <pt x="502" y="492" on="1"/>
        <pt x="563" y="455" on="0"/>
        <pt x="637" y="422" on="0"/>
        <pt x="672" y="422" on="1"/>
        <pt x="721" y="422" on="0"/>
        <pt x="774" y="485" on="0"/>
        <pt x="774" y="545" on="1"/>
        <pt x="815" y="545" on="1"/>
        <pt x="815" y="467" on="0"/>
        <pt x="739" y="381" on="0"/>
        <pt x="672" y="381" on="1"/>
        <pt x="623" y="381" on="0"/>
        <pt x="532" y="422" on="0"/>
        <pt x="473" y="459" on="1"/>
        <pt x="414" y="494" on="0"/>
        <pt x="348" y="524" on="0"/>
        <pt x="313" y="524" on="1"/>
        <pt x="264" y="524" on="0"/>
        <pt x="211" y="461" on="0"/>
        <pt x="211" y="401" on="1"/>
        <pt x="170" y="401" on="1"/>
        <pt x="170" y="479" on="0"/>
        <pt x="246" y="565" on="0"/>
        <pt x="313" y="565" on="1"/>
      </contour>
    </TTGlyph>
    <TTGlyph name="aring" xMin="129" yMin="0" xMax="961" yMax="1589">
      <component glyphName="a" x="0" y="0" flags="0x1000"/>
      <component glyphName="ring" x="205" y="0" flags="0x1000"/>
    </TTGlyph>
    <TTGlyph name="asciicircum" xMin="82" yMin="262" xMax="897" yMax="1081">
      <component glyphName="less" x="-182" y="1163" scalex="0.0" scale01="-1.0" scale10="1.0" scaley="0.0" flags="0x1000"/>
    </TTGlyph>
    <TTGlyph name="asciitilde" xMin="170" yMin="553" xMax="815" yMax="737">
      <contour>
        <pt x="354" y="737" on="0"/>
        <pt x="442" y="698" on="0"/>
        <pt x="502" y="664" on="1"/>
        <pt x="563" y="627" on="0"/>
        <pt x="637" y="594" on="0"/>
        <pt x="672" y="594" on="1"/>
        <pt x="721" y="594" on="0"/>
        <pt x="774" y="657" on="0"/>
        <pt x="774" y="717" on="1"/>
        <pt x="815" y="717" on="1"/>
        <pt x="815" y="639" on="0"/>
        <pt x="739" y="553" on="0"/>
        <pt x="672" y="553" on="1"/>
        <pt x="623" y="553" on="0"/>
        <pt x="532" y="594" on="0"/>
        <pt x="473" y="631" on="1"/>
        <pt x="414" y="666" on="0"/>
        <pt x="348" y="696" on="0"/>
        <pt x="313" y="696" on="1"/>
        <pt x="264" y="696" on="0"/>
        <pt x="211" y="633" on="0"/>
        <pt x="211" y="573" on="1"/>
        <pt x="170" y="573" on="1"/>
        <pt x="170" y="651" on="0"/>
        <pt x="246" y="737" on="0"/>
        <pt x="313" y="737" on="1"/>
      </contour>
    </TTGlyph>
    <TTGlyph name="asterisk" xMin="61" yMin="936" xMax="549" yMax="1481">
      <contour>
        <pt x="324" y="936" on="1"/>
        <pt x="287" y="936" on="1"/>
        <pt x="287" y="1176" on="1"/>
        <pt x="80" y="1055" on="1"/>
        <pt x="61" y="1090" on="1"/>
        <pt x="266" y="1208" on="1"/>
        <pt x="61" y="1327" on="1"/>
        <pt x="80" y="1362" on="1"/>
        <pt x="287" y="1241" on="1"/>
        <pt x="287" y="1481" on="1"/>
        <pt x="324" y="1481" on="1"/>
        <pt x="324" y="1241" on="1"/>
        <pt x="530" y="1362" on="1"/>
        <pt x="549" y="1327" on="1"/>
        <pt x="342" y="1208" on="1"/>
        <pt x="549" y="1090" on="1"/>
        <pt x="530" y="1055" on="1"/>
        <pt x="324" y="1176" on="1"/>
      </contour>
    </TTGlyph>
    <TTGlyph name="at" xMin="102" yMin="-365" xMax="1958" yMax="1477">
      <contour>
        <pt x="1300" y="1477" on="0"/>
        <pt x="1720" y="1233" on="0"/>
        <pt x="1958" y="801" on="0"/>
        <pt x="1958" y="530" on="1"/>
        <pt x="1958" y="360" on="0"/>
        <pt x="1882" y="106" on="0"/>
        <pt x="1743" y="-33" on="0"/>
        <pt x="1649" y="-33" on="1"/>
        <pt x="1569" y="-33" on="0"/>
        <pt x="1458" y="94" on="0"/>
        <pt x="1458" y="197" on="1"/>
        <pt x="1458" y="328" on="1"/>
        <pt x="1401" y="183" on="0"/>
        <pt x="1147" y="12" on="0"/>
        <pt x="981" y="12" on="1"/>
        <pt x="834" y="12" on="0"/>
        <pt x="596" y="150" on="0"/>
        <pt x="463" y="393" on="0"/>
        <pt x="463" y="545" on="1"/>
        <pt x="463" y="697" on="0"/>
        <pt x="596" y="942" on="0"/>
        <pt x="834" y="1079" on="0"/>
        <pt x="981" y="1079" on="1"/>
        <pt x="1147" y="1079" on="0"/>
        <pt x="1401" y="909" on="0"/>
        <pt x="1458" y="764" on="1"/>
        <pt x="1458" y="1075" on="1"/>
        <pt x="1499" y="1075" on="1"/>
        <pt x="1499" y="197" on="1"/>
        <pt x="1499" y="113" on="0"/>
        <pt x="1589" y="8" on="0"/>
        <pt x="1653" y="8" on="1"/>
        <pt x="1774" y="8" on="0"/>
        <pt x="1917" y="293" on="0"/>
        <pt x="1917" y="530" on="1"/>
        <pt x="1917" y="788" on="0"/>
        <pt x="1690" y="1202" on="0"/>
        <pt x="1288" y="1436" on="0"/>
        <pt x="1038" y="1436" on="1"/>
        <pt x="782" y="1436" on="0"/>
        <pt x="375" y="1204" on="0"/>
        <pt x="143" y="793" on="0"/>
        <pt x="143" y="537" on="1"/>
        <pt x="143" y="291" on="0"/>
        <pt x="369" y="-102" on="0"/>
        <pt x="764" y="-324" on="0"/>
        <pt x="1012" y="-324" on="1"/>
        <pt x="1098" y="-324" on="0"/>
        <pt x="1307" y="-272" on="0"/>
        <pt x="1378" y="-233" on="1"/>
        <pt x="1395" y="-270" on="1"/>
        <pt x="1317" y="-311" on="0"/>
        <pt x="1100" y="-365" on="0"/>
        <pt x="1012" y="-365" on="1"/>
        <pt x="752" y="-365" on="0"/>
        <pt x="338" y="-133" on="0"/>
        <pt x="102" y="279" on="0"/>
        <pt x="102" y="537" on="1"/>
        <pt x="102" y="805" on="0"/>
        <pt x="344" y="1235" on="0"/>
        <pt x="772" y="1477" on="0"/>
        <pt x="1038" y="1477" on="1"/>
      </contour>
      <contour>
        <pt x="844" y="1038" on="0"/>
        <pt x="627" y="911" on="0"/>
        <pt x="504" y="686" on="0"/>
        <pt x="504" y="545" on="1"/>
        <pt x="504" y="404" on="0"/>
        <pt x="627" y="180" on="0"/>
        <pt x="844" y="53" on="0"/>
        <pt x="981" y="53" on="1"/>
        <pt x="1118" y="53" on="0"/>
        <pt x="1335" y="180" on="0"/>
        <pt x="1458" y="403" on="0"/>
        <pt x="1458" y="545" on="1"/>
        <pt x="1458" y="686" on="0"/>
        <pt x="1335" y="911" on="0"/>
        <pt x="1118" y="1038" on="0"/>
        <pt x="981" y="1038" on="1"/>
      </contour>
    </TTGlyph>
    <TTGlyph name="atilde" xMin="129" yMin="0" xMax="961" yMax="1475">
      <component glyphName="a" x="0" y="0" flags="0x1000"/>
      <component glyphName="tilde" x="205" y="0" flags="0x1000"/>
    </TTGlyph>
    <TTGlyph name="b" xMin="236" yMin="0" xMax="1264" yMax="1520">
      <contour>
        <pt x="897" y="1059" on="0"/>
        <pt x="1130" y="922" on="0"/>
        <pt x="1264" y="680" on="0"/>
        <pt x="1264" y="528" on="1"/>
        <pt x="1264" y="376" on="0"/>
        <pt x="1130" y="137" on="0"/>
        <pt x="897" y="0" on="0"/>
        <pt x="750" y="0" on="1"/>
        <pt x="586" y="0" on="0"/>
        <pt x="334" y="168" on="0"/>
        <pt x="276" y="311" on="1"/>
        <pt x="276" y="0" on="1"/>
        <pt x="236" y="0" on="1"/>
        <pt x="236" y="1520" on="1"/>
        <pt x="276" y="1520" on="1"/>
        <pt x="276" y="748" on="1"/>
        <pt x="333" y="891" on="0"/>
        <pt x="586" y="1059" on="0"/>
        <pt x="750" y="1059" on="1"/>
      </contour>
      <contour>
        <pt x="885" y="41" on="0"/>
        <pt x="1100" y="166" on="0"/>
        <pt x="1223" y="389" on="0"/>
        <pt x="1223" y="528" on="1"/>
        <pt x="1223" y="667" on="0"/>
        <pt x="1100" y="891" on="0"/>
        <pt x="885" y="1018" on="0"/>
        <pt x="750" y="1018" on="1"/>
        <pt x="615" y="1018" on="0"/>
        <pt x="399" y="891" on="0"/>
        <pt x="276" y="668" on="0"/>
        <pt x="276" y="528" on="1"/>
        <pt x="276" y="389" on="0"/>
        <pt x="399" y="166" on="0"/>
        <pt x="614" y="41" on="0"/>
        <pt x="750" y="41" on="1"/>
      </contour>
    </TTGlyph>
    <TTGlyph name="backslash" xMin="-76" yMin="-266" xMax="594" yMax="1692">
      <component glyphName="slash" x="602" y="0" scalex="-1.0" scaley="1.0" flags="0x1000"/>
    </TTGlyph>
    <TTGlyph name="bar" xMin="205" yMin="-264" xMax="246" yMax="1688">
      <contour>
        <pt x="205" y="-264" on="1"/>
        <pt x="205" y="1688" on="1"/>
        <pt x="246" y="1688" on="1"/>
        <pt x="246" y="-264" on="1"/>
      </contour>
    </TTGlyph>
    <TTGlyph name="braceleft" xMin="111" yMin="-258" xMax="524" yMax="1520">
      <contour>
        <pt x="303" y="725" on="0"/>
        <pt x="264" y="645" on="0"/>
        <pt x="221" y="631" on="1"/>
        <pt x="264" y="617" on="0"/>
        <pt x="303" y="537" on="0"/>
        <pt x="303" y="463" on="1"/>
        <pt x="303" y="-49" on="1"/>
        <pt x="303" y="-135" on="0"/>
        <pt x="412" y="-217" on="0"/>
        <pt x="524" y="-217" on="1"/>
        <pt x="524" y="-258" on="1"/>
        <pt x="514" y="-258" on="1"/>
        <pt x="385" y="-258" on="0"/>
        <pt x="262" y="-156" on="0"/>
        <pt x="262" y="-49" on="1"/>
        <pt x="262" y="463" on="1"/>
        <pt x="262" y="610" on="0"/>
        <pt x="150" y="610" on="1"/>
        <pt x="111" y="610" on="1"/>
        <pt x="111" y="651" on="1"/>
        <pt x="150" y="651" on="1"/>
        <pt x="263" y="651" on="0"/>
        <pt x="262" y="799" on="1"/>
        <pt x="262" y="1311" on="1"/>
        <pt x="262" y="1417" on="0"/>
        <pt x="385" y="1520" on="0"/>
        <pt x="514" y="1520" on="1"/>
        <pt x="524" y="1520" on="1"/>
        <pt x="524" y="1479" on="1"/>
        <pt x="411" y="1479" on="0"/>
        <pt x="303" y="1397" on="0"/>
        <pt x="303" y="1311" on="1"/>
        <pt x="303" y="799" on="1"/>
      </contour>
    </TTGlyph>
    <TTGlyph name="braceright" xMin="58" yMin="-258" xMax="471" yMax="1520">
      <component glyphName="braceleft" x="582" y="0" scalex="-1.0" scaley="1.0" flags="0x1000"/>
    </TTGlyph>
    <TTGlyph name="bracketleft" xMin="262" yMin="-254" xMax="567" yMax="1520">
      <contour>
        <pt x="303" y="1479" on="1"/>
        <pt x="303" y="-213" on="1"/>
        <pt x="567" y="-213" on="1"/>
        <pt x="567" y="-254" on="1"/>
        <pt x="262" y="-254" on="1"/>
        <pt x="262" y="1520" on="1"/>
        <pt x="567" y="1520" on="1"/>
        <pt x="567" y="1479" on="1"/>
      </contour>
    </TTGlyph>
    <TTGlyph name="bracketright" xMin="82" yMin="-254" xMax="387" yMax="1520">
      <component glyphName="bracketleft" x="649" y="0" scalex="-1.0" scaley="1.0" flags="0x1000"/>
    </TTGlyph>
    <TTGlyph name="breve" xMin="143" yMin="1272" xMax="573" yMax="1487">
      <contour>
        <pt x="571" y="1395" on="0"/>
        <pt x="446" y="1272" on="0"/>
        <pt x="358" y="1272" on="1"/>
        <pt x="270" y="1272" on="0"/>
        <pt x="145" y="1395" on="0"/>
        <pt x="143" y="1487" on="1"/>
        <pt x="184" y="1487" on="1"/>
        <pt x="188" y="1413" on="0"/>
        <pt x="287" y="1313" on="0"/>
        <pt x="358" y="1313" on="1"/>
        <pt x="430" y="1313" on="0"/>
        <pt x="528" y="1413" on="0"/>
        <pt x="532" y="1487" on="1"/>
        <pt x="573" y="1487" on="1"/>
      </contour>
    </TTGlyph>
    <TTGlyph name="brokenbar" xMin="205" yMin="-264" xMax="246" yMax="1688">
      <contour>
        <pt x="205" y="965" on="1"/>
        <pt x="205" y="1688" on="1"/>
        <pt x="246" y="1688" on="1"/>
        <pt x="246" y="965" on="1"/>
      </contour>
      <contour>
        <pt x="205" y="-264" on="1"/>
        <pt x="205" y="459" on="1"/>
        <pt x="246" y="459" on="1"/>
        <pt x="246" y="-264" on="1"/>
      </contour>
    </TTGlyph>
    <TTGlyph name="bullet" xMin="121" yMin="473" xMax="281" yMax="633">
      <contour>
        <pt x="233" y="633" on="0"/>
        <pt x="281" y="586" on="0"/>
        <pt x="281" y="553" on="1"/>
        <pt x="281" y="520" on="0"/>
        <pt x="233" y="473" on="0"/>
        <pt x="201" y="473" on="1"/>
        <pt x="168" y="473" on="0"/>
        <pt x="121" y="520" on="0"/>
        <pt x="121" y="553" on="1"/>
        <pt x="121" y="586" on="0"/>
        <pt x="168" y="633" on="0"/>
        <pt x="201" y="633" on="1"/>
      </contour>
    </TTGlyph>
    <TTGlyph name="bulletoperator" xMin="121" yMin="473" xMax="281" yMax="633">
      <contour>
        <pt x="233" y="633" on="0"/>
        <pt x="281" y="586" on="0"/>
        <pt x="281" y="553" on="1"/>
        <pt x="281" y="520" on="0"/>
        <pt x="233" y="473" on="0"/>
        <pt x="201" y="473" on="1"/>
        <pt x="168" y="473" on="0"/>
        <pt x="121" y="520" on="0"/>
        <pt x="121" y="553" on="1"/>
        <pt x="121" y="586" on="0"/>
        <pt x="168" y="633" on="0"/>
        <pt x="201" y="633" on="1"/>
      </contour>
    </TTGlyph>
    <TTGlyph name="c" xMin="106" yMin="0" xMax="1004" yMax="1059">
      <contour>
        <pt x="725" y="1059" on="0"/>
        <pt x="911" y="985" on="0"/>
        <pt x="981" y="918" on="1"/>
        <pt x="954" y="889" on="1"/>
        <pt x="813" y="1018" on="0"/>
        <pt x="621" y="1018" on="1"/>
        <pt x="486" y="1018" on="0"/>
        <pt x="268" y="893" on="0"/>
        <pt x="145" y="672" on="0"/>
        <pt x="145" y="530" on="1"/>
        <pt x="145" y="389" on="0"/>
        <pt x="268" y="166" on="0"/>
        <pt x="485" y="41" on="0"/>
        <pt x="621" y="41" on="1"/>
        <pt x="730" y="41" on="0"/>
        <pt x="911" y="121" on="0"/>
        <pt x="977" y="195" on="1"/>
        <pt x="1004" y="166" on="1"/>
        <pt x="934" y="86" on="0"/>
        <pt x="735" y="0" on="0"/>
        <pt x="621" y="0" on="1"/>
        <pt x="476" y="0" on="0"/>
        <pt x="240" y="137" on="0"/>
        <pt x="106" y="379" on="0"/>
        <pt x="106" y="530" on="1"/>
        <pt x="106" y="682" on="0"/>
        <pt x="240" y="924" on="0"/>
        <pt x="475" y="1059" on="0"/>
        <pt x="621" y="1059" on="1"/>
      </contour>
    </TTGlyph>
    <TTGlyph name="cacute" xMin="106" yMin="0" xMax="1004" yMax="1513">
      <component glyphName="c" x="0" y="0" flags="0x1000"/>
      <component glyphName="acute" x="311" y="0" flags="0x1000"/>
    </TTGlyph>
    <TTGlyph name="caron" xMin="125" yMin="1278" xMax="592" yMax="1503">
      <contour>
        <pt x="180" y="1503" on="1"/>
        <pt x="358" y="1307" on="1"/>
        <pt x="537" y="1503" on="1"/>
        <pt x="592" y="1503" on="1"/>
        <pt x="389" y="1278" on="1"/>
        <pt x="328" y="1278" on="1"/>
        <pt x="125" y="1503" on="1"/>
      </contour>
    </TTGlyph>
    <TTGlyph name="ccaron" xMin="106" yMin="0" xMax="1004" yMax="1503">
      <component glyphName="c" x="0" y="0" flags="0x1000"/>
      <component glyphName="caron" x="213" y="0" flags="0x1000"/>
    </TTGlyph>
    <TTGlyph name="ccedilla" xMin="106" yMin="-410" xMax="1004" yMax="1059">
      <contour>
        <pt x="938" y="90" on="0"/>
        <pt x="750" y="4" on="0"/>
        <pt x="639" y="0" on="1"/>
        <pt x="598" y="-100" on="1"/>
        <pt x="664" y="-100" on="0"/>
        <pt x="750" y="-186" on="0"/>
        <pt x="750" y="-250" on="1"/>
        <pt x="750" y="-320" on="0"/>
        <pt x="653" y="-410" on="0"/>
        <pt x="578" y="-410" on="1"/>
        <pt x="541" y="-410" on="0"/>
        <pt x="459" y="-387" on="0"/>
        <pt x="434" y="-369" on="1"/>
        <pt x="451" y="-330" on="1"/>
        <pt x="474" y="-346" on="0"/>
        <pt x="545" y="-369" on="0"/>
        <pt x="578" y="-369" on="1"/>
        <pt x="635" y="-369" on="0"/>
        <pt x="709" y="-303" on="0"/>
        <pt x="709" y="-250" on="1"/>
        <pt x="709" y="-203" on="0"/>
        <pt x="647" y="-137" on="0"/>
        <pt x="600" y="-137" on="1"/>
        <pt x="541" y="-137" on="1"/>
        <pt x="598" y="0" on="1"/>
        <pt x="459" y="4" on="0"/>
        <pt x="233" y="143" on="0"/>
        <pt x="106" y="383" on="0"/>
        <pt x="106" y="530" on="1"/>
        <pt x="106" y="682" on="0"/>
        <pt x="240" y="924" on="0"/>
        <pt x="475" y="1059" on="0"/>
        <pt x="621" y="1059" on="1"/>
        <pt x="725" y="1059" on="0"/>
        <pt x="911" y="985" on="0"/>
        <pt x="981" y="918" on="1"/>
        <pt x="954" y="889" on="1"/>
        <pt x="813" y="1018" on="0"/>
        <pt x="621" y="1018" on="1"/>
        <pt x="486" y="1018" on="0"/>
        <pt x="268" y="893" on="0"/>
        <pt x="145" y="672" on="0"/>
        <pt x="145" y="530" on="1"/>
        <pt x="145" y="389" on="0"/>
        <pt x="268" y="166" on="0"/>
        <pt x="485" y="41" on="0"/>
        <pt x="621" y="41" on="1"/>
        <pt x="730" y="41" on="0"/>
        <pt x="911" y="121" on="0"/>
        <pt x="977" y="195" on="1"/>
        <pt x="1004" y="166" on="1"/>
      </contour>
    </TTGlyph>
    <TTGlyph name="cedilla" xMin="201" yMin="-410" xMax="516" yMax="8">
      <contour>
        <pt x="430" y="-100" on="0"/>
        <pt x="516" y="-186" on="0"/>
        <pt x="516" y="-250" on="1"/>
        <pt x="516" y="-320" on="0"/>
        <pt x="420" y="-410" on="0"/>
        <pt x="344" y="-410" on="1"/>
        <pt x="307" y="-410" on="0"/>
        <pt x="225" y="-387" on="0"/>
        <pt x="201" y="-369" on="1"/>
        <pt x="217" y="-330" on="1"/>
        <pt x="240" y="-346" on="0"/>
        <pt x="311" y="-369" on="0"/>
        <pt x="344" y="-369" on="1"/>
        <pt x="401" y="-369" on="0"/>
        <pt x="475" y="-303" on="0"/>
        <pt x="475" y="-250" on="1"/>
        <pt x="475" y="-203" on="0"/>
        <pt x="414" y="-137" on="0"/>
        <pt x="367" y="-137" on="1"/>
        <pt x="307" y="-137" on="1"/>
        <pt x="369" y="8" on="1"/>
        <pt x="410" y="8" on="1"/>
        <pt x="365" y="-100" on="1"/>
      </contour>
    </TTGlyph>
    <TTGlyph name="cent" xMin="106" yMin="-244" xMax="1004" yMax="1339">
      <contour>
        <pt x="934" y="86" on="0"/>
        <pt x="737" y="0" on="0"/>
        <pt x="623" y="0" on="1"/>
        <pt x="623" y="-244" on="1"/>
        <pt x="582" y="-244" on="1"/>
        <pt x="582" y="2" on="1"/>
        <pt x="447" y="10" on="0"/>
        <pt x="229" y="152" on="0"/>
        <pt x="106" y="385" on="0"/>
        <pt x="106" y="530" on="1"/>
        <pt x="106" y="673" on="0"/>
        <pt x="229" y="907" on="0"/>
        <pt x="446" y="1049" on="0"/>
        <pt x="582" y="1057" on="1"/>
        <pt x="582" y="1339" on="1"/>
        <pt x="623" y="1339" on="1"/>
        <pt x="623" y="1059" on="1"/>
        <pt x="727" y="1059" on="0"/>
        <pt x="911" y="985" on="0"/>
        <pt x="981" y="918" on="1"/>
        <pt x="954" y="889" on="1"/>
        <pt x="813" y="1018" on="0"/>
        <pt x="623" y="1018" on="1"/>
        <pt x="623" y="41" on="1"/>
        <pt x="732" y="41" on="0"/>
        <pt x="911" y="121" on="0"/>
        <pt x="977" y="195" on="1"/>
        <pt x="1004" y="166" on="1"/>
      </contour>
      <contour>
        <pt x="145" y="395" on="0"/>
        <pt x="258" y="180" on="0"/>
        <pt x="455" y="51" on="0"/>
        <pt x="582" y="43" on="1"/>
        <pt x="582" y="1016" on="1"/>
        <pt x="457" y="1008" on="0"/>
        <pt x="258" y="881" on="0"/>
        <pt x="145" y="666" on="0"/>
        <pt x="145" y="530" on="1"/>
      </contour>
    </TTGlyph>
    <TTGlyph name="circumflex" xMin="125" yMin="1278" xMax="592" yMax="1503">
      <contour>
        <pt x="537" y="1278" on="1"/>
        <pt x="358" y="1475" on="1"/>
        <pt x="180" y="1278" on="1"/>
        <pt x="125" y="1278" on="1"/>
        <pt x="328" y="1503" on="1"/>
        <pt x="389" y="1503" on="1"/>
        <pt x="592" y="1278" on="1"/>
      </contour>
    </TTGlyph>
    <TTGlyph name="colon" xMin="121" yMin="-14" xMax="227" yMax="700">
      <component glyphName="period" x="0" y="608" flags="0x1000"/>
      <component glyphName="period" x="0" y="0" flags="0x1000"/>
    </TTGlyph>
    <TTGlyph name="comma" xMin="106" yMin="-111" xMax="231" yMax="92">
      <contour>
        <pt x="201" y="92" on="0"/>
        <pt x="231" y="59" on="0"/>
        <pt x="231" y="37" on="1"/>
        <pt x="231" y="17" on="0"/>
        <pt x="211" y="-14" on="1"/>
        <pt x="147" y="-111" on="1"/>
        <pt x="106" y="-111" on="1"/>
        <pt x="162" y="-14" on="1"/>
        <pt x="146" y="-8" on="0"/>
        <pt x="125" y="20" on="0"/>
        <pt x="125" y="39" on="1"/>
        <pt x="125" y="62" on="0"/>
        <pt x="156" y="92" on="0"/>
        <pt x="178" y="92" on="1"/>
      </contour>
    </TTGlyph>
    <TTGlyph name="copyright" xMin="102" yMin="18" xMax="1489" yMax="1411">
      <contour>
        <pt x="987" y="1411" on="0"/>
        <pt x="1305" y="1225" on="0"/>
        <pt x="1489" y="905" on="0"/>
        <pt x="1489" y="717" on="1"/>
        <pt x="1489" y="531" on="0"/>
        <pt x="1305" y="209" on="0"/>
        <pt x="985" y="18" on="0"/>
        <pt x="793" y="18" on="1"/>
        <pt x="603" y="18" on="0"/>
        <pt x="285" y="207" on="0"/>
        <pt x="102" y="526" on="0"/>
        <pt x="102" y="713" on="1"/>
        <pt x="102" y="899" on="0"/>
        <pt x="287" y="1221" on="0"/>
        <pt x="604" y="1411" on="0"/>
        <pt x="797" y="1411" on="1"/>
      </contour>
      <contour>
        <pt x="614" y="1370" on="0"/>
        <pt x="315" y="1192" on="0"/>
        <pt x="143" y="891" on="0"/>
        <pt x="143" y="713" on="1"/>
        <pt x="143" y="535" on="0"/>
        <pt x="315" y="236" on="0"/>
        <pt x="612" y="59" on="0"/>
        <pt x="793" y="59" on="1"/>
        <pt x="975" y="59" on="0"/>
        <pt x="1274" y="238" on="0"/>
        <pt x="1448" y="539" on="0"/>
        <pt x="1448" y="717" on="1"/>
        <pt x="1448" y="895" on="0"/>
        <pt x="1276" y="1194" on="0"/>
        <pt x="977" y="1370" on="0"/>
        <pt x="797" y="1370" on="1"/>
      </contour>
      <contour>
        <pt x="877" y="1087" on="0"/>
        <pt x="1014" y="1034" on="0"/>
        <pt x="1067" y="987" on="1"/>
        <pt x="1040" y="958" on="1"/>
        <pt x="940" y="1046" on="0"/>
        <pt x="805" y="1047" on="1"/>
        <pt x="711" y="1047" on="0"/>
        <pt x="553" y="956" on="0"/>
        <pt x="461" y="805" on="0"/>
        <pt x="461" y="715" on="1"/>
        <pt x="461" y="625" on="0"/>
        <pt x="553" y="471" on="0"/>
        <pt x="711" y="381" on="0"/>
        <pt x="805" y="381" on="1"/>
        <pt x="871" y="381" on="0"/>
        <pt x="991" y="428" on="0"/>
        <pt x="1040" y="469" on="1"/>
        <pt x="1067" y="442" on="1"/>
        <pt x="1014" y="393" on="0"/>
        <pt x="877" y="340" on="0"/>
        <pt x="803" y="340" on="1"/>
        <pt x="699" y="340" on="0"/>
        <pt x="522" y="440" on="0"/>
        <pt x="420" y="612" on="0"/>
        <pt x="420" y="715" on="1"/>
        <pt x="420" y="815" on="0"/>
        <pt x="524" y="987" on="0"/>
        <pt x="700" y="1087" on="0"/>
        <pt x="805" y="1087" on="1"/>
      </contour>
    </TTGlyph>
    <TTGlyph name="currency" xMin="106" yMin="12" xMax="1380" yMax="1288">
      <contour>
        <pt x="1323" y="539" on="0"/>
        <pt x="1237" y="338" on="0"/>
        <pt x="1159" y="264" on="1"/>
        <pt x="1380" y="41" on="1"/>
        <pt x="1352" y="12" on="1"/>
        <pt x="1128" y="236" on="1"/>
        <pt x="1050" y="168" on="0"/>
        <pt x="852" y="94" on="0"/>
        <pt x="743" y="94" on="1"/>
        <pt x="634" y="94" on="0"/>
        <pt x="440" y="170" on="0"/>
        <pt x="360" y="238" on="1"/>
        <pt x="135" y="12" on="1"/>
        <pt x="106" y="41" on="1"/>
        <pt x="330" y="266" on="1"/>
        <pt x="254" y="342" on="0"/>
        <pt x="170" y="539" on="0"/>
        <pt x="170" y="647" on="1"/>
        <pt x="170" y="758" on="0"/>
        <pt x="254" y="956" on="0"/>
        <pt x="330" y="1034" on="1"/>
        <pt x="106" y="1260" on="1"/>
        <pt x="135" y="1288" on="1"/>
        <pt x="360" y="1063" on="1"/>
        <pt x="440" y="1131" on="0"/>
        <pt x="635" y="1206" on="0"/>
        <pt x="743" y="1206" on="1"/>
        <pt x="852" y="1206" on="0"/>
        <pt x="1051" y="1133" on="0"/>
        <pt x="1128" y="1065" on="1"/>
        <pt x="1352" y="1288" on="1"/>
        <pt x="1380" y="1260" on="1"/>
        <pt x="1159" y="1036" on="1"/>
        <pt x="1237" y="958" on="0"/>
        <pt x="1323" y="758" on="0"/>
        <pt x="1323" y="647" on="1"/>
      </contour>
      <contour>
        <pt x="211" y="510" on="0"/>
        <pt x="354" y="274" on="0"/>
        <pt x="600" y="135" on="0"/>
        <pt x="743" y="135" on="1"/>
        <pt x="888" y="135" on="0"/>
        <pt x="1137" y="274" on="0"/>
        <pt x="1282" y="510" on="0"/>
        <pt x="1282" y="647" on="1"/>
        <pt x="1282" y="786" on="0"/>
        <pt x="1137" y="1026" on="0"/>
        <pt x="889" y="1165" on="0"/>
        <pt x="743" y="1165" on="1"/>
        <pt x="600" y="1165" on="0"/>
        <pt x="354" y="1026" on="0"/>
        <pt x="211" y="786" on="0"/>
        <pt x="211" y="647" on="1"/>
      </contour>
    </TTGlyph>
    <TTGlyph name="d" xMin="106" yMin="-4" xMax="1143" yMax="1520">
      <contour>
        <pt x="1143" y="0" on="1"/>
        <pt x="1102" y="0" on="1"/>
        <pt x="1102" y="311" on="1"/>
        <pt x="1043" y="166" on="0"/>
        <pt x="791" y="-4" on="0"/>
        <pt x="625" y="-4" on="1"/>
        <pt x="478" y="-4" on="0"/>
        <pt x="240" y="133" on="0"/>
        <pt x="106" y="377" on="0"/>
        <pt x="106" y="528" on="1"/>
        <pt x="106" y="680" on="0"/>
        <pt x="240" y="926" on="0"/>
        <pt x="477" y="1063" on="0"/>
        <pt x="625" y="1063" on="1"/>
        <pt x="791" y="1063" on="0"/>
        <pt x="1042" y="893" on="0"/>
        <pt x="1102" y="748" on="1"/>
        <pt x="1102" y="1520" on="1"/>
        <pt x="1143" y="1520" on="1"/>
      </contour>
      <contour>
        <pt x="762" y="37" on="0"/>
        <pt x="979" y="164" on="0"/>
        <pt x="1102" y="387" on="0"/>
        <pt x="1102" y="528" on="1"/>
        <pt x="1102" y="669" on="0"/>
        <pt x="979" y="895" on="0"/>
        <pt x="762" y="1022" on="0"/>
        <pt x="625" y="1022" on="1"/>
        <pt x="488" y="1022" on="0"/>
        <pt x="270" y="895" on="0"/>
        <pt x="147" y="670" on="0"/>
        <pt x="147" y="528" on="1"/>
        <pt x="147" y="387" on="0"/>
        <pt x="270" y="164" on="0"/>
        <pt x="487" y="37" on="0"/>
        <pt x="625" y="37" on="1"/>
      </contour>
    </TTGlyph>
    <TTGlyph name="dagger" xMin="20" yMin="-397" xMax="963" yMax="1432">
      <contour>
        <pt x="963" y="944" on="1"/>
        <pt x="963" y="903" on="1"/>
        <pt x="512" y="903" on="1"/>
        <pt x="512" y="-397" on="1"/>
        <pt x="471" y="-397" on="1"/>
        <pt x="471" y="903" on="1"/>
        <pt x="20" y="903" on="1"/>
        <pt x="20" y="944" on="1"/>
        <pt x="471" y="944" on="1"/>
        <pt x="471" y="1432" on="1"/>
        <pt x="512" y="1432" on="1"/>
        <pt x="512" y="944" on="1"/>
      </contour>
    </TTGlyph>
    <TTGlyph name="daggerdbl" xMin="20" yMin="-397" xMax="963" yMax="1432">
      <contour>
        <pt x="512" y="207" on="1"/>
        <pt x="963" y="207" on="1"/>
        <pt x="963" y="166" on="1"/>
        <pt x="512" y="166" on="1"/>
        <pt x="512" y="-397" on="1"/>
        <pt x="471" y="-397" on="1"/>
        <pt x="471" y="166" on="1"/>
        <pt x="20" y="166" on="1"/>
        <pt x="20" y="207" on="1"/>
        <pt x="471" y="207" on="1"/>
        <pt x="471" y="903" on="1"/>
        <pt x="20" y="903" on="1"/>
        <pt x="20" y="944" on="1"/>
        <pt x="471" y="944" on="1"/>
        <pt x="471" y="1432" on="1"/>
        <pt x="512" y="1432" on="1"/>
        <pt x="512" y="944" on="1"/>
        <pt x="963" y="944" on="1"/>
        <pt x="963" y="903" on="1"/>
        <pt x="512" y="903" on="1"/>
      </contour>
    </TTGlyph>
    <TTGlyph name="dcaron" xMin="106" yMin="-4" xMax="1411" yMax="1520">
      <contour>
        <pt x="1143" y="1520" on="1"/>
        <pt x="1143" y="0" on="1"/>
        <pt x="1102" y="0" on="1"/>
        <pt x="1102" y="311" on="1"/>
        <pt x="1043" y="166" on="0"/>
        <pt x="791" y="-4" on="0"/>
        <pt x="625" y="-4" on="1"/>
        <pt x="478" y="-4" on="0"/>
        <pt x="240" y="133" on="0"/>
        <pt x="106" y="377" on="0"/>
        <pt x="106" y="528" on="1"/>
        <pt x="106" y="680" on="0"/>
        <pt x="240" y="926" on="0"/>
        <pt x="477" y="1063" on="0"/>
        <pt x="625" y="1063" on="1"/>
        <pt x="791" y="1063" on="0"/>
        <pt x="1042" y="893" on="0"/>
        <pt x="1102" y="748" on="1"/>
        <pt x="1102" y="1520" on="1"/>
      </contour>
      <contour>
        <pt x="1380" y="1432" on="0"/>
        <pt x="1411" y="1399" on="0"/>
        <pt x="1411" y="1376" on="1"/>
        <pt x="1411" y="1356" on="0"/>
        <pt x="1391" y="1325" on="1"/>
        <pt x="1327" y="1229" on="1"/>
        <pt x="1286" y="1229" on="1"/>
        <pt x="1341" y="1325" on="1"/>
        <pt x="1325" y="1331" on="0"/>
        <pt x="1305" y="1360" on="0"/>
        <pt x="1305" y="1378" on="1"/>
        <pt x="1305" y="1401" on="0"/>
        <pt x="1335" y="1432" on="0"/>
        <pt x="1358" y="1432" on="1"/>
      </contour>
      <contour>
        <pt x="762" y="37" on="0"/>
        <pt x="979" y="164" on="0"/>
        <pt x="1102" y="387" on="0"/>
        <pt x="1102" y="528" on="1"/>
        <pt x="1102" y="669" on="0"/>
        <pt x="979" y="895" on="0"/>
        <pt x="762" y="1022" on="0"/>
        <pt x="625" y="1022" on="1"/>
        <pt x="488" y="1022" on="0"/>
        <pt x="270" y="895" on="0"/>
        <pt x="147" y="670" on="0"/>
        <pt x="147" y="528" on="1"/>
        <pt x="147" y="387" on="0"/>
        <pt x="270" y="164" on="0"/>
        <pt x="487" y="37" on="0"/>
        <pt x="625" y="37" on="1"/>
      </contour>
    </TTGlyph>
    <TTGlyph name="dcroat" xMin="106" yMin="-4" xMax="1298" yMax="1520">
      <contour>
        <pt x="1143" y="1346" on="1"/>
        <pt x="1143" y="0" on="1"/>
        <pt x="1102" y="0" on="1"/>
        <pt x="1102" y="311" on="1"/>
        <pt x="1043" y="166" on="0"/>
        <pt x="791" y="-4" on="0"/>
        <pt x="625" y="-4" on="1"/>
        <pt x="478" y="-4" on="0"/>
        <pt x="240" y="133" on="0"/>
        <pt x="106" y="377" on="0"/>
        <pt x="106" y="528" on="1"/>
        <pt x="106" y="680" on="0"/>
        <pt x="240" y="926" on="0"/>
        <pt x="477" y="1063" on="0"/>
        <pt x="625" y="1063" on="1"/>
        <pt x="791" y="1063" on="0"/>
        <pt x="1042" y="893" on="0"/>
        <pt x="1102" y="748" on="1"/>
        <pt x="1102" y="1346" on="1"/>
        <pt x="854" y="1346" on="1"/>
        <pt x="854" y="1386" on="1"/>
        <pt x="1102" y="1386" on="1"/>
        <pt x="1102" y="1520" on="1"/>
        <pt x="1143" y="1520" on="1"/>
        <pt x="1143" y="1386" on="1"/>
        <pt x="1298" y="1386" on="1"/>
        <pt x="1298" y="1346" on="1"/>
      </contour>
      <contour>
        <pt x="762" y="37" on="0"/>
        <pt x="979" y="164" on="0"/>
        <pt x="1102" y="387" on="0"/>
        <pt x="1102" y="528" on="1"/>
        <pt x="1102" y="669" on="0"/>
        <pt x="979" y="895" on="0"/>
        <pt x="762" y="1022" on="0"/>
        <pt x="625" y="1022" on="1"/>
        <pt x="488" y="1022" on="0"/>
        <pt x="270" y="895" on="0"/>
        <pt x="147" y="670" on="0"/>
        <pt x="147" y="528" on="1"/>
        <pt x="147" y="387" on="0"/>
        <pt x="270" y="164" on="0"/>
        <pt x="487" y="37" on="0"/>
        <pt x="625" y="37" on="1"/>
      </contour>
    </TTGlyph>
    <TTGlyph name="degree" xMin="156" yMin="1186" xMax="616" yMax="1630">
      <contour>
        <pt x="446" y="1630" on="0"/>
        <pt x="553" y="1569" on="0"/>
        <pt x="616" y="1466" on="0"/>
        <pt x="616" y="1407" on="1"/>
        <pt x="616" y="1317" on="0"/>
        <pt x="479" y="1186" on="0"/>
        <pt x="385" y="1186" on="1"/>
        <pt x="293" y="1186" on="0"/>
        <pt x="156" y="1319" on="0"/>
        <pt x="156" y="1407" on="1"/>
        <pt x="156" y="1464" on="0"/>
        <pt x="219" y="1569" on="0"/>
        <pt x="326" y="1630" on="0"/>
        <pt x="385" y="1630" on="1"/>
      </contour>
      <contour>
        <pt x="309" y="1589" on="0"/>
        <pt x="197" y="1481" on="0"/>
        <pt x="197" y="1407" on="1"/>
        <pt x="197" y="1333" on="0"/>
        <pt x="307" y="1227" on="0"/>
        <pt x="385" y="1227" on="1"/>
        <pt x="463" y="1227" on="0"/>
        <pt x="575" y="1333" on="0"/>
        <pt x="575" y="1407" on="1"/>
        <pt x="575" y="1481" on="0"/>
        <pt x="463" y="1589" on="0"/>
        <pt x="385" y="1589" on="1"/>
      </contour>
    </TTGlyph>
    <TTGlyph name="dieresis" xMin="151" yMin="1311" xMax="566" yMax="1417">
      <component glyphName="dotaccent" x="154" y="0" flags="0x1000"/>
      <component glyphName="dotaccent" x="-154" y="0" flags="0x1000"/>
    </TTGlyph>
    <TTGlyph name="divide" xMin="82" yMin="244" xMax="901" yMax="1067">
      <contour>
        <pt x="524" y="1067" on="0"/>
        <pt x="555" y="1036" on="0"/>
        <pt x="555" y="1014" on="1"/>
        <pt x="555" y="994" on="0"/>
        <pt x="524" y="961" on="0"/>
        <pt x="502" y="961" on="1"/>
        <pt x="482" y="961" on="0"/>
        <pt x="449" y="993" on="0"/>
        <pt x="449" y="1014" on="1"/>
        <pt x="449" y="1037" on="0"/>
        <pt x="481" y="1067" on="0"/>
        <pt x="502" y="1067" on="1"/>
      </contour>
      <contour>
        <pt x="82" y="635" on="1"/>
        <pt x="82" y="676" on="1"/>
        <pt x="901" y="676" on="1"/>
        <pt x="901" y="635" on="1"/>
      </contour>
      <contour>
        <pt x="524" y="350" on="0"/>
        <pt x="555" y="319" on="0"/>
        <pt x="555" y="297" on="1"/>
        <pt x="555" y="277" on="0"/>
        <pt x="524" y="244" on="0"/>
        <pt x="502" y="244" on="1"/>
        <pt x="482" y="244" on="0"/>
        <pt x="449" y="276" on="0"/>
        <pt x="449" y="297" on="1"/>
        <pt x="449" y="320" on="0"/>
        <pt x="481" y="350" on="0"/>
        <pt x="502" y="350" on="1"/>
      </contour>
    </TTGlyph>
    <TTGlyph name="divisionslash" xMin="8" yMin="-266" xMax="678" yMax="1692">
      <component glyphName="slash" x="0" y="0" flags="0x1000"/>
    </TTGlyph>
    <TTGlyph name="dollar" xMin="84" yMin="-244" xMax="1059" yMax="1647">
      <contour>
        <pt x="762" y="713" on="0"/>
        <pt x="938" y="633" on="0"/>
        <pt x="1059" y="479" on="0"/>
        <pt x="1059" y="352" on="1"/>
        <pt x="1059" y="200" on="0"/>
        <pt x="819" y="8" on="0"/>
        <pt x="614" y="0" on="1"/>
        <pt x="614" y="-244" on="1"/>
        <pt x="573" y="-244" on="1"/>
        <pt x="573" y="0" on="1"/>
        <pt x="438" y="0" on="0"/>
        <pt x="174" y="109" on="0"/>
        <pt x="84" y="201" on="1"/>
        <pt x="113" y="229" on="1"/>
        <pt x="195" y="143" on="0"/>
        <pt x="444" y="41" on="0"/>
        <pt x="573" y="41" on="1"/>
        <pt x="573" y="725" on="1"/>
        <pt x="442" y="764" on="0"/>
        <pt x="272" y="848" on="0"/>
        <pt x="162" y="995" on="0"/>
        <pt x="162" y="1114" on="1"/>
        <pt x="162" y="1249" on="0"/>
        <pt x="385" y="1419" on="0"/>
        <pt x="573" y="1430" on="1"/>
        <pt x="573" y="1647" on="1"/>
        <pt x="614" y="1647" on="1"/>
        <pt x="614" y="1432" on="1"/>
        <pt x="618" y="1432" on="1"/>
        <pt x="718" y="1432" on="0"/>
        <pt x="926" y="1374" on="0"/>
        <pt x="999" y="1327" on="1"/>
        <pt x="979" y="1294" on="1"/>
        <pt x="909" y="1339" on="0"/>
        <pt x="715" y="1391" on="0"/>
        <pt x="618" y="1391" on="1"/>
        <pt x="614" y="1391" on="1"/>
        <pt x="614" y="756" on="1"/>
      </contour>
      <contour>
        <pt x="203" y="1012" on="0"/>
        <pt x="301" y="881" on="0"/>
        <pt x="455" y="805" on="0"/>
        <pt x="573" y="768" on="1"/>
        <pt x="573" y="1389" on="1"/>
        <pt x="403" y="1379" on="0"/>
        <pt x="203" y="1231" on="0"/>
        <pt x="203" y="1114" on="1"/>
      </contour>
      <contour>
        <pt x="1018" y="461" on="0"/>
        <pt x="909" y="598" on="0"/>
        <pt x="745" y="674" on="0"/>
        <pt x="614" y="713" on="1"/>
        <pt x="614" y="41" on="1"/>
        <pt x="800" y="49" on="0"/>
        <pt x="1018" y="219" on="0"/>
        <pt x="1018" y="352" on="1"/>
      </contour>
    </TTGlyph>
    <TTGlyph name="dotaccent" xMin="305" yMin="1311" xMax="412" yMax="1417">
      <contour>
        <pt x="381" y="1417" on="0"/>
        <pt x="412" y="1386" on="0"/>
        <pt x="412" y="1364" on="1"/>
        <pt x="412" y="1344" on="0"/>
        <pt x="381" y="1311" on="0"/>
        <pt x="358" y="1311" on="1"/>
        <pt x="338" y="1311" on="0"/>
        <pt x="305" y="1343" on="0"/>
        <pt x="305" y="1364" on="1"/>
        <pt x="305" y="1387" on="0"/>
        <pt x="338" y="1417" on="0"/>
        <pt x="358" y="1417" on="1"/>
      </contour>
    </TTGlyph>
    <TTGlyph name="dotlessi" xMin="225" yMin="0" xMax="266" yMax="1059">
      <contour>
        <pt x="225" y="0" on="1"/>
        <pt x="225" y="1059" on="1"/>
        <pt x="266" y="1059" on="1"/>
        <pt x="266" y="0" on="1"/>
      </contour>
    </TTGlyph>
    <TTGlyph name="dotlessj" xMin="-190" yMin="-395" xMax="256" yMax="1059">
      <contour>
        <pt x="256" y="-227" on="0"/>
        <pt x="137" y="-395" on="0"/>
        <pt x="23" y="-395" on="1"/>
        <pt x="-88" y="-395" on="0"/>
        <pt x="-190" y="-319" on="1"/>
        <pt x="-166" y="-287" on="1"/>
        <pt x="-82" y="-355" on="0"/>
        <pt x="23" y="-354" on="1"/>
        <pt x="117" y="-354" on="0"/>
        <pt x="215" y="-207" on="0"/>
        <pt x="215" y="-63" on="1"/>
        <pt x="215" y="1059" on="1"/>
        <pt x="256" y="1059" on="1"/>
        <pt x="256" y="-63" on="1"/>
      </contour>
    </TTGlyph>
    <TTGlyph name="e" xMin="106" yMin="0" xMax="1108" yMax="1059">
      <contour>
        <pt x="731" y="41" on="0"/>
        <pt x="926" y="121" on="0"/>
        <pt x="991" y="195" on="1"/>
        <pt x="1020" y="166" on="1"/>
        <pt x="946" y="86" on="0"/>
        <pt x="737" y="0" on="0"/>
        <pt x="616" y="0" on="1"/>
        <pt x="471" y="0" on="0"/>
        <pt x="240" y="137" on="0"/>
        <pt x="106" y="379" on="0"/>
        <pt x="106" y="530" on="1"/>
        <pt x="106" y="682" on="0"/>
        <pt x="240" y="924" on="0"/>
        <pt x="471" y="1059" on="0"/>
        <pt x="616" y="1059" on="1"/>
        <pt x="761" y="1059" on="0"/>
        <pt x="985" y="924" on="0"/>
        <pt x="1108" y="682" on="0"/>
        <pt x="1108" y="530" on="1"/>
        <pt x="147" y="530" on="1"/>
        <pt x="147" y="389" on="0"/>
        <pt x="268" y="166" on="0"/>
        <pt x="481" y="41" on="0"/>
        <pt x="616" y="41" on="1"/>
      </contour>
      <contour>
        <pt x="489" y="1018" on="0"/>
        <pt x="283" y="905" on="0"/>
        <pt x="158" y="702" on="0"/>
        <pt x="150" y="571" on="1"/>
        <pt x="1067" y="571" on="1"/>
        <pt x="1053" y="772" on="0"/>
        <pt x="811" y="1018" on="0"/>
        <pt x="616" y="1018" on="1"/>
      </contour>
    </TTGlyph>
    <TTGlyph name="eacute" xMin="106" yMin="0" xMax="1108" yMax="1513">
      <component glyphName="e" x="0" y="0" flags="0x1000"/>
      <component glyphName="acute" x="344" y="0" flags="0x1000"/>
    </TTGlyph>
    <TTGlyph name="ecaron" xMin="106" yMin="0" xMax="1108" yMax="1503">
      <component glyphName="e" x="0" y="0" flags="0x1000"/>
      <component glyphName="caron" x="246" y="0" flags="0x1000"/>
    </TTGlyph>
    <TTGlyph name="ecircumflex" xMin="106" yMin="0" xMax="1108" yMax="1503">
      <component glyphName="e" x="0" y="0" flags="0x1000"/>
      <component glyphName="circumflex" x="246" y="0" flags="0x1000"/>
    </TTGlyph>
    <TTGlyph name="edieresis" xMin="106" yMin="0" xMax="1108" yMax="1417">
      <contour>
        <pt x="430" y="1311" on="0"/>
        <pt x="397" y="1343" on="0"/>
        <pt x="397" y="1364" on="1"/>
        <pt x="397" y="1387" on="0"/>
        <pt x="430" y="1417" on="0"/>
        <pt x="451" y="1417" on="1"/>
        <pt x="474" y="1417" on="0"/>
        <pt x="504" y="1386" on="0"/>
        <pt x="504" y="1364" on="1"/>
        <pt x="504" y="1344" on="0"/>
        <pt x="473" y="1311" on="0"/>
        <pt x="451" y="1311" on="1"/>
      </contour>
      <contour>
        <pt x="737" y="1311" on="0"/>
        <pt x="705" y="1343" on="0"/>
        <pt x="705" y="1364" on="1"/>
        <pt x="705" y="1387" on="0"/>
        <pt x="737" y="1417" on="0"/>
        <pt x="758" y="1417" on="1"/>
        <pt x="781" y="1417" on="0"/>
        <pt x="811" y="1386" on="0"/>
        <pt x="811" y="1364" on="1"/>
        <pt x="811" y="1344" on="0"/>
        <pt x="780" y="1311" on="0"/>
        <pt x="758" y="1311" on="1"/>
      </contour>
      <contour>
        <pt x="731" y="41" on="0"/>
        <pt x="926" y="121" on="0"/>
        <pt x="991" y="195" on="1"/>
        <pt x="1020" y="166" on="1"/>
        <pt x="946" y="86" on="0"/>
        <pt x="737" y="0" on="0"/>
        <pt x="616" y="0" on="1"/>
        <pt x="471" y="0" on="0"/>
        <pt x="240" y="137" on="0"/>
        <pt x="106" y="379" on="0"/>
        <pt x="106" y="530" on="1"/>
        <pt x="106" y="682" on="0"/>
        <pt x="240" y="924" on="0"/>
        <pt x="471" y="1059" on="0"/>
        <pt x="616" y="1059" on="1"/>
        <pt x="761" y="1059" on="0"/>
        <pt x="985" y="924" on="0"/>
        <pt x="1108" y="682" on="0"/>
        <pt x="1108" y="530" on="1"/>
        <pt x="147" y="530" on="1"/>
        <pt x="147" y="389" on="0"/>
        <pt x="268" y="166" on="0"/>
        <pt x="481" y="41" on="0"/>
        <pt x="616" y="41" on="1"/>
      </contour>
      <contour>
        <pt x="489" y="1018" on="0"/>
        <pt x="283" y="905" on="0"/>
        <pt x="158" y="702" on="0"/>
        <pt x="150" y="571" on="1"/>
        <pt x="1067" y="571" on="1"/>
        <pt x="1053" y="772" on="0"/>
        <pt x="811" y="1018" on="0"/>
        <pt x="616" y="1018" on="1"/>
      </contour>
    </TTGlyph>
    <TTGlyph name="edotaccent" xMin="106" yMin="0" xMax="1108" yMax="1417">
      <component glyphName="e" x="0" y="0" flags="0x1000"/>
      <component glyphName="dotaccent" x="246" y="0" flags="0x1000"/>
    </TTGlyph>
    <TTGlyph name="egrave" xMin="106" yMin="0" xMax="1108" yMax="1513">
      <component glyphName="e" x="0" y="0" flags="0x1000"/>
      <component glyphName="grave" x="145" y="0" flags="0x1000"/>
    </TTGlyph>
    <TTGlyph name="eight" xMin="123" yMin="0" xMax="1108" yMax="1432">
      <contour>
        <pt x="815" y="1432" on="0"/>
        <pt x="1042" y="1251" on="0"/>
        <pt x="1042" y="1092" on="1"/>
        <pt x="1042" y="969" on="0"/>
        <pt x="905" y="805" on="0"/>
        <pt x="778" y="766" on="1"/>
        <pt x="936" y="729" on="0"/>
        <pt x="1108" y="541" on="0"/>
        <pt x="1108" y="397" on="1"/>
        <pt x="1108" y="209" on="0"/>
        <pt x="846" y="0" on="0"/>
        <pt x="616" y="0" on="1"/>
        <pt x="385" y="0" on="0"/>
        <pt x="123" y="209" on="0"/>
        <pt x="123" y="397" on="1"/>
        <pt x="123" y="540" on="0"/>
        <pt x="295" y="729" on="0"/>
        <pt x="453" y="766" on="1"/>
        <pt x="326" y="805" on="0"/>
        <pt x="188" y="969" on="0"/>
        <pt x="188" y="1092" on="1"/>
        <pt x="188" y="1252" on="0"/>
        <pt x="418" y="1432" on="0"/>
        <pt x="616" y="1432" on="1"/>
      </contour>
      <contour>
        <pt x="436" y="1391" on="0"/>
        <pt x="229" y="1229" on="0"/>
        <pt x="229" y="1087" on="1"/>
        <pt x="229" y="944" on="0"/>
        <pt x="436" y="780" on="0"/>
        <pt x="616" y="780" on="1"/>
        <pt x="796" y="780" on="0"/>
        <pt x="1001" y="944" on="0"/>
        <pt x="1001" y="1087" on="1"/>
        <pt x="1001" y="1228" on="0"/>
        <pt x="797" y="1391" on="0"/>
        <pt x="616" y="1391" on="1"/>
      </contour>
      <contour>
        <pt x="406" y="739" on="0"/>
        <pt x="164" y="559" on="0"/>
        <pt x="164" y="401" on="1"/>
        <pt x="164" y="233" on="0"/>
        <pt x="403" y="41" on="0"/>
        <pt x="616" y="41" on="1"/>
        <pt x="825" y="41" on="0"/>
        <pt x="1067" y="231" on="0"/>
        <pt x="1067" y="399" on="1"/>
        <pt x="1067" y="557" on="0"/>
        <pt x="825" y="739" on="0"/>
        <pt x="614" y="739" on="1"/>
      </contour>
    </TTGlyph>
    <TTGlyph name="eight.dnom" xMin="102" yMin="0" xMax="702" yMax="831">
      <contour>
        <pt x="524" y="831" on="0"/>
        <pt x="664" y="725" on="0"/>
        <pt x="664" y="631" on="1"/>
        <pt x="664" y="494" on="0"/>
        <pt x="510" y="444" on="1"/>
        <pt x="602" y="421" on="0"/>
        <pt x="702" y="313" on="0"/>
        <pt x="702" y="231" on="1"/>
        <pt x="702" y="120" on="0"/>
        <pt x="545" y="0" on="0"/>
        <pt x="403" y="0" on="1"/>
        <pt x="262" y="0" on="0"/>
        <pt x="102" y="121" on="0"/>
        <pt x="102" y="231" on="1"/>
        <pt x="102" y="313" on="0"/>
        <pt x="205" y="422" on="0"/>
        <pt x="297" y="444" on="1"/>
        <pt x="141" y="493" on="0"/>
        <pt x="141" y="633" on="1"/>
        <pt x="141" y="727" on="0"/>
        <pt x="281" y="831" on="0"/>
        <pt x="403" y="831" on="1"/>
      </contour>
      <contour>
        <pt x="299" y="797" on="0"/>
        <pt x="180" y="707" on="0"/>
        <pt x="180" y="629" on="1"/>
        <pt x="180" y="549" on="0"/>
        <pt x="299" y="459" on="0"/>
        <pt x="403" y="459" on="1"/>
        <pt x="505" y="459" on="0"/>
        <pt x="625" y="549" on="0"/>
        <pt x="625" y="629" on="1"/>
        <pt x="625" y="707" on="0"/>
        <pt x="506" y="797" on="0"/>
        <pt x="403" y="797" on="1"/>
      </contour>
      <contour>
        <pt x="283" y="422" on="0"/>
        <pt x="143" y="322" on="0"/>
        <pt x="143" y="236" on="1"/>
        <pt x="143" y="142" on="0"/>
        <pt x="281" y="37" on="0"/>
        <pt x="403" y="37" on="1"/>
        <pt x="524" y="37" on="0"/>
        <pt x="662" y="141" on="0"/>
        <pt x="662" y="233" on="1"/>
        <pt x="662" y="321" on="0"/>
        <pt x="524" y="422" on="0"/>
        <pt x="401" y="422" on="1"/>
      </contour>
    </TTGlyph>
    <TTGlyph name="eight.numr" xMin="102" yMin="600" xMax="702" yMax="1432">
      <contour>
        <pt x="524" y="1432" on="0"/>
        <pt x="664" y="1325" on="0"/>
        <pt x="664" y="1231" on="1"/>
        <pt x="664" y="1094" on="0"/>
        <pt x="510" y="1044" on="1"/>
        <pt x="602" y="1021" on="0"/>
        <pt x="702" y="913" on="0"/>
        <pt x="702" y="831" on="1"/>
        <pt x="702" y="720" on="0"/>
        <pt x="545" y="600" on="0"/>
        <pt x="403" y="600" on="1"/>
        <pt x="262" y="600" on="0"/>
        <pt x="102" y="721" on="0"/>
        <pt x="102" y="831" on="1"/>
        <pt x="102" y="913" on="0"/>
        <pt x="205" y="1022" on="0"/>
        <pt x="297" y="1044" on="1"/>
        <pt x="141" y="1093" on="0"/>
        <pt x="141" y="1233" on="1"/>
        <pt x="141" y="1327" on="0"/>
        <pt x="281" y="1432" on="0"/>
        <pt x="403" y="1432" on="1"/>
      </contour>
      <contour>
        <pt x="299" y="1397" on="0"/>
        <pt x="180" y="1307" on="0"/>
        <pt x="180" y="1229" on="1"/>
        <pt x="180" y="1149" on="0"/>
        <pt x="299" y="1059" on="0"/>
        <pt x="403" y="1059" on="1"/>
        <pt x="505" y="1059" on="0"/>
        <pt x="625" y="1149" on="0"/>
        <pt x="625" y="1229" on="1"/>
        <pt x="625" y="1307" on="0"/>
        <pt x="506" y="1397" on="0"/>
        <pt x="403" y="1397" on="1"/>
      </contour>
      <contour>
        <pt x="283" y="1022" on="0"/>
        <pt x="143" y="922" on="0"/>
        <pt x="143" y="836" on="1"/>
        <pt x="143" y="742" on="0"/>
        <pt x="281" y="637" on="0"/>
        <pt x="403" y="637" on="1"/>
        <pt x="524" y="637" on="0"/>
        <pt x="662" y="741" on="0"/>
        <pt x="662" y="834" on="1"/>
        <pt x="662" y="922" on="0"/>
        <pt x="524" y="1022" on="0"/>
        <pt x="401" y="1022" on="1"/>
      </contour>
    </TTGlyph>
    <TTGlyph name="ellipsis" xMin="121" yMin="-14" xMax="882" yMax="92">
      <component glyphName="period" x="0" y="0" flags="0x1000"/>
      <component glyphName="period" x="328" y="0" flags="0x1000"/>
      <component glyphName="period" x="655" y="0" flags="0x1000"/>
    </TTGlyph>
    <TTGlyph name="emacron" xMin="106" yMin="0" xMax="1108" yMax="1386">
      <component glyphName="e" x="0" y="0" flags="0x1000"/>
      <component glyphName="macron" x="246" y="0" flags="0x1000"/>
    </TTGlyph>
    <TTGlyph name="emdash" xMin="0" yMin="492" xMax="1556" yMax="532">
      <contour>
        <pt x="0" y="492" on="1"/>
        <pt x="0" y="532" on="1"/>
        <pt x="1556" y="532" on="1"/>
        <pt x="1556" y="492" on="1"/>
      </contour>
    </TTGlyph>
    <TTGlyph name="endash" xMin="0" yMin="492" xMax="819" yMax="532">
      <contour>
        <pt x="0" y="492" on="1"/>
        <pt x="0" y="532" on="1"/>
        <pt x="819" y="532" on="1"/>
        <pt x="819" y="492" on="1"/>
      </contour>
    </TTGlyph>
    <TTGlyph name="eogonek" xMin="106" yMin="-408" xMax="1108" yMax="1059">
      <contour>
        <pt x="762" y="1059" on="0"/>
        <pt x="985" y="924" on="0"/>
        <pt x="1108" y="682" on="0"/>
        <pt x="1108" y="530" on="1"/>
        <pt x="147" y="530" on="1"/>
        <pt x="147" y="389" on="0"/>
        <pt x="268" y="166" on="0"/>
        <pt x="481" y="41" on="0"/>
        <pt x="616" y="41" on="1"/>
        <pt x="731" y="41" on="0"/>
        <pt x="926" y="121" on="0"/>
        <pt x="991" y="195" on="1"/>
        <pt x="1020" y="166" on="1"/>
        <pt x="905" y="19" on="0"/>
        <pt x="823" y="-182" on="0"/>
        <pt x="823" y="-268" on="1"/>
        <pt x="823" y="-315" on="0"/>
        <pt x="874" y="-367" on="0"/>
        <pt x="913" y="-367" on="1"/>
        <pt x="970" y="-367" on="0"/>
        <pt x="1034" y="-297" on="1"/>
        <pt x="1063" y="-326" on="1"/>
        <pt x="1032" y="-361" on="0"/>
        <pt x="952" y="-408" on="0"/>
        <pt x="913" y="-408" on="1"/>
        <pt x="858" y="-408" on="0"/>
        <pt x="782" y="-330" on="0"/>
        <pt x="782" y="-268" on="1"/>
        <pt x="782" y="-192" on="0"/>
        <pt x="854" y="-12" on="0"/>
        <pt x="936" y="104" on="1"/>
        <pt x="797" y="0" on="0"/>
        <pt x="616" y="0" on="1"/>
        <pt x="471" y="0" on="0"/>
        <pt x="240" y="137" on="0"/>
        <pt x="106" y="379" on="0"/>
        <pt x="106" y="530" on="1"/>
        <pt x="106" y="682" on="0"/>
        <pt x="240" y="924" on="0"/>
        <pt x="471" y="1059" on="0"/>
        <pt x="616" y="1059" on="1"/>
      </contour>
      <contour>
        <pt x="489" y="1018" on="0"/>
        <pt x="283" y="905" on="0"/>
        <pt x="158" y="702" on="0"/>
        <pt x="150" y="571" on="1"/>
        <pt x="1067" y="571" on="1"/>
        <pt x="1053" y="772" on="0"/>
        <pt x="811" y="1018" on="0"/>
        <pt x="616" y="1018" on="1"/>
      </contour>
    </TTGlyph>
    <TTGlyph name="equal" xMin="82" yMin="430" xMax="901" yMax="881">
      <contour>
        <pt x="82" y="840" on="1"/>
        <pt x="82" y="881" on="1"/>
        <pt x="901" y="881" on="1"/>
        <pt x="901" y="840" on="1"/>
      </contour>
      <contour>
        <pt x="82" y="430" on="1"/>
        <pt x="82" y="471" on="1"/>
        <pt x="901" y="471" on="1"/>
        <pt x="901" y="430" on="1"/>
      </contour>
    </TTGlyph>
    <TTGlyph name="estimated" xMin="143" yMin="37" xMax="1516" yMax="1272">
      <contour>
        <pt x="393" y="639" on="0"/>
        <pt x="393" y="631" on="1"/>
        <pt x="393" y="295" on="1"/>
        <pt x="393" y="277" on="0"/>
        <pt x="410" y="256" on="1"/>
        <pt x="490" y="170" on="0"/>
        <pt x="709" y="74" on="0"/>
        <pt x="831" y="74" on="1"/>
        <pt x="960" y="74" on="0"/>
        <pt x="1192" y="182" on="0"/>
        <pt x="1272" y="276" on="1"/>
        <pt x="1372" y="276" on="1"/>
        <pt x="1278" y="165" on="0"/>
        <pt x="991" y="37" on="0"/>
        <pt x="829" y="37" on="1"/>
        <pt x="643" y="37" on="0"/>
        <pt x="328" y="203" on="0"/>
        <pt x="143" y="485" on="0"/>
        <pt x="143" y="653" on="1"/>
        <pt x="143" y="821" on="0"/>
        <pt x="328" y="1106" on="0"/>
        <pt x="643" y="1272" on="0"/>
        <pt x="829" y="1272" on="1"/>
        <pt x="1015" y="1272" on="0"/>
        <pt x="1331" y="1106" on="0"/>
        <pt x="1516" y="821" on="0"/>
        <pt x="1516" y="653" on="1"/>
        <pt x="1516" y="639" on="1"/>
        <pt x="403" y="639" on="1"/>
      </contour>
      <contour>
        <pt x="1265" y="1043" on="0"/>
        <pt x="1247" y="1061" on="1"/>
        <pt x="1165" y="1143" on="0"/>
        <pt x="950" y="1235" on="0"/>
        <pt x="831" y="1235" on="1"/>
        <pt x="710" y="1235" on="0"/>
        <pt x="494" y="1139" on="0"/>
        <pt x="412" y="1055" on="1"/>
        <pt x="394" y="1037" on="0"/>
        <pt x="393" y="1014" on="1"/>
        <pt x="393" y="682" on="1"/>
        <pt x="393" y="672" on="0"/>
        <pt x="403" y="672" on="1"/>
        <pt x="1255" y="672" on="1"/>
        <pt x="1265" y="672" on="0"/>
        <pt x="1266" y="682" on="1"/>
        <pt x="1266" y="1020" on="1"/>
      </contour>
    </TTGlyph>
    <TTGlyph name="eth" xMin="123" yMin="0" xMax="1057" yMax="1520">
      <contour>
        <pt x="848" y="1104" on="0"/>
        <pt x="1057" y="676" on="0"/>
        <pt x="1057" y="465" on="1"/>
        <pt x="1057" y="326" on="0"/>
        <pt x="938" y="115" on="0"/>
        <pt x="721" y="0" on="0"/>
        <pt x="575" y="0" on="1"/>
        <pt x="368" y="0" on="0"/>
        <pt x="123" y="248" on="0"/>
        <pt x="123" y="455" on="1"/>
        <pt x="123" y="588" on="0"/>
        <pt x="238" y="788" on="0"/>
        <pt x="449" y="897" on="0"/>
        <pt x="588" y="897" on="1"/>
        <pt x="731" y="897" on="0"/>
        <pt x="961" y="760" on="0"/>
        <pt x="1010" y="645" on="1"/>
        <pt x="965" y="811" on="0"/>
        <pt x="758" y="1137" on="0"/>
        <pt x="612" y="1270" on="1"/>
        <pt x="338" y="1192" on="1"/>
        <pt x="328" y="1231" on="1"/>
        <pt x="575" y="1303" on="1"/>
        <pt x="458" y="1407" on="0"/>
        <pt x="319" y="1483" on="1"/>
        <pt x="344" y="1520" on="1"/>
        <pt x="504" y="1428" on="0"/>
        <pt x="623" y="1317" on="1"/>
        <pt x="864" y="1386" on="1"/>
        <pt x="874" y="1346" on="1"/>
        <pt x="659" y="1284" on="1"/>
      </contour>
      <contour>
        <pt x="782" y="41" on="0"/>
        <pt x="1016" y="260" on="0"/>
        <pt x="1016" y="442" on="1"/>
        <pt x="1016" y="630" on="0"/>
        <pt x="782" y="856" on="0"/>
        <pt x="588" y="856" on="1"/>
        <pt x="395" y="856" on="0"/>
        <pt x="164" y="641" on="0"/>
        <pt x="164" y="459" on="1"/>
        <pt x="164" y="269" on="0"/>
        <pt x="393" y="41" on="0"/>
        <pt x="586" y="41" on="1"/>
      </contour>
    </TTGlyph>
    <TTGlyph name="exclam" xMin="143" yMin="-14" xMax="250" yMax="1397">
      <contour>
        <pt x="176" y="385" on="1"/>
        <pt x="176" y="1397" on="1"/>
        <pt x="217" y="1397" on="1"/>
        <pt x="217" y="385" on="1"/>
      </contour>
      <contour>
        <pt x="219" y="92" on="0"/>
        <pt x="250" y="61" on="0"/>
        <pt x="250" y="39" on="1"/>
        <pt x="250" y="19" on="0"/>
        <pt x="219" y="-14" on="0"/>
        <pt x="197" y="-14" on="1"/>
        <pt x="177" y="-14" on="0"/>
        <pt x="143" y="18" on="0"/>
        <pt x="143" y="39" on="1"/>
        <pt x="143" y="62" on="0"/>
        <pt x="176" y="92" on="0"/>
        <pt x="197" y="92" on="1"/>
      </contour>
    </TTGlyph>
    <TTGlyph name="exclamdown" xMin="143" yMin="-340" xMax="250" yMax="1071">
      <component glyphName="exclam" x="393" y="1057" scale="-1.0" flags="0x1000"/>
    </TTGlyph>
    <TTGlyph name="f" xMin="106" yMin="0" xMax="748" yMax="1520">
      <contour>
        <pt x="426" y="1479" on="0"/>
        <pt x="281" y="1313" on="0"/>
        <pt x="281" y="1188" on="1"/>
        <pt x="281" y="1038" on="1"/>
        <pt x="625" y="1038" on="1"/>
        <pt x="625" y="997" on="1"/>
        <pt x="281" y="997" on="1"/>
        <pt x="281" y="0" on="1"/>
        <pt x="240" y="0" on="1"/>
        <pt x="240" y="997" on="1"/>
        <pt x="106" y="997" on="1"/>
        <pt x="106" y="1038" on="1"/>
        <pt x="240" y="1038" on="1"/>
        <pt x="240" y="1188" on="1"/>
        <pt x="240" y="1280" on="0"/>
        <pt x="319" y="1432" on="0"/>
        <pt x="455" y="1520" on="0"/>
        <pt x="535" y="1520" on="1"/>
        <pt x="590" y="1520" on="0"/>
        <pt x="705" y="1479" on="0"/>
        <pt x="748" y="1444" on="1"/>
        <pt x="723" y="1411" on="1"/>
        <pt x="635" y="1479" on="0"/>
        <pt x="535" y="1479" on="1"/>
      </contour>
    </TTGlyph>
    <TTGlyph name="fi" xMin="106" yMin="0" xMax="903" yMax="1540">
      <contour>
        <pt x="240" y="1300" on="0"/>
        <pt x="319" y="1452" on="0"/>
        <pt x="455" y="1540" on="0"/>
        <pt x="535" y="1540" on="1"/>
        <pt x="584" y="1540" on="0"/>
        <pt x="684" y="1507" on="0"/>
        <pt x="723" y="1481" on="1"/>
        <pt x="723" y="1432" on="1"/>
        <pt x="635" y="1500" on="0"/>
        <pt x="535" y="1499" on="1"/>
        <pt x="426" y="1499" on="0"/>
        <pt x="281" y="1333" on="0"/>
        <pt x="281" y="1208" on="1"/>
        <pt x="281" y="1059" on="1"/>
        <pt x="625" y="1059" on="1"/>
        <pt x="625" y="1018" on="1"/>
        <pt x="281" y="1018" on="1"/>
        <pt x="281" y="0" on="1"/>
        <pt x="240" y="0" on="1"/>
        <pt x="240" y="1018" on="1"/>
        <pt x="106" y="1018" on="1"/>
        <pt x="106" y="1059" on="1"/>
        <pt x="240" y="1059" on="1"/>
        <pt x="240" y="1208" on="1"/>
      </contour>
      <contour>
        <pt x="872" y="1417" on="0"/>
        <pt x="903" y="1386" on="0"/>
        <pt x="903" y="1364" on="1"/>
        <pt x="903" y="1344" on="0"/>
        <pt x="872" y="1311" on="0"/>
        <pt x="850" y="1311" on="1"/>
        <pt x="830" y="1311" on="0"/>
        <pt x="797" y="1343" on="0"/>
        <pt x="797" y="1364" on="1"/>
        <pt x="797" y="1387" on="0"/>
        <pt x="829" y="1417" on="0"/>
        <pt x="850" y="1417" on="1"/>
      </contour>
      <contour>
        <pt x="870" y="1059" on="1"/>
        <pt x="870" y="0" on="1"/>
        <pt x="829" y="0" on="1"/>
        <pt x="829" y="1059" on="1"/>
      </contour>
    </TTGlyph>
    <TTGlyph name="firsttonechinese" xMin="137" yMin="1346" xMax="582" yMax="1386">
      <component glyphName="macron" x="0" y="0" flags="0x1000"/>
    </TTGlyph>
    <TTGlyph name="five" xMin="92" yMin="4" xMax="997" yMax="1432">
      <contour>
        <pt x="223" y="1391" on="1"/>
        <pt x="223" y="797" on="1"/>
        <pt x="299" y="824" on="0"/>
        <pt x="469" y="854" on="0"/>
        <pt x="537" y="854" on="1"/>
        <pt x="748" y="854" on="0"/>
        <pt x="997" y="639" on="0"/>
        <pt x="997" y="459" on="1"/>
        <pt x="997" y="252" on="0"/>
        <pt x="745" y="4" on="0"/>
        <pt x="532" y="4" on="1"/>
        <pt x="426" y="4" on="0"/>
        <pt x="188" y="80" on="0"/>
        <pt x="92" y="143" on="1"/>
        <pt x="113" y="176" on="1"/>
        <pt x="205" y="117" on="0"/>
        <pt x="434" y="45" on="0"/>
        <pt x="532" y="45" on="1"/>
        <pt x="727" y="45" on="0"/>
        <pt x="956" y="270" on="0"/>
        <pt x="956" y="459" on="1"/>
        <pt x="956" y="621" on="0"/>
        <pt x="727" y="813" on="0"/>
        <pt x="537" y="813" on="1"/>
        <pt x="459" y="813" on="0"/>
        <pt x="264" y="772" on="0"/>
        <pt x="182" y="739" on="1"/>
        <pt x="182" y="1432" on="1"/>
        <pt x="946" y="1432" on="1"/>
        <pt x="946" y="1391" on="1"/>
      </contour>
    </TTGlyph>
    <TTGlyph name="five.dnom" xMin="82" yMin="2" xMax="637" yMax="831">
      <contour>
        <pt x="180" y="467" on="1"/>
        <pt x="221" y="481" on="0"/>
        <pt x="319" y="498" on="0"/>
        <pt x="356" y="498" on="1"/>
        <pt x="485" y="498" on="0"/>
        <pt x="637" y="373" on="0"/>
        <pt x="637" y="268" on="1"/>
        <pt x="637" y="147" on="0"/>
        <pt x="483" y="2" on="0"/>
        <pt x="352" y="2" on="1"/>
        <pt x="289" y="2" on="0"/>
        <pt x="141" y="47" on="0"/>
        <pt x="82" y="84" on="1"/>
        <pt x="102" y="119" on="1"/>
        <pt x="155" y="82" on="0"/>
        <pt x="291" y="39" on="0"/>
        <pt x="350" y="39" on="1"/>
        <pt x="463" y="39" on="0"/>
        <pt x="594" y="162" on="0"/>
        <pt x="594" y="266" on="1"/>
        <pt x="594" y="354" on="0"/>
        <pt x="463" y="461" on="0"/>
        <pt x="352" y="461" on="1"/>
        <pt x="305" y="461" on="0"/>
        <pt x="184" y="440" on="0"/>
        <pt x="137" y="422" on="1"/>
        <pt x="137" y="831" on="1"/>
        <pt x="606" y="831" on="1"/>
        <pt x="606" y="793" on="1"/>
        <pt x="180" y="793" on="1"/>
      </contour>
    </TTGlyph>
    <TTGlyph name="five.numr" xMin="82" yMin="602" xMax="637" yMax="1432">
      <contour>
        <pt x="180" y="1067" on="1"/>
        <pt x="221" y="1081" on="0"/>
        <pt x="319" y="1098" on="0"/>
        <pt x="356" y="1098" on="1"/>
        <pt x="485" y="1098" on="0"/>
        <pt x="637" y="973" on="0"/>
        <pt x="637" y="868" on="1"/>
        <pt x="637" y="747" on="0"/>
        <pt x="483" y="602" on="0"/>
        <pt x="352" y="602" on="1"/>
        <pt x="289" y="602" on="0"/>
        <pt x="141" y="647" on="0"/>
        <pt x="82" y="684" on="1"/>
        <pt x="102" y="719" on="1"/>
        <pt x="155" y="682" on="0"/>
        <pt x="291" y="639" on="0"/>
        <pt x="350" y="639" on="1"/>
        <pt x="463" y="639" on="0"/>
        <pt x="594" y="762" on="0"/>
        <pt x="594" y="866" on="1"/>
        <pt x="594" y="954" on="0"/>
        <pt x="463" y="1061" on="0"/>
        <pt x="352" y="1061" on="1"/>
        <pt x="305" y="1061" on="0"/>
        <pt x="184" y="1040" on="0"/>
        <pt x="137" y="1022" on="1"/>
        <pt x="137" y="1432" on="1"/>
        <pt x="606" y="1432" on="1"/>
        <pt x="606" y="1393" on="1"/>
        <pt x="180" y="1393" on="1"/>
      </contour>
    </TTGlyph>
    <TTGlyph name="fiveeighths" xMin="82" yMin="0" xMax="1583" yMax="1432">
      <component glyphName="five.numr" x="0" y="0" flags="0x1000"/>
      <component glyphName="fraction" x="799" y="0" flags="0x1000"/>
      <component glyphName="eight.dnom" x="881" y="0" flags="0x1000"/>
    </TTGlyph>
    <TTGlyph name="fl" xMin="106" yMin="0" xMax="881" yMax="1540">
      <contour>
        <pt x="240" y="1300" on="0"/>
        <pt x="319" y="1452" on="0"/>
        <pt x="455" y="1540" on="0"/>
        <pt x="535" y="1540" on="1"/>
        <pt x="584" y="1540" on="0"/>
        <pt x="684" y="1507" on="0"/>
        <pt x="723" y="1481" on="1"/>
        <pt x="723" y="1432" on="1"/>
        <pt x="635" y="1500" on="0"/>
        <pt x="535" y="1499" on="1"/>
        <pt x="426" y="1499" on="0"/>
        <pt x="281" y="1333" on="0"/>
        <pt x="281" y="1208" on="1"/>
        <pt x="281" y="1059" on="1"/>
        <pt x="625" y="1059" on="1"/>
        <pt x="625" y="1018" on="1"/>
        <pt x="281" y="1018" on="1"/>
        <pt x="281" y="0" on="1"/>
        <pt x="240" y="0" on="1"/>
        <pt x="240" y="1018" on="1"/>
        <pt x="106" y="1018" on="1"/>
        <pt x="106" y="1059" on="1"/>
        <pt x="240" y="1059" on="1"/>
        <pt x="240" y="1208" on="1"/>
      </contour>
      <contour>
        <pt x="881" y="0" on="1"/>
        <pt x="840" y="0" on="1"/>
        <pt x="840" y="1520" on="1"/>
        <pt x="881" y="1520" on="1"/>
      </contour>
    </TTGlyph>
    <TTGlyph name="florin" xMin="-264" yMin="-397" xMax="786" yMax="1540">
      <contour>
        <pt x="481" y="1499" on="0"/>
        <pt x="344" y="1352" on="0"/>
        <pt x="330" y="1229" on="1"/>
        <pt x="295" y="946" on="1"/>
        <pt x="641" y="946" on="1"/>
        <pt x="637" y="905" on="1"/>
        <pt x="291" y="905" on="1"/>
        <pt x="170" y="-86" on="1"/>
        <pt x="129" y="-397" on="0"/>
        <pt x="-82" y="-397" on="1"/>
        <pt x="-127" y="-397" on="0"/>
        <pt x="-225" y="-354" on="0"/>
        <pt x="-264" y="-322" on="1"/>
        <pt x="-236" y="-289" on="1"/>
        <pt x="-207" y="-318" on="0"/>
        <pt x="-119" y="-356" on="0"/>
        <pt x="-78" y="-356" on="1"/>
        <pt x="14" y="-356" on="0"/>
        <pt x="113" y="-217" on="0"/>
        <pt x="129" y="-86" on="1"/>
        <pt x="250" y="905" on="1"/>
        <pt x="119" y="905" on="1"/>
        <pt x="123" y="946" on="1"/>
        <pt x="254" y="946" on="1"/>
        <pt x="289" y="1229" on="1"/>
        <pt x="307" y="1370" on="0"/>
        <pt x="467" y="1540" on="0"/>
        <pt x="582" y="1540" on="1"/>
        <pt x="635" y="1540" on="0"/>
        <pt x="745" y="1497" on="0"/>
        <pt x="786" y="1464" on="1"/>
        <pt x="758" y="1432" on="1"/>
        <pt x="721" y="1463" on="0"/>
        <pt x="621" y="1499" on="0"/>
        <pt x="578" y="1499" on="1"/>
      </contour>
    </TTGlyph>
    <TTGlyph name="four" xMin="70" yMin="0" xMax="1032" yMax="1432">
      <contour>
        <pt x="762" y="467" on="1"/>
        <pt x="762" y="924" on="1"/>
        <pt x="803" y="924" on="1"/>
        <pt x="803" y="467" on="1"/>
        <pt x="1032" y="467" on="1"/>
        <pt x="1032" y="426" on="1"/>
        <pt x="803" y="426" on="1"/>
        <pt x="803" y="0" on="1"/>
        <pt x="762" y="0" on="1"/>
        <pt x="762" y="426" on="1"/>
        <pt x="70" y="426" on="1"/>
        <pt x="70" y="477" on="1"/>
        <pt x="618" y="1432" on="1"/>
        <pt x="666" y="1432" on="1"/>
        <pt x="111" y="467" on="1"/>
      </contour>
    </TTGlyph>
    <TTGlyph name="four.dnom" xMin="72" yMin="0" xMax="664" yMax="831">
      <contour>
        <pt x="485" y="535" on="1"/>
        <pt x="528" y="535" on="1"/>
        <pt x="528" y="276" on="1"/>
        <pt x="664" y="276" on="1"/>
        <pt x="664" y="240" on="1"/>
        <pt x="528" y="240" on="1"/>
        <pt x="528" y="0" on="1"/>
        <pt x="485" y="0" on="1"/>
        <pt x="485" y="240" on="1"/>
        <pt x="72" y="240" on="1"/>
        <pt x="72" y="283" on="1"/>
        <pt x="395" y="831" on="1"/>
        <pt x="440" y="831" on="1"/>
        <pt x="115" y="276" on="1"/>
        <pt x="485" y="276" on="1"/>
      </contour>
    </TTGlyph>
    <TTGlyph name="four.numr" xMin="72" yMin="600" xMax="664" yMax="1432">
      <contour>
        <pt x="485" y="1135" on="1"/>
        <pt x="528" y="1135" on="1"/>
        <pt x="528" y="877" on="1"/>
        <pt x="664" y="877" on="1"/>
        <pt x="664" y="840" on="1"/>
        <pt x="528" y="840" on="1"/>
        <pt x="528" y="600" on="1"/>
        <pt x="485" y="600" on="1"/>
        <pt x="485" y="840" on="1"/>
        <pt x="72" y="840" on="1"/>
        <pt x="72" y="883" on="1"/>
        <pt x="395" y="1432" on="1"/>
        <pt x="440" y="1432" on="1"/>
        <pt x="115" y="877" on="1"/>
        <pt x="485" y="877" on="1"/>
      </contour>
    </TTGlyph>
    <TTGlyph name="fraction" xMin="-573" yMin="0" xMax="582" yMax="1432">
      <contour>
        <pt x="528" y="1432" on="1"/>
        <pt x="582" y="1432" on="1"/>
        <pt x="-520" y="0" on="1"/>
        <pt x="-573" y="0" on="1"/>
      </contour>
    </TTGlyph>
    <TTGlyph name="g" xMin="106" yMin="-395" xMax="1098" yMax="1059">
      <contour>
        <pt x="1098" y="121" on="1"/>
        <pt x="1098" y="-35" on="0"/>
        <pt x="973" y="-270" on="0"/>
        <pt x="745" y="-395" on="0"/>
        <pt x="594" y="-395" on="1"/>
        <pt x="467" y="-391" on="0"/>
        <pt x="260" y="-301" on="0"/>
        <pt x="168" y="-211" on="1"/>
        <pt x="197" y="-182" on="1"/>
        <pt x="281" y="-266" on="0"/>
        <pt x="473" y="-350" on="0"/>
        <pt x="594" y="-354" on="1"/>
        <pt x="733" y="-354" on="0"/>
        <pt x="942" y="-240" on="0"/>
        <pt x="1057" y="-23" on="0"/>
        <pt x="1057" y="121" on="1"/>
        <pt x="1057" y="340" on="1"/>
        <pt x="1002" y="201" on="0"/>
        <pt x="758" y="39" on="0"/>
        <pt x="600" y="39" on="1"/>
        <pt x="459" y="39" on="0"/>
        <pt x="233" y="170" on="0"/>
        <pt x="106" y="401" on="0"/>
        <pt x="106" y="547" on="1"/>
        <pt x="106" y="694" on="0"/>
        <pt x="233" y="928" on="0"/>
        <pt x="459" y="1059" on="0"/>
        <pt x="600" y="1059" on="1"/>
        <pt x="758" y="1059" on="0"/>
        <pt x="1001" y="895" on="0"/>
        <pt x="1057" y="756" on="1"/>
        <pt x="1057" y="1059" on="1"/>
        <pt x="1098" y="1059" on="1"/>
      </contour>
      <contour>
        <pt x="731" y="78" on="0"/>
        <pt x="938" y="199" on="0"/>
        <pt x="1057" y="414" on="0"/>
        <pt x="1057" y="547" on="1"/>
        <pt x="1057" y="682" on="0"/>
        <pt x="938" y="897" on="0"/>
        <pt x="731" y="1020" on="0"/>
        <pt x="600" y="1020" on="1"/>
        <pt x="469" y="1020" on="0"/>
        <pt x="262" y="897" on="0"/>
        <pt x="145" y="682" on="0"/>
        <pt x="145" y="547" on="1"/>
        <pt x="145" y="414" on="0"/>
        <pt x="262" y="199" on="0"/>
        <pt x="469" y="78" on="0"/>
        <pt x="600" y="78" on="1"/>
      </contour>
    </TTGlyph>
    <TTGlyph name="gbreve" xMin="106" yMin="-395" xMax="1098" yMax="1487">
      <component glyphName="g" x="0" y="0" flags="0x1000"/>
      <component glyphName="breve" x="287" y="0" flags="0x1000"/>
    </TTGlyph>
    <TTGlyph name="gcommaaccent" xMin="106" yMin="-395" xMax="1098" yMax="1395">
      <component glyphName="g" x="0" y="0" flags="0x1000"/>
      <component glyphName="uni0326" x="815" y="1059" scale="-1.0" flags="0x1000"/>
    </TTGlyph>
    <TTGlyph name="germandbls" xMin="225" yMin="0" xMax="1163" yMax="1520">
      <contour>
        <pt x="866" y="1520" on="0"/>
        <pt x="1090" y="1317" on="0"/>
        <pt x="1090" y="1147" on="1"/>
        <pt x="1090" y="1004" on="0"/>
        <pt x="924" y="799" on="0"/>
        <pt x="784" y="772" on="1"/>
        <pt x="956" y="752" on="0"/>
        <pt x="1163" y="551" on="0"/>
        <pt x="1163" y="403" on="1"/>
        <pt x="1163" y="282" on="0"/>
        <pt x="1044" y="98" on="0"/>
        <pt x="823" y="0" on="0"/>
        <pt x="676" y="0" on="1"/>
        <pt x="563" y="0" on="1"/>
        <pt x="563" y="41" on="1"/>
        <pt x="676" y="41" on="1"/>
        <pt x="879" y="41" on="0"/>
        <pt x="1122" y="240" on="0"/>
        <pt x="1122" y="403" on="1"/>
        <pt x="1122" y="561" on="0"/>
        <pt x="868" y="748" on="0"/>
        <pt x="657" y="748" on="1"/>
        <pt x="647" y="748" on="1"/>
        <pt x="647" y="788" on="1"/>
        <pt x="829" y="788" on="0"/>
        <pt x="1049" y="983" on="0"/>
        <pt x="1049" y="1147" on="1"/>
        <pt x="1049" y="1299" on="0"/>
        <pt x="846" y="1479" on="0"/>
        <pt x="678" y="1479" on="1"/>
        <pt x="555" y="1479" on="0"/>
        <pt x="369" y="1364" on="0"/>
        <pt x="266" y="1155" on="0"/>
        <pt x="266" y="1016" on="1"/>
        <pt x="266" y="0" on="1"/>
        <pt x="225" y="0" on="1"/>
        <pt x="225" y="1016" on="1"/>
        <pt x="225" y="1168" on="0"/>
        <pt x="338" y="1395" on="0"/>
        <pt x="543" y="1520" on="0"/>
        <pt x="678" y="1520" on="1"/>
      </contour>
    </TTGlyph>
    <TTGlyph name="grave" xMin="195" yMin="1278" xMax="524" yMax="1513">
      <contour>
        <pt x="459" y="1278" on="1"/>
        <pt x="195" y="1493" on="1"/>
        <pt x="233" y="1513" on="1"/>
        <pt x="524" y="1278" on="1"/>
      </contour>
    </TTGlyph>
    <TTGlyph name="greater" xMin="82" yMin="264" xMax="901" yMax="1079">
      <contour>
        <pt x="862" y="672" on="1"/>
        <pt x="82" y="1034" on="1"/>
        <pt x="82" y="1079" on="1"/>
        <pt x="901" y="698" on="1"/>
        <pt x="901" y="645" on="1"/>
        <pt x="82" y="264" on="1"/>
        <pt x="82" y="309" on="1"/>
      </contour>
    </TTGlyph>
    <TTGlyph name="greaterequal" xMin="82" yMin="113" xMax="901" yMax="1179">
      <component glyphName="greater" x="0" y="100" flags="0x1000"/>
      <component glyphName="minus" x="0" y="-522" flags="0x1000"/>
    </TTGlyph>
    <TTGlyph name="guillemotleft" xMin="119" yMin="193" xMax="622" yMax="825">
      <component glyphName="guilsinglleft" x="0" y="0" flags="0x1000"/>
      <component glyphName="guilsinglleft" x="231" y="0" flags="0x1000"/>
    </TTGlyph>
    <TTGlyph name="guillemotright" xMin="158" yMin="193" xMax="661" yMax="825">
      <component glyphName="guilsinglright" x="0" y="0" flags="0x1000"/>
      <component glyphName="guilsinglright" x="231" y="0" flags="0x1000"/>
    </TTGlyph>
    <TTGlyph name="guilsinglleft" xMin="119" yMin="193" xMax="391" yMax="825">
      <contour>
        <pt x="391" y="193" on="1"/>
        <pt x="342" y="193" on="1"/>
        <pt x="119" y="506" on="1"/>
        <pt x="342" y="825" on="1"/>
        <pt x="391" y="825" on="1"/>
        <pt x="170" y="506" on="1"/>
      </contour>
    </TTGlyph>
    <TTGlyph name="guilsinglright" xMin="158" yMin="193" xMax="430" yMax="825">
      <contour>
        <pt x="158" y="825" on="1"/>
        <pt x="207" y="825" on="1"/>
        <pt x="430" y="512" on="1"/>
        <pt x="207" y="193" on="1"/>
        <pt x="158" y="193" on="1"/>
        <pt x="379" y="512" on="1"/>
      </contour>
    </TTGlyph>
    <TTGlyph name="h" xMin="236" yMin="0" xMax="1141" yMax="1520">
      <contour>
        <pt x="922" y="1059" on="0"/>
        <pt x="1141" y="838" on="0"/>
        <pt x="1141" y="641" on="1"/>
        <pt x="1141" y="0" on="1"/>
        <pt x="1100" y="0" on="1"/>
        <pt x="1100" y="641" on="1"/>
        <pt x="1100" y="819" on="0"/>
        <pt x="901" y="1018" on="0"/>
        <pt x="725" y="1018" on="1"/>
        <pt x="514" y="1014" on="0"/>
        <pt x="276" y="750" on="0"/>
        <pt x="276" y="518" on="1"/>
        <pt x="276" y="0" on="1"/>
        <pt x="236" y="0" on="1"/>
        <pt x="236" y="1520" on="1"/>
        <pt x="276" y="1520" on="1"/>
        <pt x="276" y="754" on="1"/>
        <pt x="327" y="897" on="0"/>
        <pt x="557" y="1057" on="0"/>
        <pt x="725" y="1059" on="1"/>
      </contour>
    </TTGlyph>
    <TTGlyph name="hbar" xMin="51" yMin="0" xMax="1141" yMax="1520">
      <contour>
        <pt x="922" y="1059" on="0"/>
        <pt x="1141" y="838" on="0"/>
        <pt x="1141" y="641" on="1"/>
        <pt x="1141" y="0" on="1"/>
        <pt x="1100" y="0" on="1"/>
        <pt x="1100" y="641" on="1"/>
        <pt x="1100" y="819" on="0"/>
        <pt x="901" y="1018" on="0"/>
        <pt x="725" y="1018" on="1"/>
        <pt x="514" y="1014" on="0"/>
        <pt x="276" y="750" on="0"/>
        <pt x="276" y="518" on="1"/>
        <pt x="276" y="0" on="1"/>
        <pt x="236" y="0" on="1"/>
        <pt x="236" y="1260" on="1"/>
        <pt x="51" y="1260" on="1"/>
        <pt x="51" y="1300" on="1"/>
        <pt x="236" y="1300" on="1"/>
        <pt x="236" y="1520" on="1"/>
        <pt x="276" y="1520" on="1"/>
        <pt x="276" y="1300" on="1"/>
        <pt x="645" y="1300" on="1"/>
        <pt x="645" y="1260" on="1"/>
        <pt x="276" y="1260" on="1"/>
        <pt x="276" y="754" on="1"/>
        <pt x="327" y="897" on="0"/>
        <pt x="557" y="1057" on="0"/>
        <pt x="725" y="1059" on="1"/>
      </contour>
    </TTGlyph>
    <TTGlyph name="hungarumlaut" xMin="113" yMin="1278" xMax="604" yMax="1513">
      <contour>
        <pt x="168" y="1278" on="1"/>
        <pt x="113" y="1278" on="1"/>
        <pt x="326" y="1513" on="1"/>
        <pt x="360" y="1491" on="1"/>
      </contour>
      <contour>
        <pt x="412" y="1278" on="1"/>
        <pt x="356" y="1278" on="1"/>
        <pt x="569" y="1513" on="1"/>
        <pt x="604" y="1491" on="1"/>
      </contour>
    </TTGlyph>
    <TTGlyph name="hyphen" xMin="143" yMin="594" xMax="588" yMax="635">
      <contour>
        <pt x="143" y="594" on="1"/>
        <pt x="143" y="635" on="1"/>
        <pt x="588" y="635" on="1"/>
        <pt x="588" y="594" on="1"/>
      </contour>
    </TTGlyph>
    <TTGlyph name="i" xMin="192" yMin="0" xMax="299" yMax="1417">
      <component glyphName="dotlessi" x="0" y="0" flags="0x1000"/>
      <component glyphName="dotaccent" x="-113" y="0" flags="0x1000"/>
    </TTGlyph>
    <TTGlyph name="iacute" xMin="181" yMin="0" xMax="510" yMax="1513">
      <component glyphName="dotlessi" x="0" y="0" flags="0x1000"/>
      <component glyphName="acute" x="-14" y="0" flags="0x1000"/>
    </TTGlyph>
    <TTGlyph name="icircumflex" xMin="12" yMin="0" xMax="479" yMax="1503">
      <component glyphName="dotlessi" x="0" y="0" flags="0x1000"/>
      <component glyphName="circumflex" x="-113" y="0" flags="0x1000"/>
    </TTGlyph>
    <TTGlyph name="idieresis" xMin="39" yMin="0" xMax="453" yMax="1417">
      <contour>
        <pt x="115" y="1417" on="0"/>
        <pt x="145" y="1386" on="0"/>
        <pt x="145" y="1364" on="1"/>
        <pt x="145" y="1344" on="0"/>
        <pt x="115" y="1311" on="0"/>
        <pt x="92" y="1311" on="1"/>
        <pt x="72" y="1311" on="0"/>
        <pt x="39" y="1343" on="0"/>
        <pt x="39" y="1364" on="1"/>
        <pt x="39" y="1387" on="0"/>
        <pt x="72" y="1417" on="0"/>
        <pt x="92" y="1417" on="1"/>
      </contour>
      <contour>
        <pt x="422" y="1417" on="0"/>
        <pt x="453" y="1386" on="0"/>
        <pt x="453" y="1364" on="1"/>
        <pt x="453" y="1344" on="0"/>
        <pt x="422" y="1311" on="0"/>
        <pt x="399" y="1311" on="1"/>
        <pt x="379" y="1311" on="0"/>
        <pt x="346" y="1343" on="0"/>
        <pt x="346" y="1364" on="1"/>
        <pt x="346" y="1387" on="0"/>
        <pt x="379" y="1417" on="0"/>
        <pt x="399" y="1417" on="1"/>
      </contour>
      <contour>
        <pt x="225" y="0" on="1"/>
        <pt x="225" y="1059" on="1"/>
        <pt x="266" y="1059" on="1"/>
        <pt x="266" y="0" on="1"/>
      </contour>
    </TTGlyph>
    <TTGlyph name="igrave" xMin="-18" yMin="0" xMax="311" yMax="1513">
      <component glyphName="dotlessi" x="0" y="0" flags="0x1000"/>
      <component glyphName="grave" x="-213" y="0" flags="0x1000"/>
    </TTGlyph>
    <TTGlyph name="ij" xMin="193" yMin="-395" xMax="780" yMax="1417">
      <contour>
        <pt x="268" y="1417" on="0"/>
        <pt x="299" y="1386" on="0"/>
        <pt x="299" y="1364" on="1"/>
        <pt x="299" y="1344" on="0"/>
        <pt x="268" y="1311" on="0"/>
        <pt x="246" y="1311" on="1"/>
        <pt x="226" y="1311" on="0"/>
        <pt x="193" y="1343" on="0"/>
        <pt x="193" y="1364" on="1"/>
        <pt x="193" y="1387" on="0"/>
        <pt x="225" y="1417" on="0"/>
        <pt x="246" y="1417" on="1"/>
      </contour>
      <contour>
        <pt x="750" y="1417" on="0"/>
        <pt x="780" y="1386" on="0"/>
        <pt x="780" y="1364" on="1"/>
        <pt x="780" y="1344" on="0"/>
        <pt x="750" y="1311" on="0"/>
        <pt x="727" y="1311" on="1"/>
        <pt x="707" y="1311" on="0"/>
        <pt x="674" y="1343" on="0"/>
        <pt x="674" y="1364" on="1"/>
        <pt x="674" y="1387" on="0"/>
        <pt x="707" y="1417" on="0"/>
        <pt x="727" y="1417" on="1"/>
      </contour>
      <contour>
        <pt x="225" y="0" on="1"/>
        <pt x="225" y="1059" on="1"/>
        <pt x="266" y="1059" on="1"/>
        <pt x="266" y="0" on="1"/>
      </contour>
      <contour>
        <pt x="748" y="-227" on="0"/>
        <pt x="629" y="-395" on="0"/>
        <pt x="514" y="-395" on="1"/>
        <pt x="403" y="-395" on="0"/>
        <pt x="301" y="-319" on="1"/>
        <pt x="326" y="-287" on="1"/>
        <pt x="410" y="-355" on="0"/>
        <pt x="514" y="-354" on="1"/>
        <pt x="608" y="-354" on="0"/>
        <pt x="707" y="-207" on="0"/>
        <pt x="707" y="-63" on="1"/>
        <pt x="707" y="1059" on="1"/>
        <pt x="748" y="1059" on="1"/>
        <pt x="748" y="-63" on="1"/>
      </contour>
    </TTGlyph>
    <TTGlyph name="imacron" xMin="22" yMin="0" xMax="467" yMax="1386">
      <component glyphName="dotlessi" x="0" y="0" flags="0x1000"/>
      <component glyphName="macron" x="-115" y="0" flags="0x1000"/>
    </TTGlyph>
    <TTGlyph name="infinity" xMin="106" yMin="266" xMax="1757" yMax="989">
      <contour>
        <pt x="1497" y="989" on="0"/>
        <pt x="1663" y="895" on="0"/>
        <pt x="1757" y="729" on="0"/>
        <pt x="1757" y="629" on="1"/>
        <pt x="1757" y="529" on="0"/>
        <pt x="1663" y="362" on="0"/>
        <pt x="1497" y="268" on="0"/>
        <pt x="1397" y="268" on="1"/>
        <pt x="1276" y="268" on="0"/>
        <pt x="1104" y="354" on="0"/>
        <pt x="993" y="483" on="0"/>
        <pt x="932" y="586" on="1"/>
        <pt x="871" y="484" on="0"/>
        <pt x="760" y="352" on="0"/>
        <pt x="590" y="266" on="0"/>
        <pt x="467" y="266" on="1"/>
        <pt x="367" y="266" on="0"/>
        <pt x="201" y="360" on="0"/>
        <pt x="106" y="526" on="0"/>
        <pt x="106" y="627" on="1"/>
        <pt x="106" y="727" on="0"/>
        <pt x="201" y="893" on="0"/>
        <pt x="367" y="987" on="0"/>
        <pt x="467" y="987" on="1"/>
        <pt x="588" y="987" on="0"/>
        <pt x="760" y="901" on="0"/>
        <pt x="870" y="772" on="0"/>
        <pt x="932" y="670" on="1"/>
        <pt x="993" y="772" on="0"/>
        <pt x="1104" y="903" on="0"/>
        <pt x="1274" y="989" on="0"/>
        <pt x="1397" y="989" on="1"/>
      </contour>
      <contour>
        <pt x="1487" y="309" on="0"/>
        <pt x="1634" y="391" on="0"/>
        <pt x="1716" y="539" on="0"/>
        <pt x="1716" y="629" on="1"/>
        <pt x="1716" y="719" on="0"/>
        <pt x="1634" y="866" on="0"/>
        <pt x="1487" y="948" on="0"/>
        <pt x="1397" y="948" on="1"/>
        <pt x="1282" y="948" on="0"/>
        <pt x="1122" y="862" on="0"/>
        <pt x="1018" y="733" on="0"/>
        <pt x="956" y="629" on="1"/>
        <pt x="1017" y="525" on="0"/>
        <pt x="1122" y="395" on="0"/>
        <pt x="1282" y="309" on="0"/>
        <pt x="1397" y="309" on="1"/>
      </contour>
      <contour>
        <pt x="582" y="307" on="0"/>
        <pt x="739" y="393" on="0"/>
        <pt x="844" y="520" on="0"/>
        <pt x="907" y="627" on="1"/>
        <pt x="844" y="733" on="0"/>
        <pt x="741" y="860" on="0"/>
        <pt x="582" y="946" on="0"/>
        <pt x="467" y="946" on="1"/>
        <pt x="377" y="946" on="0"/>
        <pt x="229" y="864" on="0"/>
        <pt x="147" y="717" on="0"/>
        <pt x="147" y="627" on="1"/>
        <pt x="147" y="537" on="0"/>
        <pt x="229" y="389" on="0"/>
        <pt x="377" y="307" on="0"/>
        <pt x="467" y="307" on="1"/>
      </contour>
    </TTGlyph>
    <TTGlyph name="integral" xMin="20" yMin="-223" xMax="522" yMax="1688">
      <contour>
        <pt x="467" y="1647" on="0"/>
        <pt x="418" y="1647" on="1"/>
        <pt x="342" y="1647" on="0"/>
        <pt x="276" y="1511" on="0"/>
        <pt x="276" y="1350" on="1"/>
        <pt x="276" y="1182" on="0"/>
        <pt x="293" y="748" on="1"/>
        <pt x="309" y="302" on="0"/>
        <pt x="309" y="115" on="1"/>
        <pt x="309" y="-67" on="0"/>
        <pt x="225" y="-223" on="0"/>
        <pt x="127" y="-223" on="1"/>
        <pt x="80" y="-223" on="0"/>
        <pt x="20" y="-197" on="1"/>
        <pt x="39" y="-160" on="1"/>
        <pt x="76" y="-183" on="0"/>
        <pt x="127" y="-182" on="1"/>
        <pt x="203" y="-182" on="0"/>
        <pt x="268" y="-47" on="0"/>
        <pt x="268" y="115" on="1"/>
        <pt x="268" y="301" on="0"/>
        <pt x="252" y="748" on="1"/>
        <pt x="236" y="1182" on="0"/>
        <pt x="236" y="1350" on="1"/>
        <pt x="236" y="1532" on="0"/>
        <pt x="319" y="1688" on="0"/>
        <pt x="418" y="1688" on="1"/>
        <pt x="463" y="1688" on="0"/>
        <pt x="522" y="1661" on="1"/>
        <pt x="504" y="1624" on="1"/>
      </contour>
    </TTGlyph>
    <TTGlyph name="iogonek" xMin="109" yMin="-408" xMax="391" yMax="1417">
      <contour>
        <pt x="258" y="1417" on="0"/>
        <pt x="289" y="1386" on="0"/>
        <pt x="289" y="1364" on="1"/>
        <pt x="289" y="1344" on="0"/>
        <pt x="258" y="1311" on="0"/>
        <pt x="236" y="1311" on="1"/>
        <pt x="216" y="1311" on="0"/>
        <pt x="182" y="1343" on="0"/>
        <pt x="182" y="1364" on="1"/>
        <pt x="182" y="1387" on="0"/>
        <pt x="215" y="1417" on="0"/>
        <pt x="236" y="1417" on="1"/>
      </contour>
      <contour>
        <pt x="254" y="0" on="1"/>
        <pt x="193" y="-94" on="0"/>
        <pt x="150" y="-215" on="0"/>
        <pt x="150" y="-268" on="1"/>
        <pt x="150" y="-315" on="0"/>
        <pt x="201" y="-367" on="0"/>
        <pt x="240" y="-367" on="1"/>
        <pt x="299" y="-367" on="0"/>
        <pt x="362" y="-297" on="1"/>
        <pt x="391" y="-326" on="1"/>
        <pt x="360" y="-363" on="0"/>
        <pt x="279" y="-408" on="0"/>
        <pt x="240" y="-408" on="1"/>
        <pt x="185" y="-408" on="0"/>
        <pt x="109" y="-330" on="0"/>
        <pt x="109" y="-268" on="1"/>
        <pt x="109" y="-219" on="0"/>
        <pt x="158" y="-96" on="0"/>
        <pt x="217" y="0" on="1"/>
        <pt x="215" y="0" on="1"/>
        <pt x="215" y="1059" on="1"/>
        <pt x="256" y="1059" on="1"/>
        <pt x="256" y="0" on="1"/>
      </contour>
    </TTGlyph>
    <TTGlyph name="itilde" xMin="-27" yMin="0" xMax="516" yMax="1475">
      <component glyphName="dotlessi" x="0" y="0" flags="0x1000"/>
      <component glyphName="tilde" x="-115" y="0" flags="0x1000"/>
    </TTGlyph>
    <TTGlyph name="j" xMin="-190" yMin="-395" xMax="289" yMax="1417">
      <contour>
        <pt x="258" y="1417" on="0"/>
        <pt x="289" y="1386" on="0"/>
        <pt x="289" y="1364" on="1"/>
        <pt x="289" y="1344" on="0"/>
        <pt x="258" y="1311" on="0"/>
        <pt x="236" y="1311" on="1"/>
        <pt x="216" y="1311" on="0"/>
        <pt x="182" y="1343" on="0"/>
        <pt x="182" y="1364" on="1"/>
        <pt x="182" y="1387" on="0"/>
        <pt x="215" y="1417" on="0"/>
        <pt x="236" y="1417" on="1"/>
      </contour>
      <contour>
        <pt x="256" y="-227" on="0"/>
        <pt x="137" y="-395" on="0"/>
        <pt x="23" y="-395" on="1"/>
        <pt x="-88" y="-395" on="0"/>
        <pt x="-190" y="-319" on="1"/>
        <pt x="-166" y="-287" on="1"/>
        <pt x="-82" y="-355" on="0"/>
        <pt x="23" y="-354" on="1"/>
        <pt x="117" y="-354" on="0"/>
        <pt x="215" y="-207" on="0"/>
        <pt x="215" y="-63" on="1"/>
        <pt x="215" y="1059" on="1"/>
        <pt x="256" y="1059" on="1"/>
        <pt x="256" y="-63" on="1"/>
      </contour>
    </TTGlyph>
    <TTGlyph name="jcircumflex" xMin="-190" yMin="-395" xMax="469" yMax="1503">
      <component glyphName="dotlessj" x="0" y="0" flags="0x1000"/>
      <component glyphName="circumflex" x="-123" y="0" flags="0x1000"/>
    </TTGlyph>
    <TTGlyph name="k" xMin="236" yMin="0" xMax="1069" yMax="1520">
      <contour>
        <pt x="276" y="315" on="1"/>
        <pt x="276" y="0" on="1"/>
        <pt x="236" y="0" on="1"/>
        <pt x="236" y="1520" on="1"/>
        <pt x="276" y="1520" on="1"/>
        <pt x="276" y="379" on="1"/>
        <pt x="950" y="1059" on="1"/>
        <pt x="1008" y="1059" on="1"/>
        <pt x="604" y="649" on="1"/>
        <pt x="1069" y="0" on="1"/>
        <pt x="1020" y="0" on="1"/>
        <pt x="575" y="618" on="1"/>
      </contour>
    </TTGlyph>
    <TTGlyph name="kcedilla" xMin="57" yMin="-399" xMax="1069" yMax="1520">
      <contour>
        <pt x="223" y="-90" on="1"/>
        <pt x="289" y="-90" on="0"/>
        <pt x="373" y="-176" on="0"/>
        <pt x="373" y="-240" on="1"/>
        <pt x="373" y="-310" on="0"/>
        <pt x="276" y="-399" on="0"/>
        <pt x="201" y="-399" on="1"/>
        <pt x="164" y="-399" on="0"/>
        <pt x="82" y="-377" on="0"/>
        <pt x="57" y="-358" on="1"/>
        <pt x="74" y="-319" on="1"/>
        <pt x="97" y="-335" on="0"/>
        <pt x="168" y="-358" on="0"/>
        <pt x="201" y="-358" on="1"/>
        <pt x="258" y="-358" on="0"/>
        <pt x="332" y="-293" on="0"/>
        <pt x="332" y="-240" on="1"/>
        <pt x="332" y="-193" on="0"/>
        <pt x="270" y="-127" on="0"/>
        <pt x="223" y="-127" on="1"/>
        <pt x="166" y="-127" on="1"/>
        <pt x="221" y="0" on="1"/>
        <pt x="236" y="0" on="1"/>
        <pt x="236" y="1520" on="1"/>
        <pt x="276" y="1520" on="1"/>
        <pt x="276" y="379" on="1"/>
        <pt x="950" y="1059" on="1"/>
        <pt x="1008" y="1059" on="1"/>
        <pt x="604" y="649" on="1"/>
        <pt x="1069" y="0" on="1"/>
        <pt x="1020" y="0" on="1"/>
        <pt x="575" y="618" on="1"/>
        <pt x="276" y="315" on="1"/>
        <pt x="276" y="0" on="1"/>
        <pt x="262" y="0" on="1"/>
      </contour>
    </TTGlyph>
    <TTGlyph name="kgreenlandic" xMin="225" yMin="0" xMax="1063" yMax="1059">
      <contour>
        <pt x="266" y="311" on="1"/>
        <pt x="266" y="0" on="1"/>
        <pt x="225" y="0" on="1"/>
        <pt x="225" y="1059" on="1"/>
        <pt x="266" y="1059" on="1"/>
        <pt x="266" y="375" on="1"/>
        <pt x="944" y="1059" on="1"/>
        <pt x="1001" y="1059" on="1"/>
        <pt x="598" y="649" on="1"/>
        <pt x="1063" y="0" on="1"/>
        <pt x="1014" y="0" on="1"/>
        <pt x="569" y="618" on="1"/>
      </contour>
    </TTGlyph>
    <TTGlyph name="l" xMin="236" yMin="0" xMax="276" yMax="1520">
      <contour>
        <pt x="236" y="0" on="1"/>
        <pt x="236" y="1520" on="1"/>
        <pt x="276" y="1520" on="1"/>
        <pt x="276" y="0" on="1"/>
      </contour>
    </TTGlyph>
    <TTGlyph name="lacute" xMin="191" yMin="0" xMax="520" yMax="1974">
      <component glyphName="l" x="0" y="0" flags="0x1000"/>
      <component glyphName="acute" x="-4" y="461" flags="0x1000"/>
    </TTGlyph>
    <TTGlyph name="lcaron" xMin="236" yMin="0" xMax="530" yMax="1520">
      <contour>
        <pt x="276" y="1520" on="1"/>
        <pt x="276" y="0" on="1"/>
        <pt x="236" y="0" on="1"/>
        <pt x="236" y="1520" on="1"/>
      </contour>
      <contour>
        <pt x="500" y="1432" on="0"/>
        <pt x="530" y="1399" on="0"/>
        <pt x="530" y="1376" on="1"/>
        <pt x="530" y="1356" on="0"/>
        <pt x="510" y="1325" on="1"/>
        <pt x="446" y="1229" on="1"/>
        <pt x="406" y="1229" on="1"/>
        <pt x="461" y="1325" on="1"/>
        <pt x="445" y="1331" on="0"/>
        <pt x="424" y="1360" on="0"/>
        <pt x="424" y="1378" on="1"/>
        <pt x="424" y="1401" on="0"/>
        <pt x="455" y="1432" on="0"/>
        <pt x="477" y="1432" on="1"/>
      </contour>
    </TTGlyph>
    <TTGlyph name="lcommaaccent" xMin="194" yMin="-336" xMax="319" yMax="1520">
      <component glyphName="l" x="0" y="0" flags="0x1000"/>
      <component glyphName="uni0326" x="88" y="0" flags="0x1000"/>
    </TTGlyph>
    <TTGlyph name="ldot" xMin="236" yMin="0" xMax="530" yMax="1520">
      <contour>
        <pt x="236" y="0" on="1"/>
        <pt x="236" y="1520" on="1"/>
        <pt x="276" y="1520" on="1"/>
        <pt x="276" y="0" on="1"/>
      </contour>
      <contour>
        <pt x="500" y="678" on="0"/>
        <pt x="530" y="647" on="0"/>
        <pt x="530" y="625" on="1"/>
        <pt x="530" y="605" on="0"/>
        <pt x="500" y="571" on="0"/>
        <pt x="477" y="571" on="1"/>
        <pt x="457" y="571" on="0"/>
        <pt x="424" y="604" on="0"/>
        <pt x="424" y="625" on="1"/>
        <pt x="424" y="648" on="0"/>
        <pt x="457" y="678" on="0"/>
        <pt x="477" y="678" on="1"/>
      </contour>
    </TTGlyph>
    <TTGlyph name="less" xMin="82" yMin="264" xMax="901" yMax="1079">
      <contour>
        <pt x="121" y="672" on="1"/>
        <pt x="901" y="309" on="1"/>
        <pt x="901" y="264" on="1"/>
        <pt x="82" y="645" on="1"/>
        <pt x="82" y="698" on="1"/>
        <pt x="901" y="1079" on="1"/>
        <pt x="901" y="1034" on="1"/>
      </contour>
    </TTGlyph>
    <TTGlyph name="lessequal" xMin="82" yMin="113" xMax="901" yMax="1179">
      <component glyphName="less" x="0" y="100" flags="0x1000"/>
      <component glyphName="minus" x="0" y="-522" flags="0x1000"/>
    </TTGlyph>
    <TTGlyph name="logicalnot" xMin="82" yMin="328" xMax="901" yMax="737">
      <contour>
        <pt x="901" y="328" on="1"/>
        <pt x="860" y="328" on="1"/>
        <pt x="860" y="696" on="1"/>
        <pt x="82" y="696" on="1"/>
        <pt x="82" y="737" on="1"/>
        <pt x="901" y="737" on="1"/>
      </contour>
    </TTGlyph>
    <TTGlyph name="lozenge" xMin="106" yMin="70" xMax="915" yMax="1276">
      <contour>
        <pt x="510" y="70" on="1"/>
        <pt x="106" y="676" on="1"/>
        <pt x="512" y="1276" on="1"/>
        <pt x="915" y="676" on="1"/>
      </contour>
      <contour>
        <pt x="510" y="143" on="1"/>
        <pt x="866" y="676" on="1"/>
        <pt x="512" y="1206" on="1"/>
        <pt x="156" y="676" on="1"/>
      </contour>
    </TTGlyph>
    <TTGlyph name="lslash" xMin="0" yMin="0" xMax="547" yMax="1520">
      <contour>
        <pt x="297" y="0" on="1"/>
        <pt x="256" y="0" on="1"/>
        <pt x="256" y="934" on="1"/>
        <pt x="10" y="864" on="1"/>
        <pt x="0" y="903" on="1"/>
        <pt x="256" y="977" on="1"/>
        <pt x="256" y="1520" on="1"/>
        <pt x="297" y="1520" on="1"/>
        <pt x="297" y="989" on="1"/>
        <pt x="537" y="1059" on="1"/>
        <pt x="547" y="1018" on="1"/>
        <pt x="297" y="946" on="1"/>
      </contour>
    </TTGlyph>
    <TTGlyph name="m" xMin="225" yMin="0" xMax="1952" yMax="1059">
      <contour>
        <pt x="1739" y="1059" on="0"/>
        <pt x="1952" y="838" on="0"/>
        <pt x="1952" y="641" on="1"/>
        <pt x="1952" y="0" on="1"/>
        <pt x="1911" y="0" on="1"/>
        <pt x="1911" y="641" on="1"/>
        <pt x="1911" y="819" on="0"/>
        <pt x="1718" y="1018" on="0"/>
        <pt x="1546" y="1018" on="1"/>
        <pt x="1339" y="1014" on="0"/>
        <pt x="1110" y="750" on="0"/>
        <pt x="1110" y="518" on="1"/>
        <pt x="1110" y="0" on="1"/>
        <pt x="1069" y="0" on="1"/>
        <pt x="1069" y="641" on="1"/>
        <pt x="1069" y="819" on="0"/>
        <pt x="874" y="1018" on="0"/>
        <pt x="702" y="1018" on="1"/>
        <pt x="497" y="1014" on="0"/>
        <pt x="266" y="750" on="0"/>
        <pt x="266" y="518" on="1"/>
        <pt x="266" y="0" on="1"/>
        <pt x="225" y="0" on="1"/>
        <pt x="225" y="1059" on="1"/>
        <pt x="266" y="1059" on="1"/>
        <pt x="266" y="756" on="1"/>
        <pt x="315" y="899" on="0"/>
        <pt x="541" y="1057" on="0"/>
        <pt x="705" y="1059" on="1"/>
        <pt x="871" y="1059" on="0"/>
        <pt x="1079" y="889" on="0"/>
        <pt x="1104" y="735" on="1"/>
        <pt x="1151" y="889" on="0"/>
        <pt x="1378" y="1057" on="0"/>
        <pt x="1546" y="1059" on="1"/>
      </contour>
    </TTGlyph>
    <TTGlyph name="macron" xMin="137" yMin="1346" xMax="582" yMax="1386">
      <contour>
        <pt x="137" y="1346" on="1"/>
        <pt x="137" y="1386" on="1"/>
        <pt x="582" y="1386" on="1"/>
        <pt x="582" y="1346" on="1"/>
      </contour>
    </TTGlyph>
    <TTGlyph name="minus" xMin="82" yMin="635" xMax="901" yMax="676">
      <contour>
        <pt x="82" y="635" on="1"/>
        <pt x="82" y="676" on="1"/>
        <pt x="901" y="676" on="1"/>
        <pt x="901" y="635" on="1"/>
      </contour>
    </TTGlyph>
    <TTGlyph name="mu" xMin="233" yMin="-397" xMax="1124" yMax="1059">
      <contour>
        <pt x="1124" y="0" on="1"/>
        <pt x="1083" y="0" on="1"/>
        <pt x="1083" y="309" on="1"/>
        <pt x="1034" y="162" on="0"/>
        <pt x="809" y="2" on="0"/>
        <pt x="643" y="0" on="1"/>
        <pt x="510" y="0" on="0"/>
        <pt x="324" y="106" on="0"/>
        <pt x="276" y="205" on="1"/>
        <pt x="276" y="-397" on="1"/>
        <pt x="236" y="-397" on="1"/>
        <pt x="236" y="367" on="1"/>
        <pt x="234" y="383" on="0"/>
        <pt x="233" y="418" on="1"/>
        <pt x="233" y="1059" on="1"/>
        <pt x="276" y="1059" on="1"/>
        <pt x="276" y="369" on="1"/>
        <pt x="290" y="213" on="0"/>
        <pt x="481" y="41" on="0"/>
        <pt x="643" y="41" on="1"/>
        <pt x="850" y="45" on="0"/>
        <pt x="1083" y="309" on="0"/>
        <pt x="1083" y="541" on="1"/>
        <pt x="1083" y="1059" on="1"/>
        <pt x="1124" y="1059" on="1"/>
      </contour>
    </TTGlyph>
    <TTGlyph name="multiply" xMin="188" yMin="352" xMax="795" yMax="958">
      <contour>
        <pt x="795" y="381" on="1"/>
        <pt x="766" y="352" on="1"/>
        <pt x="492" y="627" on="1"/>
        <pt x="217" y="352" on="1"/>
        <pt x="188" y="381" on="1"/>
        <pt x="463" y="655" on="1"/>
        <pt x="188" y="930" on="1"/>
        <pt x="217" y="958" on="1"/>
        <pt x="492" y="684" on="1"/>
        <pt x="766" y="958" on="1"/>
        <pt x="795" y="930" on="1"/>
        <pt x="520" y="655" on="1"/>
      </contour>
    </TTGlyph>
    <TTGlyph name="n" xMin="225" yMin="0" xMax="1128" yMax="1059">
      <contour>
        <pt x="909" y="1059" on="0"/>
        <pt x="1128" y="838" on="0"/>
        <pt x="1128" y="641" on="1"/>
        <pt x="1128" y="0" on="1"/>
        <pt x="1087" y="0" on="1"/>
        <pt x="1087" y="641" on="1"/>
        <pt x="1087" y="819" on="0"/>
        <pt x="889" y="1018" on="0"/>
        <pt x="713" y="1018" on="1"/>
        <pt x="516" y="1014" on="0"/>
        <pt x="283" y="780" on="0"/>
        <pt x="266" y="575" on="1"/>
        <pt x="266" y="0" on="1"/>
        <pt x="225" y="0" on="1"/>
        <pt x="225" y="1059" on="1"/>
        <pt x="266" y="1059" on="1"/>
        <pt x="266" y="760" on="1"/>
        <pt x="317" y="901" on="0"/>
        <pt x="547" y="1057" on="0"/>
        <pt x="713" y="1059" on="1"/>
      </contour>
    </TTGlyph>
    <TTGlyph name="nacute" xMin="225" yMin="0" xMax="1128" yMax="1513">
      <component glyphName="n" x="0" y="0" flags="0x1000"/>
      <component glyphName="acute" x="420" y="0" flags="0x1000"/>
    </TTGlyph>
    <TTGlyph name="ncaron" xMin="225" yMin="0" xMax="1128" yMax="1503">
      <component glyphName="n" x="0" y="0" flags="0x1000"/>
      <component glyphName="caron" x="322" y="0" flags="0x1000"/>
    </TTGlyph>
    <TTGlyph name="ncommaaccent" xMin="225" yMin="-336" xMax="1128" yMax="1059">
      <component glyphName="n" x="0" y="0" flags="0x1000"/>
      <component glyphName="uni0326" x="498" y="0" flags="0x1000"/>
    </TTGlyph>
    <TTGlyph name="nine" xMin="123" yMin="0" xMax="1100" yMax="1432">
      <component glyphName="six" x="1223" y="1432" scale="-1.0" flags="0x1000"/>
    </TTGlyph>
    <TTGlyph name="nine.dnom" xMin="100" yMin="0" xMax="696" yMax="831">
      <contour>
        <pt x="252" y="0" on="0"/>
        <pt x="135" y="53" on="1"/>
        <pt x="156" y="88" on="1"/>
        <pt x="199" y="63" on="0"/>
        <pt x="309" y="37" on="0"/>
        <pt x="360" y="37" on="1"/>
        <pt x="499" y="37" on="0"/>
        <pt x="655" y="246" on="0"/>
        <pt x="655" y="434" on="1"/>
        <pt x="655" y="463" on="0"/>
        <pt x="651" y="520" on="1"/>
        <pt x="628" y="420" on="0"/>
        <pt x="481" y="307" on="0"/>
        <pt x="369" y="307" on="1"/>
        <pt x="244" y="307" on="0"/>
        <pt x="100" y="446" on="0"/>
        <pt x="100" y="565" on="1"/>
        <pt x="100" y="688" on="0"/>
        <pt x="250" y="831" on="0"/>
        <pt x="377" y="831" on="1"/>
        <pt x="529" y="831" on="0"/>
        <pt x="696" y="627" on="0"/>
        <pt x="696" y="436" on="1"/>
        <pt x="696" y="237" on="0"/>
        <pt x="518" y="0" on="0"/>
        <pt x="365" y="0" on="1"/>
      </contour>
      <contour>
        <pt x="489" y="344" on="0"/>
        <pt x="629" y="479" on="0"/>
        <pt x="629" y="571" on="1"/>
        <pt x="629" y="620" on="0"/>
        <pt x="575" y="723" on="0"/>
        <pt x="465" y="793" on="0"/>
        <pt x="383" y="793" on="1"/>
        <pt x="277" y="793" on="0"/>
        <pt x="143" y="668" on="0"/>
        <pt x="143" y="563" on="1"/>
        <pt x="143" y="463" on="0"/>
        <pt x="268" y="344" on="0"/>
        <pt x="373" y="344" on="1"/>
      </contour>
    </TTGlyph>
    <TTGlyph name="nine.numr" xMin="100" yMin="600" xMax="696" yMax="1432">
      <contour>
        <pt x="252" y="600" on="0"/>
        <pt x="135" y="653" on="1"/>
        <pt x="156" y="688" on="1"/>
        <pt x="199" y="663" on="0"/>
        <pt x="309" y="637" on="0"/>
        <pt x="360" y="637" on="1"/>
        <pt x="499" y="637" on="0"/>
        <pt x="655" y="846" on="0"/>
        <pt x="655" y="1034" on="1"/>
        <pt x="655" y="1063" on="0"/>
        <pt x="651" y="1120" on="1"/>
        <pt x="628" y="1020" on="0"/>
        <pt x="481" y="907" on="0"/>
        <pt x="369" y="907" on="1"/>
        <pt x="244" y="907" on="0"/>
        <pt x="100" y="1047" on="0"/>
        <pt x="100" y="1165" on="1"/>
        <pt x="100" y="1288" on="0"/>
        <pt x="250" y="1432" on="0"/>
        <pt x="377" y="1432" on="1"/>
        <pt x="529" y="1432" on="0"/>
        <pt x="696" y="1227" on="0"/>
        <pt x="696" y="1036" on="1"/>
        <pt x="696" y="837" on="0"/>
        <pt x="518" y="600" on="0"/>
        <pt x="365" y="600" on="1"/>
      </contour>
      <contour>
        <pt x="489" y="944" on="0"/>
        <pt x="629" y="1079" on="0"/>
        <pt x="629" y="1171" on="1"/>
        <pt x="629" y="1220" on="0"/>
        <pt x="575" y="1323" on="0"/>
        <pt x="465" y="1393" on="0"/>
        <pt x="383" y="1393" on="1"/>
        <pt x="277" y="1393" on="0"/>
        <pt x="143" y="1268" on="0"/>
        <pt x="143" y="1163" on="1"/>
        <pt x="143" y="1063" on="0"/>
        <pt x="268" y="944" on="0"/>
        <pt x="373" y="944" on="1"/>
      </contour>
    </TTGlyph>
    <TTGlyph name="notequal" xMin="82" yMin="100" xMax="901" yMax="1200">
      <contour>
        <pt x="438" y="471" on="1"/>
        <pt x="901" y="471" on="1"/>
        <pt x="901" y="430" on="1"/>
        <pt x="426" y="430" on="1"/>
        <pt x="319" y="100" on="1"/>
        <pt x="281" y="100" on="1"/>
        <pt x="387" y="430" on="1"/>
        <pt x="82" y="430" on="1"/>
        <pt x="82" y="471" on="1"/>
        <pt x="399" y="471" on="1"/>
        <pt x="518" y="840" on="1"/>
        <pt x="82" y="840" on="1"/>
        <pt x="82" y="881" on="1"/>
        <pt x="530" y="881" on="1"/>
        <pt x="633" y="1200" on="1"/>
        <pt x="672" y="1200" on="1"/>
        <pt x="569" y="881" on="1"/>
        <pt x="901" y="881" on="1"/>
        <pt x="901" y="840" on="1"/>
        <pt x="557" y="840" on="1"/>
      </contour>
    </TTGlyph>
    <TTGlyph name="ntilde" xMin="225" yMin="0" xMax="1128" yMax="1475">
      <component glyphName="n" x="0" y="0" flags="0x1000"/>
      <component glyphName="tilde" x="322" y="0" flags="0x1000"/>
    </TTGlyph>
    <TTGlyph name="numbersign" xMin="94" yMin="0" xMax="1350" yMax="1432">
      <contour>
        <pt x="975" y="426" on="1"/>
        <pt x="922" y="0" on="1"/>
        <pt x="881" y="0" on="1"/>
        <pt x="934" y="426" on="1"/>
        <pt x="442" y="426" on="1"/>
        <pt x="389" y="0" on="1"/>
        <pt x="348" y="0" on="1"/>
        <pt x="401" y="426" on="1"/>
        <pt x="96" y="426" on="1"/>
        <pt x="94" y="467" on="1"/>
        <pt x="406" y="467" on="1"/>
        <pt x="467" y="958" on="1"/>
        <pt x="162" y="958" on="1"/>
        <pt x="160" y="999" on="1"/>
        <pt x="471" y="999" on="1"/>
        <pt x="524" y="1432" on="1"/>
        <pt x="565" y="1432" on="1"/>
        <pt x="512" y="999" on="1"/>
        <pt x="1004" y="999" on="1"/>
        <pt x="1057" y="1432" on="1"/>
        <pt x="1098" y="1432" on="1"/>
        <pt x="1044" y="999" on="1"/>
        <pt x="1348" y="999" on="1"/>
        <pt x="1350" y="958" on="1"/>
        <pt x="1040" y="958" on="1"/>
        <pt x="979" y="467" on="1"/>
        <pt x="1282" y="467" on="1"/>
        <pt x="1284" y="426" on="1"/>
      </contour>
      <contour>
        <pt x="999" y="958" on="1"/>
        <pt x="508" y="958" on="1"/>
        <pt x="446" y="467" on="1"/>
        <pt x="938" y="467" on="1"/>
      </contour>
    </TTGlyph>
    <TTGlyph name="o" xMin="106" yMin="0" xMax="1135" yMax="1059">
      <contour>
        <pt x="766" y="1059" on="0"/>
        <pt x="1001" y="924" on="0"/>
        <pt x="1135" y="682" on="0"/>
        <pt x="1135" y="530" on="1"/>
        <pt x="1135" y="378" on="0"/>
        <pt x="1001" y="137" on="0"/>
        <pt x="766" y="0" on="0"/>
        <pt x="621" y="0" on="1"/>
        <pt x="476" y="0" on="0"/>
        <pt x="240" y="137" on="0"/>
        <pt x="106" y="379" on="0"/>
        <pt x="106" y="530" on="1"/>
        <pt x="106" y="682" on="0"/>
        <pt x="240" y="924" on="0"/>
        <pt x="475" y="1059" on="0"/>
        <pt x="621" y="1059" on="1"/>
      </contour>
      <contour>
        <pt x="485" y="1018" on="0"/>
        <pt x="268" y="893" on="0"/>
        <pt x="147" y="672" on="0"/>
        <pt x="147" y="530" on="1"/>
        <pt x="147" y="389" on="0"/>
        <pt x="268" y="166" on="0"/>
        <pt x="485" y="41" on="0"/>
        <pt x="621" y="41" on="1"/>
        <pt x="756" y="41" on="0"/>
        <pt x="973" y="166" on="0"/>
        <pt x="1094" y="389" on="0"/>
        <pt x="1094" y="530" on="1"/>
        <pt x="1094" y="671" on="0"/>
        <pt x="973" y="893" on="0"/>
        <pt x="756" y="1018" on="0"/>
        <pt x="621" y="1018" on="1"/>
      </contour>
    </TTGlyph>
    <TTGlyph name="oacute" xMin="106" yMin="0" xMax="1135" yMax="1513">
      <component glyphName="o" x="0" y="0" flags="0x1000"/>
      <component glyphName="acute" x="360" y="0" flags="0x1000"/>
    </TTGlyph>
    <TTGlyph name="ocircumflex" xMin="106" yMin="0" xMax="1135" yMax="1503">
      <component glyphName="o" x="0" y="0" flags="0x1000"/>
      <component glyphName="circumflex" x="262" y="0" flags="0x1000"/>
    </TTGlyph>
    <TTGlyph name="odieresis" xMin="106" yMin="0" xMax="1135" yMax="1417">
      <contour>
        <pt x="489" y="1417" on="0"/>
        <pt x="520" y="1386" on="0"/>
        <pt x="520" y="1364" on="1"/>
        <pt x="520" y="1344" on="0"/>
        <pt x="489" y="1311" on="0"/>
        <pt x="467" y="1311" on="1"/>
        <pt x="447" y="1311" on="0"/>
        <pt x="414" y="1343" on="0"/>
        <pt x="414" y="1364" on="1"/>
        <pt x="414" y="1387" on="0"/>
        <pt x="446" y="1417" on="0"/>
        <pt x="467" y="1417" on="1"/>
      </contour>
      <contour>
        <pt x="797" y="1417" on="0"/>
        <pt x="827" y="1386" on="0"/>
        <pt x="827" y="1364" on="1"/>
        <pt x="827" y="1344" on="0"/>
        <pt x="797" y="1311" on="0"/>
        <pt x="774" y="1311" on="1"/>
        <pt x="754" y="1311" on="0"/>
        <pt x="721" y="1343" on="0"/>
        <pt x="721" y="1364" on="1"/>
        <pt x="721" y="1387" on="0"/>
        <pt x="754" y="1417" on="0"/>
        <pt x="774" y="1417" on="1"/>
      </contour>
      <contour>
        <pt x="766" y="1059" on="0"/>
        <pt x="1001" y="924" on="0"/>
        <pt x="1135" y="682" on="0"/>
        <pt x="1135" y="530" on="1"/>
        <pt x="1135" y="378" on="0"/>
        <pt x="1001" y="137" on="0"/>
        <pt x="766" y="0" on="0"/>
        <pt x="621" y="0" on="1"/>
        <pt x="476" y="0" on="0"/>
        <pt x="240" y="137" on="0"/>
        <pt x="106" y="379" on="0"/>
        <pt x="106" y="530" on="1"/>
        <pt x="106" y="682" on="0"/>
        <pt x="240" y="924" on="0"/>
        <pt x="475" y="1059" on="0"/>
        <pt x="621" y="1059" on="1"/>
      </contour>
      <contour>
        <pt x="485" y="1018" on="0"/>
        <pt x="268" y="893" on="0"/>
        <pt x="147" y="672" on="0"/>
        <pt x="147" y="530" on="1"/>
        <pt x="147" y="389" on="0"/>
        <pt x="268" y="166" on="0"/>
        <pt x="485" y="41" on="0"/>
        <pt x="621" y="41" on="1"/>
        <pt x="756" y="41" on="0"/>
        <pt x="973" y="166" on="0"/>
        <pt x="1094" y="389" on="0"/>
        <pt x="1094" y="530" on="1"/>
        <pt x="1094" y="671" on="0"/>
        <pt x="973" y="893" on="0"/>
        <pt x="756" y="1018" on="0"/>
        <pt x="621" y="1018" on="1"/>
      </contour>
    </TTGlyph>
    <TTGlyph name="oe" xMin="106" yMin="0" xMax="2103" yMax="1059">
      <contour>
        <pt x="1724" y="41" on="0"/>
        <pt x="1919" y="121" on="0"/>
        <pt x="1987" y="195" on="1"/>
        <pt x="2015" y="166" on="1"/>
        <pt x="1941" y="86" on="0"/>
        <pt x="1731" y="0" on="0"/>
        <pt x="1610" y="0" on="1"/>
        <pt x="1428" y="0" on="0"/>
        <pt x="1161" y="205" on="0"/>
        <pt x="1116" y="377" on="1"/>
        <pt x="1069" y="205" on="0"/>
        <pt x="803" y="0" on="0"/>
        <pt x="621" y="0" on="1"/>
        <pt x="476" y="0" on="0"/>
        <pt x="240" y="137" on="0"/>
        <pt x="106" y="379" on="0"/>
        <pt x="106" y="530" on="1"/>
        <pt x="106" y="682" on="0"/>
        <pt x="240" y="924" on="0"/>
        <pt x="475" y="1059" on="0"/>
        <pt x="621" y="1059" on="1"/>
        <pt x="803" y="1059" on="0"/>
        <pt x="1069" y="854" on="0"/>
        <pt x="1116" y="684" on="1"/>
        <pt x="1161" y="854" on="0"/>
        <pt x="1427" y="1059" on="0"/>
        <pt x="1610" y="1059" on="1"/>
        <pt x="1755" y="1059" on="0"/>
        <pt x="1978" y="924" on="0"/>
        <pt x="2103" y="682" on="0"/>
        <pt x="2103" y="530" on="1"/>
        <pt x="1137" y="530" on="1"/>
        <pt x="1137" y="389" on="0"/>
        <pt x="1257" y="166" on="0"/>
        <pt x="1475" y="41" on="0"/>
        <pt x="1610" y="41" on="1"/>
      </contour>
      <contour>
        <pt x="756" y="41" on="0"/>
        <pt x="973" y="166" on="0"/>
        <pt x="1094" y="389" on="0"/>
        <pt x="1094" y="530" on="1"/>
        <pt x="1094" y="671" on="0"/>
        <pt x="973" y="893" on="0"/>
        <pt x="756" y="1018" on="0"/>
        <pt x="621" y="1018" on="1"/>
        <pt x="486" y="1018" on="0"/>
        <pt x="268" y="893" on="0"/>
        <pt x="147" y="672" on="0"/>
        <pt x="147" y="530" on="1"/>
        <pt x="147" y="389" on="0"/>
        <pt x="268" y="166" on="0"/>
        <pt x="485" y="41" on="0"/>
        <pt x="621" y="41" on="1"/>
      </contour>
      <contour>
        <pt x="1481" y="1018" on="0"/>
        <pt x="1274" y="905" on="0"/>
        <pt x="1147" y="702" on="0"/>
        <pt x="1139" y="571" on="1"/>
        <pt x="2062" y="571" on="1"/>
        <pt x="2048" y="772" on="0"/>
        <pt x="1804" y="1018" on="0"/>
        <pt x="1610" y="1018" on="1"/>
      </contour>
    </TTGlyph>
    <TTGlyph name="ogonek" xMin="217" yMin="-408" xMax="500" yMax="0">
      <contour>
        <pt x="311" y="-96" on="0"/>
        <pt x="258" y="-217" on="0"/>
        <pt x="258" y="-268" on="1"/>
        <pt x="258" y="-315" on="0"/>
        <pt x="309" y="-367" on="0"/>
        <pt x="348" y="-367" on="1"/>
        <pt x="407" y="-367" on="0"/>
        <pt x="471" y="-297" on="1"/>
        <pt x="500" y="-326" on="1"/>
        <pt x="469" y="-363" on="0"/>
        <pt x="387" y="-408" on="0"/>
        <pt x="348" y="-408" on="1"/>
        <pt x="293" y="-408" on="0"/>
        <pt x="217" y="-330" on="0"/>
        <pt x="217" y="-268" on="1"/>
        <pt x="217" y="-219" on="0"/>
        <pt x="274" y="-94" on="0"/>
        <pt x="340" y="0" on="1"/>
        <pt x="381" y="0" on="1"/>
      </contour>
    </TTGlyph>
    <TTGlyph name="ograve" xMin="106" yMin="0" xMax="1135" yMax="1513">
      <component glyphName="o" x="0" y="0" flags="0x1000"/>
      <component glyphName="grave" x="162" y="0" flags="0x1000"/>
    </TTGlyph>
    <TTGlyph name="ohungarumlaut" xMin="106" yMin="0" xMax="1135" yMax="1513">
      <component glyphName="o" x="0" y="0" flags="0x1000"/>
      <component glyphName="hungarumlaut" x="303" y="0" flags="0x1000"/>
    </TTGlyph>
    <TTGlyph name="omacron" xMin="106" yMin="0" xMax="1135" yMax="1386">
      <component glyphName="o" x="0" y="0" flags="0x1000"/>
      <component glyphName="macron" x="262" y="0" flags="0x1000"/>
    </TTGlyph>
    <TTGlyph name="one" xMin="45" yMin="0" xMax="393" yMax="1432">
      <contour>
        <pt x="352" y="0" on="1"/>
        <pt x="352" y="1391" on="1"/>
        <pt x="45" y="1391" on="1"/>
        <pt x="45" y="1432" on="1"/>
        <pt x="393" y="1432" on="1"/>
        <pt x="393" y="0" on="1"/>
      </contour>
    </TTGlyph>
    <TTGlyph name="one.dnom" xMin="55" yMin="0" xMax="281" yMax="831">
      <contour>
        <pt x="238" y="793" on="1"/>
        <pt x="55" y="793" on="1"/>
        <pt x="55" y="831" on="1"/>
        <pt x="281" y="831" on="1"/>
        <pt x="281" y="0" on="1"/>
        <pt x="238" y="0" on="1"/>
      </contour>
    </TTGlyph>
    <TTGlyph name="one.numr" xMin="55" yMin="600" xMax="281" yMax="1432">
      <contour>
        <pt x="238" y="1393" on="1"/>
        <pt x="55" y="1393" on="1"/>
        <pt x="55" y="1432" on="1"/>
        <pt x="281" y="1432" on="1"/>
        <pt x="281" y="600" on="1"/>
        <pt x="238" y="600" on="1"/>
      </contour>
    </TTGlyph>
    <TTGlyph name="oneeighth" xMin="43" yMin="0" xMax="1400" yMax="1432">
      <component glyphName="one.numr" x="0" y="0" flags="0x1000"/>
      <component glyphName="fraction" x="616" y="0" flags="0x1000"/>
      <component glyphName="eight.dnom" x="698" y="0" flags="0x1000"/>
    </TTGlyph>
    <TTGlyph name="onehalf" xMin="43" yMin="0" xMax="1401" yMax="1432">
      <component glyphName="one.numr" x="0" y="0" flags="0x1000"/>
      <component glyphName="fraction" x="616" y="0" flags="0x1000"/>
      <component glyphName="two.dnom" x="739" y="0" flags="0x1000"/>
    </TTGlyph>
    <TTGlyph name="onequarter" xMin="43" yMin="0" xMax="1383" yMax="1432">
      <component glyphName="one.numr" x="0" y="0" flags="0x1000"/>
      <component glyphName="fraction" x="616" y="0" flags="0x1000"/>
      <component glyphName="four.dnom" x="719" y="0" flags="0x1000"/>
    </TTGlyph>
    <TTGlyph name="onesuperior" xMin="55" yMin="600" xMax="281" yMax="1432">
      <contour>
        <pt x="238" y="1393" on="1"/>
        <pt x="55" y="1393" on="1"/>
        <pt x="55" y="1432" on="1"/>
        <pt x="281" y="1432" on="1"/>
        <pt x="281" y="600" on="1"/>
        <pt x="238" y="600" on="1"/>
      </contour>
    </TTGlyph>
    <TTGlyph name="ordfeminine" xMin="104" yMin="938" xMax="621" yMax="1556">
      <contour>
        <pt x="580" y="1073" on="1"/>
        <pt x="498" y="938" on="0"/>
        <pt x="313" y="938" on="1"/>
        <pt x="219" y="938" on="0"/>
        <pt x="104" y="1038" on="0"/>
        <pt x="104" y="1116" on="1"/>
        <pt x="104" y="1192" on="0"/>
        <pt x="233" y="1278" on="0"/>
        <pt x="344" y="1278" on="1"/>
        <pt x="578" y="1278" on="1"/>
        <pt x="578" y="1346" on="1"/>
        <pt x="576" y="1428" on="0"/>
        <pt x="475" y="1518" on="0"/>
        <pt x="379" y="1518" on="1"/>
        <pt x="270" y="1518" on="0"/>
        <pt x="156" y="1436" on="1"/>
        <pt x="137" y="1468" on="1"/>
        <pt x="262" y="1556" on="0"/>
        <pt x="385" y="1556" on="1"/>
        <pt x="496" y="1556" on="0"/>
        <pt x="618" y="1444" on="0"/>
        <pt x="618" y="1348" on="1"/>
        <pt x="621" y="938" on="1"/>
        <pt x="580" y="938" on="1"/>
      </contour>
      <contour>
        <pt x="414" y="973" on="0"/>
        <pt x="543" y="1049" on="0"/>
        <pt x="580" y="1133" on="1"/>
        <pt x="578" y="1245" on="1"/>
        <pt x="348" y="1245" on="1"/>
        <pt x="252" y="1245" on="0"/>
        <pt x="145" y="1180" on="0"/>
        <pt x="145" y="1118" on="1"/>
        <pt x="145" y="1052" on="0"/>
        <pt x="242" y="973" on="0"/>
        <pt x="322" y="973" on="1"/>
      </contour>
    </TTGlyph>
    <TTGlyph name="ordmasculine" xMin="92" yMin="938" xMax="719" yMax="1556">
      <contour>
        <pt x="541" y="1556" on="0"/>
        <pt x="719" y="1382" on="0"/>
        <pt x="719" y="1247" on="1"/>
        <pt x="719" y="1112" on="0"/>
        <pt x="541" y="938" on="0"/>
        <pt x="406" y="938" on="1"/>
        <pt x="269" y="938" on="0"/>
        <pt x="92" y="1110" on="0"/>
        <pt x="92" y="1247" on="1"/>
        <pt x="92" y="1382" on="0"/>
        <pt x="268" y="1556" on="0"/>
        <pt x="406" y="1556" on="1"/>
      </contour>
      <contour>
        <pt x="287" y="1518" on="0"/>
        <pt x="133" y="1366" on="0"/>
        <pt x="133" y="1247" on="1"/>
        <pt x="133" y="1126" on="0"/>
        <pt x="287" y="975" on="0"/>
        <pt x="406" y="975" on="1"/>
        <pt x="525" y="975" on="0"/>
        <pt x="676" y="1126" on="0"/>
        <pt x="676" y="1247" on="1"/>
        <pt x="676" y="1366" on="0"/>
        <pt x="524" y="1518" on="0"/>
        <pt x="406" y="1518" on="1"/>
      </contour>
    </TTGlyph>
</ttFont>
